<?xml version="1.0" encoding="UTF-8" standalone="no"?>
<!-- Created with Inkscape (http://www.inkscape.org/) -->

<svg
   xmlns:dc="http://purl.org/dc/elements/1.1/"
   xmlns:cc="http://creativecommons.org/ns#"
   xmlns:rdf="http://www.w3.org/1999/02/22-rdf-syntax-ns#"
   xmlns:svg="http://www.w3.org/2000/svg"
   xmlns="http://www.w3.org/2000/svg"
   xmlns:sodipodi="http://sodipodi.sourceforge.net/DTD/sodipodi-0.dtd"
   xmlns:inkscape="http://www.inkscape.org/namespaces/inkscape"
   width="150"
   height="150"
   viewBox="0 0 39.687499 39.687501"
   version="1.1"
   id="svg8"
   inkscape:version="0.92.4 (5da689c313, 2019-01-14)"
   sodipodi:docname="adesivo-semana-sim.svg">
  <defs
     id="defs2">
    <pattern
       y="0"
       x="0"
       height="6"
       width="6"
       patternUnits="userSpaceOnUse"
       id="EMFhbasepattern" />
  </defs>
  <sodipodi:namedview
     id="base"
     pagecolor="#ffffff"
     bordercolor="#666666"
     borderopacity="1.0"
     inkscape:pageopacity="0.0"
     inkscape:pageshadow="2"
     inkscape:zoom="3.04553"
     inkscape:cx="70.40696"
     inkscape:cy="62.796627"
     inkscape:document-units="mm"
     inkscape:current-layer="layer2"
     showgrid="false"
     units="px"
     inkscape:window-width="1366"
     inkscape:window-height="705"
     inkscape:window-x="-8"
     inkscape:window-y="-8"
     inkscape:window-maximized="1" />
  <metadata
     id="metadata5">
    <rdf:RDF>
      <cc:Work
         rdf:about="">
        <dc:format>image/svg+xml</dc:format>
        <dc:type
           rdf:resource="http://purl.org/dc/dcmitype/StillImage" />
        <dc:title></dc:title>
      </cc:Work>
    </rdf:RDF>
  </metadata>
  <g
     inkscape:groupmode="layer"
     id="layer2"
     inkscape:label="Fundo"
     transform="translate(0,-39.6875)"
     style="display:inline">
    <circle
       style="fill:#4d4d4d;fill-opacity:0.83720928;stroke:#ffff01;stroke-width:0.26458333;stroke-miterlimit:4;stroke-dasharray:none;stroke-opacity:1"
       id="path829"
       cx="19.84375"
       cy="59.53125"
       r="19.84375" />
  </g>
  <g
     inkscape:groupmode="layer"
     id="layer3"
     inkscape:label="adesivos-semanal"
     transform="translate(0,-39.6875)"
     style="display:inline"
     sodipodi:insensitive="true">
    <path
       inkscape:connector-curvature="0"
       id="path883"
       d="m 25.869412,49.486269 c -0.0018,-0.0052 -0.06743,-0.318281 -0.145817,-0.695859 -0.07838,-0.377576 -0.152737,-0.735044 -0.165235,-0.794368 -0.0125,-0.05933 -0.02272,-0.109081 -0.02272,-0.110565 0,-0.02268 -0.04822,0.04877 -0.210916,0.312519 -0.253406,0.410807 -0.250999,0.407081 -0.258247,0.399831 -0.0055,-0.0055 -0.01795,-0.291012 -0.0299,-0.685349 -0.0042,-0.138171 -0.009,-0.173332 -0.02246,-0.164997 -0.0033,0.002 -0.220649,0.246438 -0.483015,0.543117 -0.659218,0.745433 -0.612704,0.694381 -0.612704,0.672483 0,-0.0088 0.158687,-0.485876 0.4251,-1.277892 0.04937,-0.146795 0.08978,-0.270812 0.08978,-0.275594 0,-0.0048 -0.0051,-0.0087 -0.01116,-0.0087 -0.0061,0 -0.173903,0.08764 -0.372804,0.194728 -0.326792,0.175966 -0.381747,0.203449 -0.381747,0.190899 0,-0.0021 0.08911,-0.168214 0.198029,-0.369125 0.108918,-0.200911 0.198032,-0.368504 0.198032,-0.372427 0,-0.0039 -0.004,-0.0071 -0.009,-0.0071 -0.005,0 -0.157197,0.04876 -0.338302,0.108374 -0.181106,0.0596 -0.528526,0.173966 -0.772049,0.254139 -0.243521,0.08017 -0.444987,0.145765 -0.4477,0.145765 -0.0027,0 -0.0039,-0.0039 -0.0028,-0.0087 0.002,-0.0081 0.04513,-0.04713 0.361888,-0.327363 0.06354,-0.05622 0.142406,-0.126116 0.175271,-0.155347 0.03287,-0.02923 0.133715,-0.118495 0.224111,-0.198367 0.393322,-0.347528 0.458748,-0.406756 0.458748,-0.415307 0,-0.01013 0.0013,-0.01002 -0.53138,-0.02893 -0.257535,-0.0091 -0.316849,-0.01291 -0.316849,-0.02022 0,-0.005 0.15962,-0.107427 0.35471,-0.227735 0.19509,-0.120308 0.354752,-0.222547 0.354802,-0.227199 5.2e-5,-0.0048 -0.0036,-0.0098 -0.0082,-0.01156 -0.0073,-0.0027 -0.688093,-0.145309 -0.975296,-0.204229 -0.0599,-0.01229 -0.137137,-0.02838 -0.171627,-0.03578 -0.03449,-0.0074 -0.142912,-0.02996 -0.240937,-0.05017 -0.09802,-0.02021 -0.183588,-0.03841 -0.190143,-0.04041 -0.02264,-0.007 -0.0066,-0.01908 0.03557,-0.02693 0.04924,-0.0092 1.513693,-0.303833 1.535835,-0.309027 0.0082,-0.0018 0.01485,-0.0077 0.01485,-0.01279 0,-0.0052 -0.03639,-0.03227 -0.08086,-0.06034 -0.04447,-0.02807 -0.135816,-0.08586 -0.202981,-0.128422 -0.06716,-0.04257 -0.190292,-0.120368 -0.273615,-0.172896 -0.08332,-0.05253 -0.152598,-0.0988 -0.153943,-0.102841 -0.0013,-0.004 0.0045,-0.0088 0.01289,-0.01052 0.0084,-0.0017 0.175726,-0.0064 0.371776,-0.01019 0.400969,-0.0079 0.467239,-0.0111 0.4636,-0.02239 -0.0026,-0.008 -0.171686,-0.159374 -0.797413,-0.713937 -0.447081,-0.396235 -0.426396,-0.377365 -0.420327,-0.383433 0.0026,-0.0026 0.03387,0.0042 0.06927,0.01514 0.06113,0.01902 1.464133,0.480563 1.483956,0.488171 0.0052,0.002 0.01116,-8.44e-4 0.01327,-0.0064 0.0023,-0.0059 -0.07283,-0.152349 -0.184281,-0.359191 -0.20698,-0.384156 -0.213056,-0.395931 -0.207266,-0.401719 0.0037,-0.0037 0.09483,0.04432 0.569225,0.300251 0.10159,0.05481 0.186992,0.09964 0.189778,0.09964 0.0028,0 0.0051,-0.0045 0.0051,-0.0097 0,-0.0054 -0.04479,-0.142752 -0.09955,-0.305295 -0.05476,-0.162542 -0.148584,-0.441084 -0.208506,-0.618981 -0.05992,-0.177897 -0.130969,-0.388724 -0.157883,-0.468506 -0.04933,-0.146237 -0.05352,-0.161889 -0.04335,-0.161889 0.003,0 0.04704,0.04678 0.09771,0.103967 0.572429,0.646013 0.73759,0.83237 0.852669,0.962093 0.07407,0.0835 0.138699,0.152765 0.143608,0.153913 0.01299,0.003 0.01481,-0.01328 0.01921,-0.170415 0.0081,-0.290521 0.02351,-0.689033 0.02676,-0.69227 0.0018,-0.0018 0.0075,8.45e-4 0.01257,0.0062 0.0051,0.0053 0.106242,0.169171 0.224827,0.364313 0.119434,0.196535 0.219728,0.354804 0.224837,0.354804 0.01115,0 0.0033,0.03282 0.07851,-0.33005 0.05826,-0.281197 0.206482,-0.993509 0.246446,-1.184372 0.0098,-0.04692 0.02105,-0.08635 0.02496,-0.08762 0.0043,-0.0014 0.01431,0.03267 0.02516,0.08531 0.02651,0.128583 0.300843,1.448597 0.308697,1.485387 0.0038,0.01828 0.01035,0.03136 0.01544,0.03136 0.0049,0 0.101628,-0.152235 0.215143,-0.338302 0.113515,-0.186065 0.213551,-0.349781 0.222298,-0.363813 0.0093,-0.01485 0.01836,-0.02307 0.02177,-0.01965 0.0032,0.0032 0.01058,0.195901 0.01634,0.428173 0.0058,0.232272 0.01183,0.426362 0.01347,0.431308 0.0025,0.0076 0.0048,0.0076 0.01383,0 0.0092,-0.0077 0.311443,-0.347164 0.517064,-0.580905 0.348451,-0.396107 0.565818,-0.638659 0.572636,-0.638982 0.0046,-2.52e-4 0.0083,0.0015 0.0083,0.0037 0,0.0023 -0.114582,0.350091 -0.254627,0.77288 -0.140045,0.422791 -0.252921,0.77316 -0.250835,0.778597 0.0021,0.0055 0.0062,0.0089 0.0091,0.0077 0.0029,-0.0013 0.172087,-0.09206 0.375968,-0.20188 0.203878,-0.109824 0.372304,-0.19968 0.374275,-0.19968 0.01189,0 -0.01363,0.05113 -0.171919,0.344613 -0.09653,0.178963 -0.186257,0.345419 -0.199395,0.369901 -0.01575,0.02935 -0.02166,0.04673 -0.01735,0.05104 0.0044,0.0044 0.127814,-0.03373 0.362771,-0.111721 0.853092,-0.283176 1.177064,-0.389798 1.184393,-0.389798 0.0044,0 0.0069,0.0042 0.0057,0.0092 -0.0011,0.0051 -0.119467,0.113886 -0.262873,0.241821 -0.646164,0.576458 -0.921468,0.822525 -0.932913,0.833842 -0.0088,0.0087 -0.01032,0.01425 -0.0053,0.01931 0.0048,0.0048 0.150021,0.01092 0.424772,0.01825 0.229722,0.0061 0.418419,0.01154 0.419326,0.01205 9.67e-4,4.91e-4 0.0016,0.0035 0.0016,0.0067 0,0.0073 -0.0156,0.01731 -0.392761,0.251704 -0.170636,0.106041 -0.315941,0.198251 -0.322903,0.20491 -0.01244,0.01192 -0.01239,0.01223 0.0033,0.0188 0.0088,0.0036 0.157053,0.03491 0.329505,0.06938 0.649193,0.129788 1.263206,0.254905 1.266341,0.258041 0.0018,0.0018 0.0016,0.0049 -2.88e-4,0.0069 -0.004,0.004 -0.02427,0.0083 -0.761061,0.160996 -0.794816,0.164689 -0.829505,0.171989 -0.835833,0.175901 -0.0031,0.0019 -0.0058,0.0072 -0.0058,0.01167 0,0.0045 0.161147,0.106396 0.358104,0.226566 0.196957,0.12017 0.358104,0.222554 0.358104,0.22752 0,0.0064 -0.01074,0.0095 -0.03631,0.01055 -0.01997,8.45e-4 -0.168491,0.006 -0.33005,0.01149 -0.460908,0.01563 -0.481872,0.01681 -0.481872,0.02688 0,0.0072 0.34659,0.319334 1.120519,1.009052 0.08392,0.07479 0.106111,0.103071 0.07261,0.09255 -0.0082,-0.0026 -0.246549,-0.08132 -0.529732,-0.175006 -0.970162,-0.320965 -1.001238,-0.330946 -1.008314,-0.32387 -0.0046,0.0046 0.05645,0.122466 0.190544,0.368133 0.183592,0.336332 0.20867,0.385359 0.197112,0.385359 -0.0023,0 -0.06426,-0.03234 -0.137429,-0.07187 -0.561397,-0.30325 -0.614191,-0.330863 -0.620512,-0.324542 -0.0045,0.0045 0.02053,0.08926 0.07652,0.259297 0.11792,0.358121 0.361505,1.099766 0.398019,1.211847 0.01693,0.05196 0.02891,0.09636 0.02661,0.09866 -0.0023,0.0023 -0.01123,-0.003 -0.01984,-0.01196 -0.01349,-0.01391 -0.632283,-0.712091 -0.960888,-1.084157 -0.0599,-0.06783 -0.113701,-0.123357 -0.11955,-0.123398 -0.01162,-8.4e-5 -0.01096,-0.01474 -0.02603,0.583762 -0.0036,0.145029 -0.0078,0.264888 -0.0093,0.266352 -0.0014,0.0014 -0.0056,8.45e-4 -0.0091,-0.0013 -0.0035,-0.0022 -0.105202,-0.164376 -0.225911,-0.360416 -0.12071,-0.196037 -0.223462,-0.356434 -0.228335,-0.356434 -0.0049,0 -0.0089,0.0011 -0.0089,0.0025 0,0.0023 -0.0757,0.368379 -0.254766,1.231912 -0.04179,0.201497 -0.07868,0.36908 -0.08202,0.37241 -0.0036,0.0036 -0.0074,0.0023 -0.0093,-0.0033 z m 0.192843,-2.029498 c 0.527856,-0.05507 0.99437,-0.32107 1.310013,-0.746955 0.180523,-0.243571 0.296572,-0.52617 0.345092,-0.840348 0.0142,-0.09188 0.02003,-0.324871 0.01069,-0.426182 -0.04149,-0.449913 -0.238585,-0.861844 -0.560959,-1.172472 -0.264218,-0.25459 -0.593782,-0.424978 -0.948828,-0.490553 -0.137301,-0.02535 -0.227203,-0.03173 -0.391868,-0.02776 -0.209593,0.0051 -0.346369,0.02811 -0.534988,0.09018 -0.394413,0.129791 -0.734013,0.390318 -0.968389,0.742903 -0.152138,0.228873 -0.24704,0.481478 -0.290149,0.772317 -0.01484,0.100093 -0.01678,0.383021 -0.0033,0.478571 0.03089,0.218883 0.09118,0.417932 0.180767,0.596899 0.205199,0.409914 0.54667,0.725876 0.970472,0.897974 0.179133,0.07274 0.332628,0.108317 0.56607,0.131197 0.06386,0.0063 0.229107,0.0032 0.315386,-0.0058 z"
       style="fill:#ff0000;stroke-width:0.00660099" />
    <path
       inkscape:connector-curvature="0"
       id="path1142"
       d="m 12.494291,48.554651 c -0.0039,-0.0063 -0.219927,-0.381726 -0.479907,-0.834564 l -0.472691,-0.823341 h -0.970842 c -0.6566049,0 -0.9718469,-0.0016 -0.9739459,-0.0051 -0.0017,-0.0027 0.214058,-0.383064 0.4794809,-0.845112 0.265422,-0.46205 0.483234,-0.843671 0.484028,-0.848046 7.86e-4,-0.0045 -0.21634,-0.387163 -0.482524,-0.850635 -0.2661819,-0.463473 -0.4825989,-0.844893 -0.4809249,-0.8476 0.002,-0.0032 0.329847,-0.005 0.9737499,-0.005 h 0.970706 l 0.116274,-0.202436 c 0.06395,-0.111354 0.27925,-0.486274 0.478444,-0.833157 0.202759,-0.353092 0.365121,-0.630696 0.368876,-0.630696 0.0038,0 0.141091,0.234039 0.311353,0.53055 0.167559,0.291802 0.38288,0.666721 0.478492,0.833156 l 0.173843,0.302608 h 0.970691 c 0.643038,0 0.971719,0.0017 0.973732,0.005 0.0017,0.0027 -0.214747,0.38412 -0.480927,0.847592 -0.266181,0.463472 -0.483316,0.846259 -0.48252,0.850641 7.85e-4,0.0045 0.218609,0.386006 0.484031,0.848055 0.265421,0.46205 0.481186,0.84235 0.479479,0.845112 -0.002,0.0033 -0.31734,0.0051 -0.973953,0.0051 h -0.970851 l -0.478281,0.832845 c -0.263055,0.458065 -0.480603,0.833618 -0.48344,0.834566 -0.0028,9.05e-4 -0.0084,-0.0033 -0.01238,-0.0095 z m 0.175011,-1.358441 c 0.08831,-0.153833 0.161729,-0.284145 0.163151,-0.28958 0.0025,-0.0098 8.45e-4,-0.0099 -0.327405,-0.0099 -0.328323,0 -0.329978,5.6e-5 -0.327406,0.0099 0.0036,0.01416 0.322968,0.569276 0.327406,0.569276 0.002,0 0.07594,-0.125863 0.164254,-0.279696 z m -1.448101,-0.84858 c 0.0026,-0.0043 -0.325814,-0.58095 -0.338224,-0.59382 -0.0054,-0.0056 -0.0076,-0.0048 -0.01389,0.005 -0.0323,0.05059 -0.335949,0.586248 -0.334063,0.589302 0.0033,0.0054 0.682826,0.005 0.686163,-3.86e-4 z m 1.935409,-0.0018 c 0.01601,-0.02008 0.656152,-1.141692 0.656195,-1.149731 3.6e-5,-0.0076 -0.598242,-1.056988 -0.64851,-1.137462 l -0.01148,-0.0184 h -0.647751 -0.647752 l -0.0115,0.0184 c -0.05037,0.08065 -0.648572,1.12984 -0.648528,1.137462 3.6e-5,0.0081 0.640235,1.129709 0.656208,1.149731 0.0038,0.0048 0.140111,0.0061 0.651567,0.0061 0.511458,0 0.647695,-0.0012 0.651563,-0.0061 z m 1.318447,0.0021 c 0.0019,-0.003 -0.301768,-0.538713 -0.334063,-0.589303 -0.0063,-0.0097 -0.0085,-0.01054 -0.01387,-0.005 -0.01254,0.01305 -0.340935,0.58946 -0.338275,0.593763 0.0033,0.0054 0.682831,0.0059 0.686198,4.57e-4 z m -3.418562,-2.007889 c 0.09196,-0.160352 0.16603,-0.293424 0.164614,-0.295715 -0.0032,-0.0053 -0.682789,-0.0056 -0.686027,-2.98e-4 -0.0017,0.0027 0.308631,0.549457 0.337379,0.594185 0.0036,0.0056 0.0053,0.0056 0.01055,0 0.0034,-0.0036 0.08154,-0.137804 0.173488,-0.298157 z m 3.252164,0.0017 c 0.09281,-0.161612 0.167662,-0.295572 0.166353,-0.29769 -0.0032,-0.0053 -0.682792,-0.005 -0.686041,3.01e-4 -0.002,0.0033 0.304014,0.542973 0.334038,0.588992 0.0048,0.0073 0.0092,0.0098 0.01223,0.007 0.0025,-0.0025 0.08062,-0.136913 0.173418,-0.298524 z m -1.475652,-0.855282 c -0.0021,-0.0123 -0.323043,-0.570213 -0.327959,-0.570213 -0.005,0 -0.325804,0.557916 -0.32796,0.570213 -0.0014,0.0086 0.01182,0.0089 0.32796,0.0089 0.316145,0 0.329465,-3.86e-4 0.327959,-0.0089 z"
       style="fill:#0000ff;stroke-width:0.00490815" />
    <text
       xml:space="preserve"
       style="font-style:normal;font-variant:normal;font-weight:normal;font-stretch:normal;font-size:10.58333302px;line-height:1.25;font-family:Verdana;-inkscape-font-specification:Verdana;letter-spacing:0px;word-spacing:0px;fill:#000000;fill-opacity:1;stroke:none;stroke-width:0.26458332"
       x="-8.8460026"
       y="52.345547"
       id="text833"><tspan
         sodipodi:role="line"
         id="tspan831"
         x="-8.8460026"
         y="62.001041"
         style="font-style:normal;font-variant:normal;font-weight:normal;font-stretch:normal;font-family:'Microsoft New Tai Lue';-inkscape-font-specification:'Microsoft New Tai Lue';stroke-width:0.26458332" /></text>
  </g>
  <g
     inkscape:groupmode="layer"
     id="layer5"
     inkscape:label="marcador"
     style="display:inline"
     sodipodi:insensitive="true">
    <rect
       transform="translate(0,-39.6875)"
       style="display:inline;fill:#ffffff;fill-opacity:1;stroke:none;stroke-width:0.31941885;stroke-miterlimit:4;stroke-dasharray:none;stroke-opacity:1"
       id="rect817-6-8"
       width="1.6024733"
       height="7.1382899"
       x="18.976"
       y="41.373646" />
    <rect
       style="display:inline;fill:#ffffff;fill-opacity:1;stroke:none;stroke-width:0.31941885;stroke-miterlimit:4;stroke-dasharray:none;stroke-opacity:1"
       id="rect817-6-8-8"
       width="1.6024733"
       height="7.1382899"
       x="-35.012871"
       y="34.427071"
       transform="rotate(-51.428571,-41.205972,-19.84375)" />
    <rect
       style="display:inline;fill:#ffffff;fill-opacity:1;stroke:none;stroke-width:0.31941885;stroke-miterlimit:4;stroke-dasharray:none;stroke-opacity:1"
       id="rect817-6-8-8-8"
       width="1.6024733"
       height="7.1382899"
       x="-63.26273"
       y="-12.045605"
       transform="rotate(-102.85714,-15.824863,-19.84375)" />
    <rect
       style="display:inline;fill:#ffffff;fill-opacity:1;stroke:none;stroke-width:0.31941885;stroke-miterlimit:4;stroke-dasharray:none;stroke-opacity:1"
       id="rect817-6-8-8-8-1"
       width="1.6024733"
       height="7.1382899"
       x="-44.563316"
       y="-63.128376"
       transform="rotate(-154.28571,-4.5292073,-19.84375)" />
    <rect
       style="display:inline;fill:#ffffff;fill-opacity:1;stroke:none;stroke-width:0.31941885;stroke-miterlimit:4;stroke-dasharray:none;stroke-opacity:1"
       id="rect817-6-8-8-8-1-1"
       width="1.6024733"
       height="7.1382899"
       x="7.0563612"
       y="-80.28476"
       transform="rotate(154.28572,4.5292054,-19.84375)" />
    <rect
       style="display:inline;fill:#ffffff;fill-opacity:1;stroke:none;stroke-width:0.31941885;stroke-miterlimit:4;stroke-dasharray:none;stroke-opacity:1"
       id="rect817-6-8-8-8-1-1-6"
       width="1.6024733"
       height="7.1382899"
       x="52.695"
       y="-50.691288"
       transform="rotate(102.85715,15.824861,-19.84375)" />
    <rect
       style="display:inline;fill:#ffffff;fill-opacity:1;stroke:none;stroke-width:0.31941885;stroke-miterlimit:4;stroke-dasharray:none;stroke-opacity:1"
       id="rect817-6-8-8-8-1-1-6-7"
       width="1.6024733"
       height="7.1382899"
       x="57.980549"
       y="3.4824762"
       transform="rotate(51.428579,41.205965,-19.84375)" />
  </g>
</svg>
