<?xml version="1.0" encoding="UTF-8" standalone="no"?>
<!-- Created with Inkscape (http://www.inkscape.org/) -->

<svg
   xmlns:dc="http://purl.org/dc/elements/1.1/"
   xmlns:cc="http://creativecommons.org/ns#"
   xmlns:rdf="http://www.w3.org/1999/02/22-rdf-syntax-ns#"
   xmlns:svg="http://www.w3.org/2000/svg"
   xmlns="http://www.w3.org/2000/svg"
   xmlns:sodipodi="http://sodipodi.sourceforge.net/DTD/sodipodi-0.dtd"
   xmlns:inkscape="http://www.inkscape.org/namespaces/inkscape"
   width="200"
   height="200"
   viewBox="0 0 52.916665 52.916668"
   version="1.1"
   id="svg8"
   inkscape:version="0.92.4 (5da689c313, 2019-01-14)"
   sodipodi:docname="adesivo-lua.svg">
  <defs
     id="defs2">
    <pattern
       y="0"
       x="0"
       height="6"
       width="6"
       patternUnits="userSpaceOnUse"
       id="EMFhbasepattern" />
  </defs>
  <sodipodi:namedview
     id="base"
     pagecolor="#ffffff"
     bordercolor="#666666"
     borderopacity="1.0"
     inkscape:pageopacity="0.0"
     inkscape:pageshadow="2"
     inkscape:zoom="2.828427"
     inkscape:cx="25.873627"
     inkscape:cy="89.453625"
     inkscape:document-units="mm"
     inkscape:current-layer="layer3"
     showgrid="false"
     units="px"
     inkscape:window-width="1366"
     inkscape:window-height="705"
     inkscape:window-x="-8"
     inkscape:window-y="-8"
     inkscape:window-maximized="1" />
  <metadata
     id="metadata5">
    <rdf:RDF>
      <cc:Work
         rdf:about="">
        <dc:format>image/svg+xml</dc:format>
        <dc:type
           rdf:resource="http://purl.org/dc/dcmitype/StillImage" />
        <dc:title />
      </cc:Work>
    </rdf:RDF>
  </metadata>
  <g
     inkscape:groupmode="layer"
     id="layer2"
     inkscape:label="Fundo"
     transform="translate(0,-26.458333)"
     style="display:inline"
     sodipodi:insensitive="true">
    <circle
       style="fill:#000000;fill-opacity:1;stroke:#ffff01;stroke-width:0.35044149;stroke-miterlimit:4;stroke-dasharray:none;stroke-opacity:1"
       id="path829"
       cx="26.458334"
       cy="52.916664"
       r="26.283113" />
  </g>
  <g
     inkscape:groupmode="layer"
     id="layer3"
     inkscape:label="adesivos-semanal"
     transform="translate(0,-26.458333)"
     style="display:inline"
     sodipodi:insensitive="true">
    <text
       xml:space="preserve"
       style="font-style:normal;font-variant:normal;font-weight:normal;font-stretch:normal;font-size:10.58333302px;line-height:1.25;font-family:Verdana;-inkscape-font-specification:Verdana;letter-spacing:0px;word-spacing:0px;fill:#000000;fill-opacity:1;stroke:none;stroke-width:0.26458332"
       x="-8.8460026"
       y="52.345547"
       id="text833"><tspan
         sodipodi:role="line"
         id="tspan831"
         x="-8.8460026"
         y="62.001041"
         style="font-style:normal;font-variant:normal;font-weight:normal;font-stretch:normal;font-family:'Microsoft New Tai Lue';-inkscape-font-specification:'Microsoft New Tai Lue';stroke-width:0.26458332" /></text>
    <path
       inkscape:connector-curvature="0"
       id="path5138-2"
       d="m 26.366748,68.666294 c -0.330542,-0.0021 -0.673394,-0.0026 -0.761806,-0.0046 -0.08843,-0.0021 -0.334188,-0.02343 -0.547555,-0.04088 -0.212616,-0.01416 -0.588959,-0.06536 -0.836799,-0.09695 -0.24794,-0.03519 -0.602916,-0.09503 -0.788512,-0.13098 -0.186144,-0.03524 -0.56209,-0.121828 -0.836776,-0.190731 -0.274233,-0.07108 -0.708898,-0.191048 -0.965518,-0.274234 -0.256964,-0.08318 -0.669176,-0.228695 -0.917237,-0.32583 l -0.450549,-0.17672 -0.804622,-0.398815 -0.804604,-0.39827 -0.457335,-0.286502 C 17.94472,66.18421 17.579617,65.94364 17.386347,65.807772 17.193163,65.672429 16.868149,65.427198 16.66438,65.264767 16.461473,65.101898 16.128268,64.821344 15.925806,64.640122 15.723176,64.459771 15.369557,64.118275 15.140371,63.881715 14.911307,63.645298 14.558287,63.253679 14.356559,63.011555 14.15414,62.769291 13.858716,62.390698 13.698423,62.169954 13.538091,61.949698 13.28714,61.580695 13.140859,61.350406 12.994997,61.1205 12.758459,60.718648 12.615288,60.458232 12.472271,60.197048 12.264407,59.788295 12.153406,59.547813 12.042202,59.307882 11.87119,58.908209 11.773664,58.660458 c -0.0973,-0.247966 -0.245478,-0.660626 -0.328416,-0.91726 -0.08323,-0.257042 -0.206139,-0.691179 -0.274478,-0.965506 -0.07107,-0.274229 -0.161438,-0.687217 -0.205166,-0.917244 -0.04217,-0.229812 -0.11007,-0.650306 -0.146547,-0.933375 -0.03524,-0.283212 -0.08022,-0.73223 -0.09724,-0.997689 -0.01401,-0.265314 -0.03334,-0.721888 -0.03334,-1.01383 0,-0.292336 0.0037,-0.748362 0.03334,-1.01383 0.01401,-0.265002 0.06576,-0.714539 0.09724,-0.997676 0.03525,-0.283311 0.10213,-0.703226 0.146041,-0.933366 0.04217,-0.230025 0.138279,-0.648624 0.207956,-0.93042 l 0.127683,-0.512269 0.204954,-0.614407 0.205062,-0.61471 0.216383,-0.509801 c 0.119205,-0.280763 0.321682,-0.714936 0.449405,-0.965536 0.128344,-0.250414 0.31657,-0.600388 0.417882,-0.777402 0.102476,-0.177371 0.309598,-0.510012 0.459572,-0.740127 0.150762,-0.230024 0.392339,-0.577779 0.536604,-0.772522 0.144477,-0.194661 0.413456,-0.535529 0.596276,-0.756249 l 0.333413,-0.402284 0.630875,-0.62789 0.630908,-0.627965 0.459519,-0.373413 c 0.252163,-0.205061 0.621507,-0.489868 0.820676,-0.632536 0.199057,-0.142927 0.544629,-0.376244 0.767964,-0.518948 0.223695,-0.142956 0.605382,-0.369086 0.848859,-0.501517 0.243321,-0.133063 0.639845,-0.334922 0.88088,-0.449341 0.240871,-0.113735 0.655702,-0.293195 0.921242,-0.398685 0.265005,-0.105775 0.692577,-0.259902 0.949418,-0.342262 0.257049,-0.0832 0.691195,-0.206225 0.965539,-0.274455 0.274232,-0.07114 0.687206,-0.161334 0.917253,-0.205124 0.230089,-0.04221 0.650285,-0.110185 0.933349,-0.146474 0.283406,-0.03519 0.732047,-0.0802 0.997704,-0.09728 0.265069,-0.01401 0.714783,-0.0334 0.998273,-0.0334 0.28366,-2.86e-4 0.747073,0.0039 1.029901,0.03375 0.282892,0.01686 0.738841,0.06606 1.013237,0.09688 l 0.499411,0.06603 0.627719,0.127325 0.627754,0.127364 0.498862,0.143165 c 0.274263,0.07926 0.693843,0.211522 0.932577,0.294644 0.238461,0.08335 0.622144,0.230372 0.852915,0.327096 0.230444,0.09641 0.636332,0.282749 0.901854,0.413051 0.265371,0.130914 0.685774,0.355383 0.93335,0.500221 0.247991,0.144 0.660721,0.405378 0.917251,0.579823 0.256991,0.174457 0.622948,0.438451 0.814443,0.587174 0.19088,0.149416 0.534289,0.432831 0.762425,0.6312 l 0.414698,0.359762 0.460862,0.472467 c 0.253023,0.259789 0.626648,0.671174 0.828834,0.914801 0.202606,0.243197 0.499854,0.62283 0.659448,0.843482 0.160416,0.220921 0.411558,0.589518 0.557552,0.819608 0.146117,0.230144 0.382847,0.631662 0.525645,0.892142 0.143017,0.260396 0.350956,0.669818 0.461985,0.910354 0.111205,0.239983 0.282128,0.639627 0.379663,0.887361 0.09737,0.247943 0.245278,0.660793 0.327546,0.917257 0.0832,0.256969 0.205927,0.691158 0.274423,0.965514 0.0714,0.274265 0.16127,0.687359 0.204787,0.917249 0.04217,0.229955 0.109536,0.65036 0.145519,0.933326 0.03526,0.283144 0.08105,0.737082 0.09905,1.008335 0.01416,0.271398 0.03375,0.722802 0.03375,1.003188 0,0.280741 -0.0039,0.731987 -0.03375,1.003197 -0.01416,0.271577 -0.06612,0.725105 -0.09905,1.008349 -0.03524,0.283404 -0.102145,0.70323 -0.145519,0.933347 -0.04213,0.229593 -0.130941,0.620935 -0.191069,0.868966 -0.06494,0.247967 -0.170694,0.638859 -0.242365,0.86827 -0.07365,0.229297 -0.194472,0.589339 -0.27338,0.799113 -0.07854,0.210154 -0.202271,0.521453 -0.274152,0.692498 -0.07549,0.170905 -0.250889,0.550049 -0.39741,0.842346 -0.145743,0.292437 -0.348362,0.67594 -0.450341,0.85286 -0.102054,0.177161 -0.348479,0.568289 -0.54913,0.868974 -0.20079,0.300452 -0.487361,0.703606 -0.636601,0.894914 -0.149603,0.190878 -0.433735,0.534299 -0.632028,0.762411 l -0.35972,0.414691 -0.472676,0.460711 c -0.260184,0.252846 -0.652779,0.611089 -0.873081,0.795515 -0.220567,0.184243 -0.560418,0.453472 -0.756141,0.599123 -0.195295,0.144864 -0.544059,0.38749 -0.77388,0.537337 -0.229811,0.150609 -0.56305,0.357477 -0.740138,0.460056 -0.17769,0.102994 -0.560692,0.306552 -0.85285,0.452598 -0.292587,0.145683 -0.726626,0.347512 -0.965563,0.448537 -0.238561,0.100252 -0.709824,0.274348 -1.045975,0.387132 l -0.611432,0.203983 -0.514635,0.128821 c -0.283323,0.07189 -0.703246,0.16481 -0.933311,0.208314 -0.22997,0.04126 -0.650248,0.109086 -0.933365,0.145342 -0.283408,0.03526 -0.737066,0.0809 -1.008315,0.09881 l -0.493391,0.03335 z m -2.482799,-2.828593 0.08162,0.0021 0.07379,-0.04874 0.07359,-0.04867 -3.98e-4,-0.119113 c -2.89e-4,-0.06783 -0.0034,-0.138547 -0.02388,-0.161813 l -0.02375,-0.04111 -0.131206,-0.014 -0.131192,-0.01401 -0.114397,0.01754 -0.11457,0.01753 -0.03408,0.06603 -0.03408,0.06612 0.0234,0.04245 c 0.0037,0.02343 0.08345,0.0889 0.154781,0.142839 l 0.1291,0.09574 0.08157,0.0021 z m -2.256522,-0.969757 0.08336,-0.0025 v -0.06736 -0.06709 l -0.07571,-0.0028 -0.0759,-0.0028 -0.04641,0.03849 -0.04653,0.03851 0.03829,0.04299 0.0383,0.04303 z m 2.290138,-0.80022 0.115232,0.0021 0.150147,-0.04923 0.150471,-0.04926 0.08312,-0.09747 0.08316,-0.09737 -0.0034,-0.03524 -0.0034,-0.03525 -0.11951,0.0025 -0.11947,0.0025 -0.08037,-0.05018 -0.08045,-0.05018 -0.04294,-0.109775 -0.04305,-0.110066 h -0.02499 c -0.0086,0 -0.08352,0.03526 -0.148575,0.08073 l -0.119046,0.08074 -0.148158,0.0021 c -0.0819,0.0021 -0.16968,0.0021 -0.196796,0.0021 -0.02356,-0.0012 -0.09536,-0.0034 -0.153095,-0.02356 l -0.10486,-0.02182 v 0.03335 c 0,0.01416 0.05313,0.124715 0.124238,0.238074 l 0.124451,0.204151 0.156773,0.0021 0.156653,0.0021 0.08074,0.03526 c 0.04221,0.01712 0.13139,0.03779 0.195126,0.03851 z m -1.327787,-0.933077 0.139024,0.002 0.0654,-0.03336 0.06528,-0.03341 0.01732,-0.128491 c 0.0028,-0.07199 0.02637,-0.134971 0.04126,-0.142972 0.0034,-0.0021 0.07959,0.0039 0.148531,0.04926 l 0.125761,0.06769 0.144446,-0.01685 c 0.07962,-0.0028 0.300242,-0.02375 0.490554,-0.03741 l 0.345811,-0.01401 v -0.02499 c 0,-0.01231 -0.05446,-0.08546 -0.129019,-0.153911 L 23.915163,62.546068 V 62.34848 62.150944 l -0.09831,-0.04919 -0.09832,-0.04923 0.0034,-0.03847 0.0034,-0.03851 0.09086,-0.0072 0.09064,-0.0043 0.03526,-0.05312 0.03525,-0.05312 -0.04793,-0.08676 -0.04793,-0.08659 -0.07988,-0.01686 -0.08013,-0.01685 -0.0026,-0.105894 -0.0026,-0.105762 0.03851,-0.04299 0.03853,-0.04303 h 0.07589 0.07582 l 0.09544,-0.0806 c 0.05029,-0.04217 0.109695,-0.08068 0.127205,-0.08068 0.014,0 0.04793,-0.01797 0.07359,-0.04766 l 0.03864,-0.04766 -0.03898,-0.04766 c -0.01776,-0.02357 -0.101868,-0.07676 -0.176337,-0.107775 l -0.135536,-0.05565 -0.01685,-0.07192 -0.01686,-0.07196 0.06583,-0.06531 0.0657,-0.06584 0.104756,3.1e-5 0.104807,1.7e-5 0.125669,0.129311 0.125603,0.129497 -0.05516,0.06767 -0.05641,0.06763 0.03901,0.111417 0.03896,0.111391 -0.0688,0.08378 c -0.03747,0.04297 -0.06899,0.09937 -0.06899,0.118847 0,0.01416 0.01712,0.05312 0.04102,0.08365 0.02161,0.02387 0.07632,0.145684 0.11249,0.262255 0.03853,0.116503 0.07165,0.229614 0.07165,0.252061 0,0.01797 -0.02663,0.06833 -0.07165,0.09701 l -0.07166,0.05307 0.103855,0.12955 0.103946,0.129549 0.07192,0.03293 c 0.03851,0.01401 0.143047,0.05308 0.231166,0.08691 0.08838,0.02591 0.181327,0.05437 0.207069,0.06493 l 0.04303,0.0021 0.07596,-0.129059 0.07597,-0.128862 -7.57e-4,-0.112529 -7.83e-4,-0.112676 -0.04294,-0.08055 c -0.0234,-0.04217 -0.04302,-0.113934 -0.04641,-0.154898 l -0.0011,-0.07584 0.142807,-0.06603 c 0.07869,-0.03435 0.218503,-0.0782 0.311612,-0.09528 l 0.169339,-0.0334 0.07591,-0.04766 0.07593,-0.04766 v -0.08617 c 0,-0.04218 -0.0086,-0.113761 -0.03786,-0.152277 -0.01732,-0.03851 -0.06448,-0.08749 -0.0882,-0.109165 l -0.04923,-0.03847 -0.07703,-10e-4 -0.07797,-9.8e-4 -0.107337,0.09511 -0.107311,0.09511 -0.148292,0.01776 -0.148529,0.02146 -0.03383,-0.03375 -0.03375,-0.03376 0.07793,-0.107258 c 0.03961,-0.05528 0.09783,-0.149859 0.12457,-0.202399 l 0.04766,-0.09515 0.158901,-0.05016 0.1589,-0.05016 0.0037,-0.0389 0.0035,-0.03894 -0.06568,-0.07165 c -0.03408,-0.03849 -0.07929,-0.110171 -0.09974,-0.160094 -0.01754,-0.04793 -0.03852,-0.112384 -0.03852,-0.140468 v -0.04779 l 0.05312,0.02312 c 0.02638,0.0037 0.135775,0.03526 0.233527,0.04766 0.09703,0.0035 0.258722,0.03434 0.357877,0.04743 l 0.180732,0.02161 0.09248,-0.103669 0.09228,-0.103577 0.197323,0.01754 0.197304,0.01753 0.01685,-0.04793 0.01685,-0.04793 -0.08536,-0.06608 -0.08547,-0.06607 0.04217,-0.05158 c 0.0232,-0.02472 0.08784,-0.07709 0.142167,-0.104026 l 0.09572,-0.04864 0.202797,0.01732 0.2028,0.01733 0.09133,-0.04651 c 0.04876,-0.02357 0.143538,-0.107007 0.209903,-0.178706 l 0.119059,-0.131205 -0.06708,-0.1271 c -0.03526,-0.07165 -0.06724,-0.140185 -0.06724,-0.155293 0,-0.0046 0.108503,-0.119205 0.241672,-0.228947 l 0.2418,-0.200178 0.04855,-0.0957 0.04865,-0.0957 -0.03442,-0.09833 c -0.01685,-0.05154 -0.03445,-0.157827 -0.03525,-0.230467 l -0.0012,-0.131364 -0.06608,-0.17733 -0.06608,-0.177162 -0.0011,-0.132675 -0.0012,-0.1326 -0.04126,-0.03526 c -0.02182,-0.01686 -0.119576,-0.04852 -0.214681,-0.06943 l -0.171264,-0.03337 -0.163447,-0.175365 -0.163398,-0.175364 -0.140572,-0.01776 -0.14047,-0.01776 -0.122198,-0.116569 -0.121815,-0.116332 -0.02161,-0.124661 -0.02159,-0.12457 0.04923,-0.02454 0.04923,-0.02451 0.0689,-0.178558 0.0689,-0.178556 v -0.186419 -0.18642 l -0.05014,-0.155017 -0.0502,-0.155036 -0.127073,-0.127086 -0.127086,-0.127086 -0.0039,-0.08329 c -0.0021,-0.04299 -0.02451,-0.107259 -0.04132,-0.136565 -0.0046,-0.02478 -0.04874,-0.07335 -0.07703,-0.09382 l -0.04744,-0.03851 -0.07166,0.03959 -0.07165,0.03954 -0.06603,0.119855 c -0.03408,0.0689 -0.07165,0.120305 -0.07952,0.120305 -0.0025,0 -0.03829,-0.04793 -0.06612,-0.109034 l -0.04306,-0.109085 -0.08976,-0.07165 c -0.04793,-0.03854 -0.168726,-0.116331 -0.266227,-0.172363 l -0.177565,-0.102848 -0.06528,-0.128609 c -0.03409,-0.07199 -0.07366,-0.150506 -0.08355,-0.176845 l -0.01776,-0.04766 -0.347591,-0.0024 -0.347508,-0.0024 -0.03442,-0.04103 c -0.01685,-0.02183 -0.10702,-0.06894 -0.193204,-0.09537 -0.08727,-0.02452 -0.185656,-0.05016 -0.21815,-0.05016 h -0.05635 l -0.01401,-0.04255 -0.014,-0.04245 0.04793,-0.09519 0.04793,-0.09516 0.08348,-0.05183 0.08345,-0.05196 0.02453,-0.07631 0.02447,-0.07638 0.111231,-0.01732 0.111233,-0.01732 0.150744,-0.11514 0.150691,-0.115165 0.03288,-0.08308 0.03293,-0.0831 -0.03526,-0.10743 -0.03526,-0.107432 -0.0714,-0.04766 -0.0714,-0.04765 h -0.164878 -0.165202 l -0.0509,-0.05522 -0.0509,-0.05748 0.01753,-0.01753 c 0.0033,-0.0033 0.06767,-0.01754 0.11906,-0.01754 0.05089,0 0.185322,-0.02183 0.292672,-0.05081 l 0.194812,-0.05093 0.06715,-0.05157 c 0.03526,-0.02478 0.131377,-0.09301 0.214661,-0.139976 l 0.150929,-0.0855 h 0.109577 0.109669 l 0.05445,0.06722 0.05443,0.06715 h 0.06767 c 0.03525,0 0.123868,-0.02388 0.196119,-0.06516 0.07472,-0.03409 0.191998,-0.07864 0.267418,-0.09755 0.07686,-0.01712 0.136639,-0.04646 0.136639,-0.0645 0,-0.0037 -0.01416,-0.04097 -0.03898,-0.06767 l -0.03905,-0.03929 0.102264,-0.08597 c 0.05313,-0.04743 0.1311,-0.107497 0.166736,-0.134344 l 0.06722,-0.04766 0.01732,-0.07341 0.01732,-0.07369 -0.08384,-0.0838 -0.08382,-0.08382 -0.107073,0.01401 -0.107073,0.014 -0.03526,-0.03526 c -0.01713,-0.0171 -0.03526,-0.04743 -0.03526,-0.06536 v -0.0234 l 0.0745,-3.22e-4 0.07442,-3.17e-4 0.121921,-0.115828 0.121921,-0.115987 -0.0033,-0.03748 c -0.0021,-0.01713 -0.07447,-0.07859 -0.145758,-0.127589 l -0.134195,-0.09095 v -0.03959 c 0,-0.02159 0.01712,-0.09131 0.04217,-0.150948 l 0.04218,-0.107616 -0.0039,-0.03923 -0.0039,-0.03926 -0.1549,-0.07926 -0.154899,-0.07903 -0.06926,-0.08572 -0.06949,-0.08557 v -0.0792 c 0,-0.04102 0.0037,-0.10498 0.02663,-0.136712 l 0.03293,-0.05516 0.102238,-0.03526 0.102159,-0.03524 h 0.167142 0.167145 l 0.08851,-0.07166 0.08877,-0.07165 0.04302,-0.109206 0.04301,-0.109112 -0.01713,-0.06493 -0.01712,-0.06494 0.06731,-0.137892 c 0.03519,-0.07686 0.08341,-0.160364 0.107073,-0.189039 0.02159,-0.02455 0.103311,-0.08969 0.17845,-0.136266 l 0.13515,-0.08477 0.03376,-0.06612 c 0.01685,-0.03434 0.03382,-0.09524 0.03382,-0.133822 v -0.07323 l -0.125563,-0.119126 -0.124769,-0.119139 -0.02161,-0.166546 -0.02159,-0.166547 0.05632,-0.01685 c 0.03337,-0.0026 0.08047,-0.02456 0.105867,-0.04102 0.0234,-0.0035 0.05249,-0.04222 0.06937,-0.07166 0.0033,-0.0234 0.05017,-0.111218 0.09106,-0.190772 0.03851,-0.07959 0.0714,-0.155156 0.0714,-0.168608 -4.3e-5,-0.0035 -0.04962,-0.08126 -0.114636,-0.150982 l -0.114974,-0.126698 0.0786,-0.122769 c 0.04091,-0.06924 0.108742,-0.150913 0.146742,-0.184198 0.03838,-0.03375 0.07685,-0.05183 0.08361,-0.04303 0.0024,0.0024 -0.0021,0.06549 -0.02183,0.119259 l -0.03848,0.104304 0.12849,0.111974 c 0.0719,0.06531 0.182657,0.147799 0.249853,0.191048 0.06899,0.04128 0.120278,0.09512 0.120278,0.11253 0,0.01416 -0.02159,0.03959 -0.05032,0.05009 l -0.0502,0.01712 -0.02478,-0.05087 c -0.01386,-0.02448 -0.04299,-0.0509 -0.06894,-0.0509 -0.01712,0 -0.07808,0.03851 -0.127219,0.08621 l -0.09059,0.08609 v 0.09013 0.09017 l 0.07467,0.0039 c 0.03865,0.0021 0.166937,0.02183 0.282744,0.03446 0.115708,0.0028 0.229929,0.0334 0.253506,0.04648 l 0.04127,0.02375 -0.01416,0.07165 -0.01416,0.07165 0.104914,0.06522 0.105019,0.0655 0.104053,0.144536 c 0.05413,0.07983 0.131377,0.159753 0.166768,0.178663 l 0.06607,0.03376 v 0.06484 0.06486 l -0.03346,0.01713 c -0.014,0.0028 -0.03335,0.04103 -0.03335,0.07166 v 0.04863 l 0.128901,0.124676 c 0.07213,0.0714 0.137996,0.124728 0.148486,0.124728 0.0028,0 0.0714,-0.04126 0.130741,-0.0957 l 0.109669,-0.0957 h 0.07628 0.07631 l 0.120755,0.08311 0.120887,0.08311 0.08353,-0.0025 0.08354,-0.0025 0.01685,0.113947 c 0.0026,0.06612 0.02448,0.131205 0.04101,0.152942 l 0.02184,0.03847 h 0.123378 0.123496 l 0.134955,-0.112635 0.134851,-0.11265 0.10188,0.0012 0.101828,0.0012 0.0805,0.04306 0.08073,0.04303 0.08631,0.0012 0.08617,0.0012 0.014,-0.02446 c 0.0025,-0.0039 0.108874,-0.0693 0.221519,-0.115179 l 0.202949,-0.08633 0.238174,0.226403 0.238168,0.226404 -0.0465,0.0086 c -0.0234,0.0024 -0.09716,0.01713 -0.158986,0.0234 l -0.11233,0.0025 -0.0239,0.153333 -0.02388,0.153432 0.01713,0.10894 0.01712,0.108808 0.09022,-0.03408 0.09,-0.03408 0.15093,0.05408 0.150897,0.05404 v 0.07915 0.07923 l 0.06714,0.08226 0.06722,0.08248 v 0.07728 0.07776 h 0.02626 c 0.01232,0 0.08201,-0.02499 0.143539,-0.06945 l 0.114503,-0.06958 0.03926,-0.08524 0.03923,-0.08522 0.07592,-0.0028 0.07597,-0.0028 0.03849,0.02638 c 0.01754,0.0086 0.0838,0.03923 0.14254,0.05017 l 0.103258,0.01776 0.08332,0.06767 0.0833,0.06773 0.06737,0.125788 0.06714,0.126013 h 0.06593 0.06516 l 0.04873,-0.0737 0.04878,-0.07347 v -0.119218 -0.119218 l 0.04648,-0.0466 0.0466,-0.04651 0.266178,0.08894 0.266146,0.08978 0.03337,0.04926 0.0334,0.04923 -0.07345,0.38841 -0.07339,0.388304 0.04217,0.107166 0.04218,0.107166 0.156465,0.124 c 0.08592,0.07115 0.210872,0.174856 0.276409,0.23668 l 0.119445,0.11208 0.185784,0.05431 0.185702,0.05445 0.152327,5.04e-4 0.152345,4.88e-4 0.13098,0.05017 0.130981,0.05018 0.06775,-0.06363 0.06767,-0.05565 -0.0026,-0.145476 -0.0026,-0.145519 0.04766,0.0021 c 0.02357,0.0021 0.08371,0.0039 0.12906,0.02357 l 0.08082,0.01712 0.08829,-0.03376 0.08801,-0.03376 -0.0014,-0.0541 c -7.77e-4,-0.03285 -0.04793,-0.151203 -0.107259,-0.266116 -0.05439,-0.115245 -0.151017,-0.293987 -0.205715,-0.396944 -0.0526,-0.103338 -0.125616,-0.253696 -0.155989,-0.334261 -0.02642,-0.08106 -0.09212,-0.190497 -0.136104,-0.242187 l -0.08009,-0.09526 0.03335,-0.08484 0.03335,-0.08476 -0.07591,-0.168641 -0.07595,-0.168641 h -0.02638 c -0.0073,0 -0.0714,0.0037 -0.115284,0.0334 l -0.08378,0.03337 -0.161574,-0.05016 -0.161558,-0.05016 -0.02452,-0.07712 c -0.006,-0.03927 -0.03891,-0.07753 -0.05158,-0.07753 -0.0037,0 -0.03957,0.02375 -0.06608,0.06369 l -0.03834,0.06439 -0.14257,-0.0046 -0.14245,-0.006 -0.09833,0.04923 c -0.0515,0.02447 -0.166699,0.0682 -0.249648,0.08378 l -0.150573,0.03375 -0.139499,-0.06572 c -0.07699,-0.03375 -0.14841,-0.07809 -0.161166,-0.0968 -0.0033,-0.01712 -0.04217,-0.03519 -0.07197,-0.03519 h -0.04793 l 0.01754,0.0957 0.01754,0.0957 h -0.06488 -0.06495 l -0.04793,-0.104768 c -0.02375,-0.05409 -0.07549,-0.185531 -0.101894,-0.283687 l -0.0497,-0.178831 -0.09586,-0.143017 c -0.05086,-0.07928 -0.09736,-0.164894 -0.09825,-0.190878 -7.56e-4,-0.02357 -0.01685,-0.07995 -0.03924,-0.119007 -0.01754,-0.03851 -0.08747,-0.103828 -0.147054,-0.144462 l -0.107524,-0.07638 -0.09547,-0.226152 -0.09548,-0.226146 0.01753,-0.129126 c 0.0033,-0.07204 0.01754,-0.150745 0.01754,-0.1775 1.96e-4,-0.02357 -0.0037,-0.136551 -0.0329,-0.245091 l -0.03337,-0.196964 -0.03899,-0.06722 -0.0389,-0.06711 0.01713,-0.05009 0.01712,-0.05016 0.138025,-0.0011 0.137817,-0.0012 0.08046,-0.04301 c 0.04209,-0.0234 0.113827,-0.04295 0.154762,-0.04651 l 0.0758,-0.0011 0.09526,0.07165 0.09526,0.07165 0.07929,-0.07584 0.07928,-0.07584 0.08357,0.01754 0.08357,0.01754 0.08335,-0.06773 0.08337,-0.06773 h 0.10335 0.103351 l 0.05438,0.06711 0.05445,0.06732 h 0.05404 0.054 l 0.04793,-0.07165 0.04793,-0.07166 0.006,0.04302 c 0.0024,0.0234 0.03443,0.154642 0.05409,0.285978 l 0.03924,0.239474 0.130967,0.0383 c 0.0737,0.01732 0.190709,0.07101 0.263932,0.106941 l 0.133407,0.07115 h 0.103391 0.103351 l 0.05516,0.0509 c 0.03335,0.02452 0.05523,0.07595 0.05523,0.09906 v 0.04294 l -0.09503,-0.01732 -0.09503,-0.01732 -0.09526,0.04793 c -0.05016,0.02375 -0.103311,0.07165 -0.112728,0.09551 l -0.014,0.04651 0.05439,0.152242 0.05438,0.152413 0.07818,0.04101 c 0.03958,0.02159 0.09932,0.04097 0.1271,0.04127 l 0.04867,0.0012 -0.002,0.178639 -0.002,0.178641 0.04766,0.02626 c 0.02357,0.0088 0.06775,0.02637 0.08652,0.02637 l 0.03852,4.96e-4 0.05409,-0.0957 0.05399,-0.0957 0.06493,-0.01712 0.06486,-0.01712 0.06901,0.0689 0.0689,0.06884 -0.03829,0.08341 c -0.01732,0.04312 -0.03835,0.103337 -0.03835,0.127695 0,0.02322 0.03779,0.08869 0.08341,0.143106 l 0.08341,0.09894 h 0.07583 c 0.03899,0 0.134343,0.01754 0.209562,0.04744 l 0.135581,0.04743 0.130225,0.102981 0.129816,0.1029 0.04924,-0.0334 0.04924,-0.03337 0.02357,-0.101828 0.02355,-0.10159 0.07995,-0.01712 0.08,-0.01713 0.105709,0.01713 0.105775,0.01712 0.03524,-0.09592 0.03526,-0.09572 0.0409,0.0013 c 0.02159,8.04e-4 0.115112,0.01712 0.202609,0.04092 l 0.159325,0.03961 0.02161,0.04243 c 0.0033,0.02343 0.04126,0.0929 0.0714,0.150982 l 0.04305,0.106596 -0.02445,0.183945 -0.0246,0.18382 -0.06608,0.04763 -0.06613,0.04766 -0.0812,0.271297 c -0.04217,0.149603 -0.08141,0.31098 -0.08141,0.360367 v 0.08371 l 0.117324,0.08996 c 0.06724,0.04793 0.166548,0.131138 0.22617,0.181283 l 0.107576,0.09194 v 0.07189 0.07189 l 0.04218,0.06476 0.04208,0.06494 0.133599,-0.05748 0.133765,-0.0645 0.09335,-0.107006 0.09344,-0.107007 0.03375,-0.121285 c 0.01685,-0.06895 0.03408,-0.188724 0.03408,-0.270554 l 2.07e-4,-0.149379 -0.04651,-0.132452 -0.0465,-0.132331 h 0.05312 c 0.02637,0 0.07583,-0.014 0.09533,-0.03854 l 0.03852,-0.03851 v -0.140304 -0.139976 l -0.04301,-0.08965 c -0.02343,-0.04793 -0.07165,-0.10784 -0.09824,-0.132344 l -0.05026,-0.04086 0.01732,-0.121788 0.01732,-0.121629 -0.04924,-0.176633 -0.04924,-0.176611 0.01754,-0.226261 0.01754,-0.226265 -0.110013,-0.106782 c -0.06365,-0.05446 -0.185425,-0.144908 -0.276549,-0.193268 l -0.166804,-0.08749 -0.05404,-0.105616 -0.05404,-0.105471 0.0021,-0.34226 0.0021,-0.34226 0.03854,-0.07724 c 0.01754,-0.03956 0.07106,-0.107497 0.103736,-0.146861 l 0.06714,-0.07192 -0.01776,-0.144641 -0.01776,-0.144566 -0.09745,-0.195023 -0.09719,-0.195402 -0.09179,-0.04743 c -0.04926,-0.02357 -0.09976,-0.06446 -0.109709,-0.07811 l -0.01416,-0.02478 0.03335,-0.08354 0.0334,-0.08354 0.07952,-0.02499 0.0795,-0.02499 -0.01231,-0.106966 -0.0073,-0.106955 0.04793,-0.09493 0.04793,-0.09499 -0.03335,-0.06528 -0.03336,-0.06523 -0.07698,0.01686 -0.07678,0.01685 -0.02184,-0.03851 -0.02184,-0.03851 0.0021,-0.105007 0.0021,-0.10498 -0.121245,-0.06608 -0.121351,-0.06612 -0.136459,-0.161335 -0.13655,-0.161422 v -0.08013 -0.08027 l -0.0806,-0.09544 c -0.04222,-0.05016 -0.08061,-0.111312 -0.08061,-0.13114 v -0.03534 h 0.03959 c 0.02161,0 0.05443,0.0073 0.07929,0.03526 l 0.0352,0.03524 0.04744,-0.01416 0.04743,-0.01416 0.0334,-0.154524 0.03335,-0.154372 -0.04091,-0.08328 -0.04102,-0.08328 -0.234422,-0.208972 c -0.129125,-0.114887 -0.284376,-0.248491 -0.345523,-0.297632 -0.06486,-0.04765 -0.132172,-0.08833 -0.158883,-0.08833 h -0.04744 l 0.01685,0.09525 0.01685,0.09526 -0.04647,0.09025 c -0.02357,0.04793 -0.04648,0.119219 -0.04744,0.154967 l -1.78e-4,0.06768 0.07952,0.117272 0.07959,0.117337 0.01775,0.138963 0.01776,0.139008 0.133852,0.145774 0.134255,0.145668 0.05154,0.139084 0.05158,0.139082 -0.006,0.02357 -0.0046,0.02357 h -0.08702 -0.08691 l -0.09386,0.116926 -0.09413,0.116689 -0.0714,4.56e-4 c -0.03851,2.93e-4 -0.08608,0.0033 -0.107364,0.02343 -0.01754,0.0035 -0.05081,0.06661 -0.07371,0.111973 l -0.03376,0.08749 h -0.04961 c -0.0245,0 -0.205693,-0.06363 -0.394772,-0.133644 -0.189102,-0.07566 -0.382078,-0.162953 -0.430057,-0.198276 l -0.08667,-0.06655 -0.138754,-0.02182 c -0.07701,-0.0035 -0.189484,-0.03956 -0.250561,-0.06713 -0.0652,-0.01776 -0.202735,-0.08355 -0.313185,-0.13655 l -0.201318,-0.09561 -0.196902,0.01732 -0.197199,0.01732 -0.08485,-0.08824 c -0.04648,-0.04763 -0.112425,-0.109709 -0.146101,-0.136521 l -0.06484,-0.04766 -0.276442,-0.02356 c -0.152294,-0.0039 -0.378174,-0.02478 -0.501809,-0.03379 -0.123695,-0.0021 -0.257251,-0.014 -0.29688,-0.03289 l -0.07199,-0.02322 -0.05404,-0.130888 -0.05401,-0.130887 -0.119365,-0.06488 -0.119364,-0.06495 h -0.07856 c -0.04103,0 -0.122676,-0.0024 -0.178555,-0.01712 l -0.0999,-0.01713 -0.08106,-0.08115 -0.08116,-0.08114 v -0.05245 -0.05247 l 0.07106,-0.0863 0.07106,-0.08606 -0.01685,-0.01685 c -0.0028,-0.0028 -0.0954,-0.04256 -0.188872,-0.07856 -0.09359,-0.03339 -0.192296,-0.05747 -0.221122,-0.05747 l -0.04923,-0.001 -0.05182,0.06439 -0.05188,0.0645 -0.131046,0.01732 -0.131047,0.01732 -0.04243,-0.0378 c -0.02311,-0.01733 -0.07341,-0.09661 -0.104146,-0.169443 -0.0334,-0.07548 -0.09048,-0.159955 -0.128291,-0.193204 l -0.0714,-0.06486 -0.21717,-0.0234 c -0.119324,-0.0037 -0.254617,-0.03441 -0.300252,-0.04305 l -0.08333,-0.01754 -0.05307,0.08533 -0.05313,0.08527 -0.232829,-0.01797 -0.23278,-0.01775 -0.04103,0.04969 c -0.02161,0.02444 -0.06605,0.04955 -0.08745,0.04955 -0.02318,0 -0.127881,-0.04218 -0.228377,-0.09783 l -0.18348,-0.09774 -0.112967,0.0086 -0.11298,0.01231 -0.192211,-0.07341 -0.192421,-0.07366 -0.04095,-0.09038 -0.04093,-0.09047 -0.08013,-0.02497 -0.07999,-0.02624 h -0.37346 -0.369817 l -0.06529,-0.0334 -0.06532,-0.03339 -0.01753,-0.133584 -0.01754,-0.133674 -0.111787,-0.102874 -0.111829,-0.102756 0.01231,-0.08638 0.01386,-0.08643 -0.04217,-0.0086 -0.04218,-0.01231 v -0.04218 -0.04217 h 0.07928 0.07929 l 0.0714,0.09571 c 0.03837,0.05093 0.09587,0.111311 0.131125,0.130808 l 0.06613,0.03374 0.125245,-0.03779 0.124702,-0.03787 0.14698,0.05312 0.14698,0.05305 0.145223,-0.01797 c 0.08009,-0.0033 0.153468,-0.03442 0.162902,-0.04793 l 0.014,-0.02455 -0.06584,-0.01712 -0.06523,-0.01712 -0.01754,-0.05183 -0.01753,-0.05246 0.0988,-0.08328 0.09868,-0.08328 v -0.05018 c 0,-0.0245 -0.0037,-0.06495 -0.03335,-0.07463 -0.014,-0.0028 -0.03339,-0.03526 -0.03339,-0.05158 v -0.03585 l 0.111827,0.01416 0.112106,0.01416 0.103086,-0.02446 c 0.05314,-0.0043 0.113643,-0.04301 0.126715,-0.06949 l 0.02161,-0.03831 -0.01231,-0.04218 c -0.0025,-0.0232 -0.05641,-0.0689 -0.111324,-0.09353 l -0.09516,-0.04793 -0.175027,0.03849 -0.175025,0.03849 -0.129445,-0.03849 -0.129337,-0.03849 -0.197536,-0.176169 -0.197685,-0.176315 -0.07476,-0.01416 -0.07472,-0.01416 -0.107497,0.05313 -0.107497,0.05314 -0.177732,0.02311 -0.17729,0.02315 -0.07472,0.09035 -0.07465,0.09028 -1.8e-4,0.0541 c -7.3e-5,0.0329 0.02147,0.09143 0.04793,0.132556 l 0.04793,0.07686 -0.09991,0.08366 c -0.0519,0.04294 -0.11902,0.08368 -0.141393,0.08368 h -0.03924 L 25.82044,41.301818 25.685098,41.140311 h -0.04299 c -0.0234,0 -0.143285,0.06608 -0.26284,0.139069 l -0.217172,0.139083 -0.254875,-0.0021 -0.254905,-0.0021 -0.0035,-0.03851 -0.0035,-0.03852 0.131219,-0.149637 0.131218,-0.149534 v -0.04748 -0.04766 l -0.107271,-0.131378 c -0.06363,-0.07447 -0.162153,-0.226398 -0.228445,-0.341453 -0.06868,-0.115789 -0.163432,-0.257572 -0.21435,-0.315761 l -0.09314,-0.106663 V 39.938608 39.82968 l -0.0955,-0.0689 c -0.04924,-0.0375 -0.108966,-0.06888 -0.129179,-0.06888 -0.01713,0 -0.08915,0.0245 -0.155119,0.06734 l -0.119443,0.06722 h -0.179144 -0.179061 l -0.593094,0.211338 -0.59311,0.211373 -0.07688,0.09548 -0.07678,0.09549 -0.246349,0.124702 -0.246344,0.124637 -0.07549,0.131033 -0.07549,0.131032 -0.0819,0.01712 -0.08189,0.01713 -0.119113,-0.01713 -0.119112,-0.01712 -0.20132,0.06888 c -0.110279,0.0375 -0.210705,0.08311 -0.222589,0.101788 l -0.01754,0.03526 0.08353,0.06937 c 0.04307,0.0375 0.11608,0.09001 0.155019,0.117987 l 0.0734,0.04841 -0.0934,0.08616 c -0.04924,0.04743 -0.111471,0.08617 -0.134359,0.08617 h -0.03955 l -0.02626,-0.08056 -0.02499,-0.08069 h -0.0355 c -0.01685,0 -0.0857,0.01776 -0.149655,0.04766 l -0.115616,0.04765 H 20.160944 20.04946 l -0.08497,0.06363 -0.08511,0.05565 -0.28627,0.07476 -0.286272,0.07467 -0.08835,-0.014 -0.08871,-0.01401 -0.202481,0.135135 c -0.111179,0.07638 -0.263874,0.196183 -0.340195,0.27102 l -0.137951,0.135328 -0.121378,0.06554 -0.121376,0.06528 -0.257819,0.05311 c -0.142598,0.02641 -0.286243,0.07189 -0.321865,0.08834 -0.03526,0.01401 -0.1454,0.108966 -0.245615,0.20284 l -0.180629,0.170863 -0.07778,0.01231 c -0.03957,0.0024 -0.111378,0.01732 -0.154968,0.0234 l -0.07929,0.0024 -0.06839,0.126557 -0.06818,0.126503 -0.128887,0.03526 -0.129113,0.03524 -0.06723,0.131391 c -0.03523,0.07549 -0.08346,0.154951 -0.107166,0.182677 l -0.04097,0.04919 -0.09141,0.01712 -0.09141,0.01712 -0.01232,0.0719 c -0.0025,0.03847 -0.02375,0.161181 -0.03851,0.271759 l -0.02147,0.201572 0.03893,0.04766 0.03898,0.04762 h 0.06609 0.06612 l 0.08906,0.09739 0.08895,0.0973 0.05012,-0.01712 0.0502,-0.01713 0.08327,-0.141825 0.08328,-0.142181 0.0541,-0.02626 0.05399,-0.02499 0.03867,0.02308 0.03867,0.02201 -0.01776,0.138025 -0.01776,0.137966 0.06493,-0.03336 c 0.03372,-0.01416 0.09693,-0.07339 0.142137,-0.119192 l 0.08063,-0.086 -0.0021,-0.222858 -0.0021,-0.222657 0.135059,0.0021 0.13506,0.0021 0.100455,-0.0502 c 0.05247,-0.02446 0.146698,-0.09129 0.2028,-0.13868 l 0.102874,-0.08595 0.155291,-0.231193 0.15529,-0.231195 0.163925,-0.147055 0.164248,-0.147053 0.361666,-0.153129 0.361738,-0.153229 0.305936,-0.0026 0.305938,-0.0026 0.137892,0.05016 0.137801,0.05018 0.135491,-0.03864 c 0.07633,-0.01776 0.167296,-0.06438 0.208123,-0.08573 l 0.07464,-0.04302 v -0.08975 -0.08987 l 0.03525,-0.03526 0.03526,-0.0352 0.164692,0.09038 c 0.09086,0.04793 0.233975,0.10763 0.318527,0.1311 l 0.15461,0.03926 0.186757,-0.01218 0.186755,-0.0086 0.131378,-0.06961 0.131377,-0.06936 0.01754,-0.0689 0.01753,-0.06882 -0.01753,-0.155036 -0.01754,-0.155018 0.08026,-0.156482 0.08025,-0.156517 0.11053,-0.107019 0.110596,-0.10702 0.173738,-0.04305 0.173821,-0.04299 0.06363,-0.08158 0.05629,-0.08153 h 0.05637 0.05697 l 0.0714,0.09667 0.0714,0.09677 0.09558,0.04793 0.09558,0.04793 0.08608,-0.0026 0.08597,-0.0026 0.04959,-0.155375 0.04963,-0.155306 0.04218,-0.02446 0.04217,-0.0245 0.155343,-4.45e-4 0.155409,-4.56e-4 -0.02314,0.05311 c -0.0037,0.02664 -0.03293,0.110807 -0.03849,0.178409 l -0.0037,0.120794 0.05017,0.07952 0.05017,0.07952 0.08854,0.04305 c 0.04765,0.0234 0.157574,0.05307 0.24251,0.0714 l 0.154763,0.02159 -0.0025,0.06793 -0.0025,0.06773 -0.04766,0.01776 c -0.02357,0.0033 -0.09059,0.04092 -0.14251,0.06943 -0.04923,0.02343 -0.10743,0.07109 -0.125721,0.0958 l -0.03337,0.04919 0.01733,0.08336 0.01732,0.08341 0.06532,0.01712 0.06523,0.01713 0.06834,0.111179 0.06821,0.111205 h 0.109443 0.109656 l 0.03743,0.04218 0.03752,0.04208 -0.0234,0.121272 -0.0234,0.121232 -0.256989,0.0882 c -0.141585,0.04765 -0.343705,0.113802 -0.449751,0.143448 l -0.19257,0.05308 -0.118609,0.118649 -0.118702,0.118569 -0.03526,0.143196 c -0.01712,0.07928 -0.05634,0.191027 -0.09008,0.250431 l -0.05157,0.107232 0.02499,0.03918 c 0.01231,0.02159 0.05313,0.07869 0.08833,0.123099 l 0.05443,0.08226 -0.01776,0.166954 -0.02147,0.16694 -0.06941,-0.01401 c -0.03779,-0.0025 -0.146281,-0.03851 -0.242286,-0.06894 l -0.174814,-0.04793 -0.07549,-0.07105 -0.07549,-0.07108 -0.146891,-0.01231 -0.14683,-0.0086 v -0.02447 c 0,-0.0039 0.01416,-0.05409 0.03874,-0.09274 l 0.03874,-0.06652 -0.0352,-0.05314 c -0.01685,-0.02663 -0.0774,-0.07702 -0.126755,-0.100818 l -0.09179,-0.04218 -0.156772,0.0881 -0.156925,0.08842 -0.150693,-0.03828 -0.150897,-0.0383 -0.102794,-0.07856 -0.102755,-0.07855 h -0.05213 -0.05157 l -0.109669,0.0957 -0.109655,0.0957 h -0.06952 c -0.03783,0 -0.127232,-0.02446 -0.200114,-0.06612 -0.07549,-0.03408 -0.182784,-0.07192 -0.245059,-0.08105 l -0.11265,-0.01686 -0.07641,-0.115404 -0.07642,-0.115404 -0.118967,0.0039 c -0.06775,0.0024 -0.23497,0.03849 -0.377489,0.06818 l -0.25898,0.0485 -0.32108,0.114914 c -0.176296,0.06605 -0.353022,0.114821 -0.392999,0.114821 l -0.0747,2.5e-5 v -0.02637 c 0,-0.01231 0.03526,-0.0689 0.08081,-0.111205 l 0.08061,-0.08074 v -0.08308 -0.07952 l -0.04923,-0.04923 -0.04924,-0.04923 -0.05158,3.32e-4 -0.05152,3.64e-4 -0.152957,0.141304 -0.153145,0.141229 v 0.08512 0.08512 l 0.09562,0.05186 c 0.05014,0.02626 0.09565,0.06773 0.0957,0.07811 1.2e-4,0.0033 -0.03337,0.04245 -0.0747,0.07549 -0.03873,0.02446 -0.159001,0.07856 -0.26505,0.110251 -0.10702,0.03335 -0.285785,0.07166 -0.397673,0.08333 l -0.204342,0.02161 -0.04302,0.05021 c -0.0234,0.02446 -0.117668,0.138441 -0.204975,0.242284 -0.08748,0.104569 -0.249728,0.319853 -0.357733,0.478768 l -0.198551,0.288932 -0.05565,0.156533 -0.06363,0.156484 v 0.111311 0.111298 l -0.08727,0.05407 -0.08693,0.05409 -0.162564,0.0021 c -0.0892,0.0021 -0.176949,0.0021 -0.194555,0.0021 -0.014,0.0016 -0.211459,0.178536 -0.43006,0.391659 l -0.39794,0.389033 -0.02461,0.128477 -0.02457,0.128596 0.01685,0.02497 c 0.0026,0.01231 0.01685,0.127881 0.01685,0.247068 v 0.216405 l 0.04864,0.05247 0.04839,0.05259 -0.01686,0.04793 -0.01685,0.04793 h -0.08319 -0.08319 l -0.014,-0.05312 c -0.0025,-0.02638 -0.05243,-0.139516 -0.101827,-0.240925 -0.04303,-0.10204 -0.09524,-0.185468 -0.107523,-0.185468 -0.0035,0 -0.05154,0.04097 -0.0914,0.09511 l -0.06945,0.09511 -0.07379,0.0026 -0.07346,0.0026 0.0025,0.08074 c 0.0021,0.04217 0.0034,0.123125 0.0046,0.175364 l 0.0021,0.09522 -0.142584,0.03948 c -0.07856,0.02159 -0.166632,0.06612 -0.195424,0.09037 -0.02478,0.02357 -0.07371,0.04793 -0.09248,0.04793 -0.01754,0 -0.06608,-0.0035 -0.09499,-0.02478 -0.02637,-0.0086 -0.08157,-0.0383 -0.112013,-0.04743 l -0.05313,-0.014 v -0.06894 -0.06899 l 0.06532,-0.02159 0.06571,-0.02159 0.163601,-0.186864 c 0.08997,-0.103193 0.163549,-0.204954 0.163549,-0.226721 v -0.03898 l 0.09562,-0.07344 0.09561,-0.07353 0.0738,-0.136132 0.07358,-0.135759 -0.0021,-0.192845 c -0.002,-0.10702 -0.0024,-0.222336 -0.0037,-0.257713 l -0.0028,-0.06733 0.114279,0.0025 0.114212,0.0025 0.08722,-0.07109 0.08694,-0.07107 v -0.04653 c 0,-0.02356 0.03445,-0.115311 0.07811,-0.199017 l 0.07811,-0.152122 0.22849,-0.257929 0.228469,-0.257608 0.08316,-0.166683 0.08316,-0.166666 -0.04865,-0.09695 -0.04874,-0.09695 -0.0714,-0.01776 -0.0714,-0.01776 -0.228904,0.11384 c -0.126372,0.06607 -0.265157,0.123233 -0.309888,0.135165 l -0.08065,0.01775 -0.204807,0.198024 c -0.112622,0.107802 -0.344183,0.371215 -0.513492,0.58409 -0.169647,0.212724 -0.401754,0.495176 -0.514431,0.627762 -0.113761,0.132436 -0.247041,0.31375 -0.297877,0.402241 -0.04923,0.08817 -0.135507,0.209161 -0.190415,0.267478 l -0.09726,0.107086 -0.0341,-0.01753 c -0.01685,-0.0033 -0.04744,-0.05437 -0.06779,-0.102728 l -0.02642,-0.08144 0.03853,-0.116967 c 0.01775,-0.06728 0.0665,-0.145459 0.0949,-0.180818 0.02478,-0.03524 0.09643,-0.158493 0.14853,-0.273985 0.04959,-0.115244 0.183249,-0.351074 0.292979,-0.524619 0.108967,-0.173654 0.19874,-0.329632 0.19874,-0.3458 v -0.02639 h -0.04923 -0.04923 l -0.08788,0.08846 -0.08763,0.08829 -0.248511,0.440748 c -0.136565,0.242092 -0.313869,0.582887 -0.393759,0.75633 -0.08034,0.173842 -0.188638,0.402885 -0.240374,0.5092 -0.05016,0.10702 -0.172299,0.395586 -0.267498,0.643733 -0.09524,0.247974 -0.224594,0.609492 -0.287597,0.804654 -0.06643,0.194578 -0.152156,0.486258 -0.19669,0.648171 -0.04218,0.162 -0.124555,0.488049 -0.178303,0.724232 -0.05013,0.236564 -0.131378,0.650891 -0.176526,0.92038 -0.04208,0.270069 -0.106808,0.704125 -0.136549,0.965566 l -0.05312,0.475359 -7.44e-4,1.029902 -7.71e-4,1.029923 0.05407,0.46645 c 0.03292,0.256994 0.09512,0.691177 0.139798,0.965483 l 0.08311,0.499307 0.04743,0.04766 0.04744,0.04766 -0.0216,-0.330244 -0.02159,-0.330055 h 0.04923 0.04924 l 0.01754,0.08858 c 0.0032,0.04766 0.07739,0.198932 0.14321,0.333743 l 0.122039,0.245422 0.07107,0.26805 c 0.03829,0.147128 0.08352,0.297945 0.10253,0.333916 0.01685,0.03514 0.06612,0.0975 0.09844,0.136609 l 0.06722,0.0719 -0.0171,0.100808 -0.01713,0.100606 0.113801,0.100555 c 0.06605,0.0526 0.157845,0.170038 0.213734,0.255476 l 0.09932,0.155018 0.06452,0.0334 0.05638,0.03341 0.131483,-0.0021 0.131974,-0.0021 0.0714,0.07995 0.0714,0.07999 0.05184,0.17617 c 0.02498,0.09654 0.06608,0.21636 0.07549,0.266477 l 0.01416,0.09098 0.05252,-0.0028 0.0525,-0.0028 v -0.11894 c 0,-0.0672 0.0026,-0.127775 0.02159,-0.140691 l 0.02159,-0.02159 0.106119,0.0392 c 0.05438,0.02161 0.138828,0.07192 0.178768,0.107192 0.03867,0.03525 0.107616,0.126119 0.152156,0.200114 l 0.07919,0.134687 0.139723,0.0683 c 0.07811,0.03526 0.155121,0.08384 0.174898,0.107629 0.01685,0.02161 0.08736,0.172364 0.151102,0.330765 l 0.115868,0.287536 3.54e-4,0.114663 4.01e-4,0.114676 0.03865,0.08071 0.03873,0.08055 0.289605,0.144463 0.28952,0.14458 0.07115,0.143062 0.07106,0.143061 0.06363,0.02159 0.05622,0.02159 0.0714,-0.0039 0.0714,-0.0039 0.107496,0.05251 c 0.06363,0.02499 0.202186,0.13155 0.314848,0.226562 l 0.206604,0.170926 0.211888,0.08361 c 0.116662,0.04305 0.247986,0.107404 0.292352,0.136729 l 0.08063,0.05013 0.177247,0.01754 c 0.09693,0.0033 0.293031,0.04243 0.434397,0.07569 l 0.257743,0.05018 0.168659,0.08424 0.168625,0.08416 0.02159,-0.02159 0.02159,-0.02159 -0.05311,-0.105007 -0.05312,-0.105006 0.01754,-0.05183 0.01753,-0.05193 h 0.07856 c 0.04103,0 0.126981,0.01712 0.186398,0.04255 l 0.107496,0.04268 0.146772,0.226514 0.14628,0.226517 0.03876,0.133748 0.03874,0.133645 0.04127,0.0073 0.04128,0.01386 0.07549,-0.07111 0.07549,-0.07105 h 0.04864 c 0.02388,0 0.06769,-0.01416 0.08341,-0.03894 0.01416,-0.01775 0.03829,-0.07711 0.04209,-0.120119 l 0.0028,-0.08048 h 0.143152 0.14315 l 0.04101,-0.08067 0.04088,-0.08056 -0.01712,-0.238177 -0.01713,-0.238147 0.04102,-0.02375 0.0409,-0.02375 0.164521,0.01685 0.164588,0.01685 0.05016,-0.07692 0.05021,-0.07689 v -0.08382 -0.08366 l -0.08073,-0.03751 c -0.04218,-0.01712 -0.08038,-0.04793 -0.08038,-0.06829 0,-0.0046 0.01754,-0.04306 0.04743,-0.07106 l 0.04743,-0.03851 0.03926,0.0039 0.03962,0.0039 0.107311,-0.04123 0.107365,-0.04132 0.05443,0.02663 0.05435,0.02638 0.01775,0.08737 c 0.0033,0.04743 0.04865,0.127285 0.08384,0.17581 l 0.06607,0.08818 -0.08141,0.08122 -0.08143,0.08137 2.27e-4,0.0901 c 5.9e-5,0.04793 0.006,0.147383 0.03526,0.218066 0.01712,0.07192 0.06664,0.164249 0.09818,0.208041 l 0.06608,0.08008 -0.01712,0.145669 -0.01712,0.145833 0.124609,0.121138 0.124622,0.121233 0.158544,0.05637 0.158372,0.05628 0.04925,0.104517 0.04923,0.104583 0.222749,0.110172 c 0.122171,0.05626 0.273903,0.138979 0.334824,0.173526 l 0.11261,0.06614 0.09344,5.6e-5 0.09335,5e-5 0.09978,0.111072 0.09987,0.110596 0.139068,0.002 z m 1.773308,-4.092108 -0.08323,0.0025 -0.07678,-0.06484 -0.07689,-0.06493 0.01712,-0.05087 0.01712,-0.05086 h 0.10935 0.109325 l 0.0385,0.04653 0.03851,0.04647 -0.0028,0.05438 -0.0028,0.05434 z m 0.385395,-2.446567 c -0.02356,0.0021 -0.05439,-8.83e-4 -0.07199,-0.0035 -0.0033,-0.0033 -0.02147,-0.0509 -0.02147,-0.0914 v -0.07112 l -0.0385,-0.03847 -0.03848,-0.03854 h -0.123669 -0.123575 l -0.09526,-0.04793 -0.09526,-0.04793 v -0.159486 -0.159188 l -0.12592,-0.06663 -0.125775,-0.06664 -0.119536,0.08284 -0.119549,0.08217 -0.04244,-0.04251 -0.0426,-0.04253 -0.04095,-0.186143 -0.04109,-0.186248 0.114555,-0.126835 0.114451,-0.126808 0.02159,0.02343 c 0.0034,0.0035 0.03894,0.08008 0.06554,0.145818 l 0.0385,0.120305 h 0.08667 0.08698 l 0.07166,0.04793 0.07166,0.04793 0.186735,0.03375 0.186712,0.03375 0.07106,0.04123 c 0.03795,0.02183 0.130795,0.134001 0.205083,0.245077 l 0.137681,0.20185 -0.06612,0.194811 -0.06609,0.194809 z m -6.642672,-0.841965 -0.03336,0.0033 -0.192527,-0.129259 -0.192824,-0.129192 -0.242238,0.01685 -0.241995,0.01685 -0.08293,-0.06711 -0.08301,-0.06734 -0.05313,-0.187159 -0.05313,-0.187328 0.0026,-0.240633 0.0026,-0.240419 0.06737,-0.0024 c 0.03524,-0.0021 0.117444,-0.0234 0.181433,-0.04217 l 0.117959,-0.03524 0.07642,0.05014 c 0.03929,0.02446 0.08571,0.05014 0.09932,0.05014 0.0035,0 0.06651,-0.04131 0.110834,-0.0957 l 0.08579,-0.0957 h 0.03891 0.03899 l 0.06826,0.08352 0.06821,0.08353 0.01685,0.117788 c 0.0026,0.06714 0.06452,0.314507 0.111497,0.555637 0.0497,0.240443 0.09754,0.455954 0.103324,0.478328 l 0.0025,0.03926 z m 3.007493,-1.532651 h -0.02478 l -0.04865,-0.119471 c -0.02388,-0.06833 -0.08081,-0.152752 -0.118702,-0.191111 l -0.06952,-0.07357 0.08859,-0.03375 0.08868,-0.03383 0.141884,0.07194 0.141779,0.0721 v 0.0383 c 0,0.01732 -0.02447,0.06603 -0.06645,0.09528 -0.03525,0.02663 -0.07468,0.08372 -0.0832,0.118742 -0.0028,0.03336 -0.03335,0.06266 -0.04765,0.06266 z m 0.846561,-0.09833 c -0.02638,-0.0011 -0.118861,-0.03336 -0.192548,-0.0721 -0.07689,-0.03834 -0.136595,-0.07909 -0.136595,-0.09132 0,-0.0033 0.01776,-0.02663 0.04765,-0.03923 l 0.04766,-0.01686 0.08784,0.03382 c 0.04766,0.01685 0.113749,0.05312 0.143554,0.08372 0.02637,0.02443 0.05311,0.06614 0.05311,0.07859 v 0.02375 l -0.05311,-0.0021 z m -1.705632,-0.126918 c -0.0037,0 -0.05446,-0.01776 -0.09718,-0.04867 l -0.0737,-0.04854 v -0.04872 -0.04838 l 0.08807,0.01776 c 0.04766,0.0033 0.101696,0.03408 0.117324,0.04793 l 0.02451,0.02388 -0.01712,0.04926 c -0.0028,0.02387 -0.02641,0.04923 -0.04243,0.04923 z m -0.261575,-0.457516 -0.04092,0.0037 0.0028,-0.05412 0.0028,-0.05408 0.04101,-0.0037 0.04095,-0.0037 -0.0028,0.05407 -0.0028,0.05409 z m -1.135107,-0.250615 c -0.0021,-3.61e-4 -0.0758,-0.0245 -0.149518,-0.06606 l -0.136817,-0.06528 -0.03344,-0.08359 c -0.014,-0.04306 -0.03336,-0.119311 -0.03336,-0.163141 v -0.07931 l -0.08061,-0.0375 c -0.04218,-0.01712 -0.08073,-0.04874 -0.08073,-0.0689 0,-0.01232 0.02446,-0.06894 0.06651,-0.110981 l 0.06651,-0.0811 -0.02452,-0.0509 -0.02455,-0.0509 -0.166734,-0.05565 -0.166733,-0.06365 -0.01231,-0.04126 -0.0073,-0.04132 0.04127,-0.137711 0.04135,-0.137698 h 0.08057 0.08073 l 0.04793,0.155342 0.04793,0.155325 0.06493,0.04218 0.06476,0.04213 h 0.07199 0.0719 l 0.03929,-0.04793 0.03923,-0.04793 -0.04103,-0.0795 -0.04091,-0.0795 0.02161,-0.02159 0.02159,-0.02159 0.167056,0.08747 0.16706,0.08747 h 0.120782 0.120821 l 0.02638,-0.08154 0.02637,-0.08134 0.05016,-0.01712 0.05018,-0.01713 0.0952,0.101722 0.0952,0.101722 h 0.03924 c 0.02159,0 0.06765,-0.0234 0.09335,-0.0541 l 0.04962,-0.05409 -0.01776,-0.03526 c -0.0033,-0.01713 -0.08035,-0.06711 -0.151271,-0.09939 -0.0721,-0.03526 -0.175324,-0.08868 -0.231984,-0.11906 l -0.103497,-0.05152 -0.07192,0.0383 -0.07199,0.03825 -0.0409,-0.05515 c -0.02159,-0.03339 -0.04105,-0.07927 -0.04105,-0.103748 0,-0.02343 -0.02201,-0.08668 -0.05182,-0.13789 l -0.05195,-0.09285 0.01776,-0.01797 0.02147,-0.01776 0.254277,0.05183 0.254283,0.05188 0.124252,-0.04955 0.124186,-0.0497 0.112436,-0.107272 c 0.06578,-0.05631 0.143375,-0.123218 0.182785,-0.14312 0.03851,-0.01713 0.103933,-0.03526 0.144462,-0.03526 l 0.07638,2.19e-4 0.0957,0.06663 0.0957,0.06664 0.08992,2.25e-4 0.0889,2.41e-4 0.01685,0.04924 0.01685,0.04926 -0.100687,0.104039 -0.100727,0.104212 v 0.0695 0.06936 l 0.131231,0.05018 c 0.07472,0.02446 0.180649,0.09222 0.240973,0.140512 l 0.109536,0.08745 v 0.03849 0.03849 l -0.136833,0.09524 -0.13655,0.09524 -0.09218,0.226842 -0.09229,0.226837 -0.112781,0.01754 -0.112755,0.01754 -0.108689,0.09545 -0.108385,0.09546 -0.04216,-0.01401 -0.04216,-0.014 -0.105285,0.07817 c -0.05439,0.04092 -0.155102,0.09502 -0.216536,0.114795 l -0.112279,0.03751 -0.268956,-0.01776 -0.269119,-0.01775 -0.07774,0.08301 c -0.03961,0.04253 -0.08272,0.08228 -0.08844,0.08167 z m 19.233797,-3.217704 c -0.0024,0 -0.0072,-0.0021 -0.0072,-0.0043 0,-0.0024 0.0021,-0.0046 0.0072,-0.0046 0.0024,0 0.006,0.0021 0.006,0.0046 0,0.0024 -0.0021,0.0043 -0.006,0.0043 z M 23.207163,47.881666 c -0.0033,0 -0.05089,-0.04131 -0.09273,-0.0957 l -0.07378,-0.0957 h -0.08898 -0.08987 l -0.06607,0.04743 c -0.03443,0.02357 -0.07549,0.04744 -0.08614,0.04763 l -0.02184,0.001 v -0.09135 -0.09133 l 0.07599,-0.03847 c 0.03889,-0.01775 0.09226,-0.07139 0.114676,-0.104808 l 0.03894,-0.0677 -0.03826,-0.04301 c -0.01732,-0.0234 -0.05313,-0.04303 -0.07988,-0.04303 -0.02161,0 -0.0839,0.03524 -0.137771,0.08054 -0.05017,0.04212 -0.117629,0.08068 -0.143271,0.08068 h -0.04756 l -0.01712,-0.04926 c -0.0028,-0.02448 -0.01712,-0.107258 -0.01712,-0.176126 v -0.124714 l 0.06606,-0.03382 0.06612,-0.03376 h 0.110848 0.110768 l 0.03837,-0.04251 0.03827,-0.04251 0.0234,-0.15897 0.0234,-0.158968 0.06821,-0.09343 c 0.03526,-0.0492 0.08877,-0.146935 0.116119,-0.212983 l 0.04794,-0.119245 0.107164,-0.04216 c 0.05516,-0.02308 0.127074,-0.07108 0.151289,-0.09774 l 0.04217,-0.05082 h 0.0659 c 0.03408,0 0.106821,0.02158 0.159072,0.04923 l 0.09715,0.04923 0.04294,0.109153 c 0.02343,0.06349 0.04302,0.144715 0.04302,0.188596 v 0.07916 l -0.09559,0.01754 c -0.05013,0.0033 -0.104901,0.03442 -0.115192,0.04971 l -0.01685,0.02499 0.08324,0.09791 0.08328,0.09801 v 0.254646 0.254644 h -0.130663 -0.130768 l -0.103575,0.04103 c -0.05314,0.02184 -0.123855,0.06941 -0.149195,0.09763 l -0.04243,0.05193 0.03526,0.114715 0.03525,0.114715 -0.03525,0.07805 c -0.01712,0.04095 -0.04217,0.07818 -0.05314,0.07818 z m 2.680592,-0.428846 -0.127589,0.01386 -0.05157,-0.05152 c -0.02478,-0.02474 -0.05155,-0.06935 -0.05155,-0.08344 0,-0.0043 0.03957,-0.07711 0.09359,-0.13351 l 0.09371,-0.104821 0.112756,0.05154 0.11278,0.05154 0.01776,0.07165 0.01776,0.07166 -0.04744,0.04743 -0.04743,0.04743 z m 1.079799,-0.988579 c -0.0021,-5.23e-4 -0.03894,-0.014 -0.07797,-0.03788 -0.03526,-0.0171 -0.07631,-0.05016 -0.08783,-0.07347 -0.0034,-0.01685 -0.02182,-0.05522 -0.02182,-0.08788 l -3.63e-4,-0.0509 0.101073,-0.03524 c 0.05247,-0.0171 0.130821,-0.03526 0.165507,-0.03526 h 0.06667 l 0.107139,0.06829 0.107166,0.06829 -0.0039,0.03851 -0.0039,0.0385 -0.156294,0.0525 c -0.08579,0.02499 -0.162069,0.05247 -0.167756,0.05182 z m -3.094291,-5.70156 -0.04243,0.03779 -0.0021,-0.147949 -0.0021,-0.148157 0.02375,0.02387 c 0.0039,0.0039 0.03525,0.06769 0.04743,0.110504 l 0.01712,0.0833 -0.04255,0.03783 z m 1.93001,21.095911 0.03957,-0.0046 v -0.05313 -0.05305 l -0.04743,-0.03866 -0.04744,-0.03867 -0.04766,0.01685 -0.04763,0.01685 v 0.06653 0.06663 l 0.05154,0.02499 0.05154,0.02595 z M 15.570689,61.527353 c 0.01776,4.7e-5 0.0714,-0.02446 0.104795,-0.06711 l 0.06712,-0.06739 -8e-6,-0.07441 -1e-5,-0.07463 -0.09511,-0.199566 -0.09511,-0.199651 -0.130875,-0.141646 -0.130873,-0.141362 -0.131325,-0.062 -0.131325,-0.0626 -0.02452,0.04306 -0.02453,0.04302 -3.82e-4,0.115166 c -2.9e-4,0.06608 0.01753,0.187961 0.04743,0.276576 l 0.04743,0.162119 0.135314,0.154764 c 0.07643,0.08379 0.179043,0.1805 0.233812,0.214354 0.05154,0.03336 0.116132,0.05627 0.138248,0.05627 z M 14.4864,60.916205 h 0.06608 v -0.0952 -0.0952 l -0.07165,-0.04793 -0.07165,-0.04793 -0.04102,0.03526 c -0.02161,0.01685 -0.04101,0.0497 -0.04101,0.07463 0,0.01712 0.01776,0.0714 0.04865,0.107801 l 0.04846,0.07355 z M 35.928376,44.083562 c 0.0037,1.35e-4 0.03376,-0.01776 0.04217,-0.04793 l 0.01685,-0.04793 -0.05309,-0.06522 -0.05307,-0.06528 -0.109655,-0.03524 -0.109695,-0.03526 -0.04259,0.03786 -0.04246,0.03779 0.01401,0.04303 0.014,0.04305 0.05016,2.15e-4 c 0.02452,1.53e-4 0.09562,0.02454 0.149584,0.0672 0.0509,0.03526 0.10743,0.06665 0.121285,0.06714 z M 34.213563,43.8386 c 0.04212,-0.0026 0.214487,-0.02448 0.377945,-0.03923 l 0.297762,-0.01776 0.128225,-0.124728 0.128305,-0.125219 0.04793,-0.104106 0.04793,-0.10396 V 43.15633 42.988608 l -0.09894,-0.173527 -0.09897,-0.173462 0.0021,-0.104675 c 0.0021,-0.05408 0.0021,-0.130425 0.0021,-0.160332 l -0.0021,-0.05312 -0.12649,-0.07971 -0.126609,-0.07983 -0.05409,-0.09579 -0.05409,-0.0958 -0.114556,-0.04646 c -0.06607,-0.02343 -0.164436,-0.08359 -0.22608,-0.130609 -0.06501,-0.04301 -0.126318,-0.08345 -0.14455,-0.08359 -0.01685,-5.21e-4 -0.07549,-0.03526 -0.120358,-0.07807 l -0.08678,-0.07711 -0.04766,-0.115748 -0.04766,-0.115762 h -0.07859 -0.07868 l -0.184306,-0.09822 -0.184243,-0.09809 -0.0714,0.0026 -0.0714,0.0026 0.0021,0.04766 c 0.0021,0.02357 0.0039,0.07549 0.02375,0.103961 l 0.02159,0.05241 -0.08334,0.0383 -0.08333,0.0383 -0.160178,-0.149893 -0.159991,-0.149959 h -0.09869 -0.09868 l -0.139546,0.139634 -0.139454,0.139514 -0.03918,0.17473 -0.03926,0.174498 -0.05565,0.07804 -0.06363,0.07822 v 0.0937 0.09384 l 0.06488,0.119338 0.06493,0.119324 0.178706,0.16842 c 0.09779,0.09314 0.193475,0.168386 0.212723,0.168386 h 0.03408 v 0.05246 0.05242 l 0.131165,0.113748 0.131166,0.113829 -0.03336,0.0851 -0.03339,0.08491 0.05154,0.04301 c 0.02478,0.02343 0.2264,0.131365 0.43629,0.236775 0.210196,0.10445 0.470363,0.237789 0.579582,0.29414 l 0.197579,0.104344 z m -3.274725,-1.271132 0.05307,0.0021 v -0.07549 -0.07549 l -0.05183,-0.07926 -0.05182,-0.07926 -0.014,-0.128834 -0.014,-0.12861 -0.0879,-0.04793 -0.0879,-0.04793 -0.05312,0.03526 -0.05314,0.03526 -0.02595,0.08379 -0.02626,0.08379 0.07688,0.08008 0.07697,0.08 -0.03894,0.04793 -0.03895,0.04793 0.014,0.04298 0.014,0.04306 0.139008,0.02637 c 0.07784,0.0086 0.164231,0.0334 0.194746,0.03442 z"
       style="display:inline;fill:#b3b3b3;stroke-width:0.03218448" />
    <circle
       style="fill:#ffffff;fill-opacity:1;stroke:none;stroke-width:0.3663305;stroke-miterlimit:4;stroke-dasharray:none;stroke-opacity:1"
       id="path5772"
       cx="26.458334"
       cy="76.268074"
       r="2.6283114" />
    <circle
       style="display:inline;fill:none;fill-opacity:1;stroke:#ffffff;stroke-width:0.10513245;stroke-miterlimit:4;stroke-dasharray:none;stroke-opacity:1"
       id="path5772-8"
       cx="26.458334"
       cy="30.255722"
       r="2.6283114" />
    <path
       style="display:inline;fill:#ffffff;fill-opacity:1;stroke:none;stroke-width:0.3663305;stroke-miterlimit:4;stroke-dasharray:none;stroke-opacity:1"
       d="m 3.4901664,50.288354 a 2.6283114,2.6283114 0 0 1 2.6283115,2.628312 2.6283114,2.6283114 0 0 1 -2.6283115,2.628311 z"
       id="path5807"
       inkscape:connector-curvature="0" />
    <path
       style="display:inline;fill:#ffffff;fill-opacity:1;stroke:none;stroke-width:0.3663305;stroke-miterlimit:4;stroke-dasharray:none;stroke-opacity:1"
       d="m 49.60591,50.288354 v 5.256623 a 2.6283114,2.6283114 0 0 1 -2.628312,-2.628311 2.6283114,2.6283114 0 0 1 2.628312,-2.628312 z"
       id="path5772-4"
       inkscape:connector-curvature="0" />
  </g>
  <g
     inkscape:groupmode="layer"
     id="layer5"
     inkscape:label="marcador"
     style="display:inline"
     transform="translate(0,13.229167)"
     sodipodi:insensitive="true">
    <rect
       style="display:inline;fill:#ffffff;fill-opacity:1;stroke:none;stroke-width:0.10307103;stroke-miterlimit:4;stroke-dasharray:none;stroke-opacity:1"
       id="rect4687-5"
       width="0.57533747"
       height="3.824302"
       x="28.346821"
       y="-18.144136"
       transform="rotate(12.191)" />
    <rect
       style="display:inline;fill:#ffffff;fill-opacity:1;stroke:none;stroke-width:0.10307103;stroke-miterlimit:4;stroke-dasharray:none;stroke-opacity:1"
       id="rect4687-5-5"
       width="0.57533747"
       height="3.824302"
       x="29.294006"
       y="-24.38353"
       transform="rotate(24.382)" />
    <rect
       style="display:inline;fill:#ffffff;fill-opacity:1;stroke:none;stroke-width:0.10307103;stroke-miterlimit:4;stroke-dasharray:none;stroke-opacity:1"
       id="rect4687-5-8"
       width="0.57533747"
       height="3.824302"
       x="28.840279"
       y="-30.772425"
       transform="rotate(36.573)" />
    <rect
       style="display:inline;fill:#ffffff;fill-opacity:1;stroke:none;stroke-width:0.10307103;stroke-miterlimit:4;stroke-dasharray:none;stroke-opacity:1"
       id="rect4687-5-8-4"
       width="0.57533747"
       height="3.824302"
       x="27.09313"
       y="-36.809124"
       transform="rotate(48.764)" />
    <rect
       style="display:inline;fill:#ffffff;fill-opacity:1;stroke:none;stroke-width:0.10307103;stroke-miterlimit:4;stroke-dasharray:none;stroke-opacity:1"
       id="rect4687-5-8-4-5"
       width="0.57533747"
       height="3.824302"
       x="24.121325"
       y="-42.33704"
       transform="rotate(60.955)" />
    <rect
       style="display:inline;fill:#ffffff;fill-opacity:1;stroke:none;stroke-width:0.10307103;stroke-miterlimit:4;stroke-dasharray:none;stroke-opacity:1"
       id="rect4687-5-8-4-5-4"
       width="0.57533747"
       height="3.824302"
       x="20.045523"
       y="-47.115532"
       transform="rotate(73.146)" />
    <rect
       style="display:inline;fill:#ffffff;fill-opacity:1;stroke:none;stroke-width:0.10307103;stroke-miterlimit:4;stroke-dasharray:none;stroke-opacity:1"
       id="rect4687-5-8-4-5-4-8-7"
       width="0.57533747"
       height="3.824302"
       x="9.3580093"
       y="-53.595821"
       transform="rotate(97.528001)" />
    <rect
       style="display:inline;fill:#ffffff;fill-opacity:1;stroke:none;stroke-width:0.10307103;stroke-miterlimit:4;stroke-dasharray:none;stroke-opacity:1"
       id="rect4687-5-8-4-5-4-8-7-1"
       width="0.57533747"
       height="3.824302"
       x="3.2371778"
       y="-55.003262"
       transform="rotate(109.719)" />
    <rect
       style="display:inline;fill:#ffffff;fill-opacity:1;stroke:none;stroke-width:0.10307103;stroke-miterlimit:4;stroke-dasharray:none;stroke-opacity:1"
       id="rect4687-5-8-4-5-4-8-7-1-4"
       width="0.57533747"
       height="3.824302"
       x="-3.0498016"
       y="-55.083096"
       transform="rotate(121.91)" />
    <rect
       style="display:inline;fill:#ffffff;fill-opacity:1;stroke:none;stroke-width:0.10307103;stroke-miterlimit:4;stroke-dasharray:none;stroke-opacity:1"
       id="rect4687-5-8-4-5-4-8-7-1-4-6"
       width="0.57533747"
       height="3.824302"
       x="-9.2087326"
       y="-53.839252"
       transform="rotate(134.101)" />
    <rect
       style="display:inline;fill:#ffffff;fill-opacity:1;stroke:none;stroke-width:0.10307103;stroke-miterlimit:4;stroke-dasharray:none;stroke-opacity:1"
       id="rect4687-5-8-4-5-4-8-7-1-4-6-7"
       width="0.57533747"
       height="3.824302"
       x="-14.964313"
       y="-51.319889"
       transform="rotate(146.292)" />
    <rect
       style="display:inline;fill:#ffffff;fill-opacity:1;stroke:none;stroke-width:0.10307103;stroke-miterlimit:4;stroke-dasharray:none;stroke-opacity:1"
       id="rect4687-5-8-4-5-4-8-7-1-4-6-7-5"
       width="0.57533747"
       height="3.824302"
       x="-20.048288"
       y="-47.645817"
       transform="rotate(158.483)" />
    <rect
       style="display:inline;fill:#ffffff;fill-opacity:1;stroke:none;stroke-width:0.10307103;stroke-miterlimit:4;stroke-dasharray:none;stroke-opacity:1"
       id="rect4687-5-8-4-5-4-8-7-1-4-6-7-5-9"
       width="0.57533747"
       height="3.824302"
       x="-24.258099"
       y="-42.976997"
       transform="rotate(170.674)" />
    <rect
       style="display:inline;fill:#ffffff;fill-opacity:1;stroke:none;stroke-width:0.10307103;stroke-miterlimit:4;stroke-dasharray:none;stroke-opacity:1"
       id="rect4687-5-8-4-5-4-8-7-1-4-6-7-5-9-0-7"
       width="0.57533747"
       height="3.824302"
       x="-29.265692"
       y="-31.533989"
       transform="rotate(-164.944)" />
    <rect
       style="display:inline;fill:#ffffff;fill-opacity:1;stroke:none;stroke-width:0.10307103;stroke-miterlimit:4;stroke-dasharray:none;stroke-opacity:1"
       id="rect4687-5-8-4-5-4-8-7-1-4-6-7-5-9-0-7-6"
       width="0.57533747"
       height="3.824302"
       x="-29.869991"
       y="-25.276804"
       transform="rotate(-152.753)" />
    <rect
       style="display:inline;fill:#ffffff;fill-opacity:1;stroke:none;stroke-width:0.10307103;stroke-miterlimit:4;stroke-dasharray:none;stroke-opacity:1"
       id="rect4687-5-8-4-5-4-8-7-1-4-6-7-5-9-0-7-6-4"
       width="0.57533747"
       height="3.824302"
       x="-29.132803"
       y="-19.041149"
       transform="rotate(-140.562)" />
    <rect
       style="display:inline;fill:#ffffff;fill-opacity:1;stroke:none;stroke-width:0.10307103;stroke-miterlimit:4;stroke-dasharray:none;stroke-opacity:1"
       id="rect4687-5-8-4-5-4-8-7-1-4-6-7-5-9-0-7-6-4-8"
       width="0.57533747"
       height="3.824302"
       x="-27.087713"
       y="-13.099412"
       transform="rotate(-128.371)" />
    <rect
       style="display:inline;fill:#ffffff;fill-opacity:1;stroke:none;stroke-width:0.10307103;stroke-miterlimit:4;stroke-dasharray:none;stroke-opacity:1"
       id="rect4687-5-8-4-5-4-8-7-1-4-6-7-5-9-0-7-6-4-8-0"
       width="0.57533747"
       height="3.824302"
       x="-23.846092"
       y="-7.7218423"
       transform="rotate(-116.18)" />
    <rect
       style="display:inline;fill:#ffffff;fill-opacity:1;stroke:none;stroke-width:0.10307103;stroke-miterlimit:4;stroke-dasharray:none;stroke-opacity:1"
       id="rect4687-5-8-4-5-4-8-7-1-4-6-7-5-9-0-7-6-4-8-0-5"
       width="0.57533747"
       height="3.824302"
       x="-19.526165"
       y="-3.1531157"
       transform="rotate(-103.989)" />
    <rect
       style="display:inline;fill:#ffffff;fill-opacity:1;stroke:none;stroke-width:0.10307103;stroke-miterlimit:4;stroke-dasharray:none;stroke-opacity:1"
       id="rect4687-5-8-4-5-4-8-7-1-4-6-7-5-9-0-7-6-4-8-0-5-5-6"
       width="0.57533747"
       height="3.824302"
       x="-8.5244884"
       y="2.7781541"
       transform="rotate(-79.607)" />
    <rect
       style="display:inline;fill:#ffffff;fill-opacity:1;stroke:none;stroke-width:0.10307103;stroke-miterlimit:4;stroke-dasharray:none;stroke-opacity:1"
       id="rect4687-5-8-4-5-4-8-7-1-4-6-7-5-9-0-7-6-4-8-0-5-5-6-1"
       width="0.57533747"
       height="3.824302"
       x="-2.3400259"
       y="3.8755891"
       transform="rotate(-67.416)" />
    <rect
       style="display:inline;fill:#ffffff;fill-opacity:1;stroke:none;stroke-width:0.10307103;stroke-miterlimit:4;stroke-dasharray:none;stroke-opacity:1"
       id="rect4687-5-8-4-5-4-8-7-1-4-6-7-5-9-0-7-6-4-8-0-5-5-6-1-2"
       width="0.57533747"
       height="3.824302"
       x="3.9316549"
       y="3.6487148"
       transform="rotate(-55.225)" />
    <rect
       style="display:inline;fill:#ffffff;fill-opacity:1;stroke:none;stroke-width:0.10307103;stroke-miterlimit:4;stroke-dasharray:none;stroke-opacity:1"
       id="rect4687-5-8-4-5-4-8-7-1-4-6-7-5-9-0-7-6-4-8-0-5-5-6-1-2-3"
       width="0.57533753"
       height="3.824302"
       x="10.02343"
       y="2.0950413"
       transform="rotate(-43.034)" />
    <rect
       style="display:inline;fill:#ffffff;fill-opacity:1;stroke:none;stroke-width:0.10307103;stroke-miterlimit:4;stroke-dasharray:none;stroke-opacity:1"
       id="rect4687-5-8-4-5-4-8-7-1-4-6-7-5-9-0-7-6-4-8-0-5-5-6-1-2-3-9"
       width="0.57533753"
       height="3.824302"
       x="15.632065"
       y="-0.71270818"
       transform="rotate(-30.842999)" />
    <rect
       style="display:inline;fill:#ffffff;fill-opacity:1;stroke:none;stroke-width:0.10307103;stroke-miterlimit:4;stroke-dasharray:none;stroke-opacity:1"
       id="rect4687-5-8-4-5-4-8-7-1-4-6-7-5-9-0-7-6-4-8-0-5-5-6-1-2-3-9-7"
       width="0.57533753"
       height="3.824302"
       x="20.547621"
       y="-4.6338563"
       transform="rotate(-18.652)" />
  </g>
  <g
     inkscape:groupmode="layer"
     id="layer4"
     inkscape:label="numero-marcador"
     transform="translate(0,13.229167)"
     sodipodi:insensitive="true">
    <text
       xml:space="preserve"
       style="font-style:normal;font-variant:normal;font-weight:normal;font-stretch:normal;font-size:14.01766014px;line-height:1.25;font-family:Verdana;-inkscape-font-specification:Verdana;letter-spacing:0px;word-spacing:0px;fill:#ffffff;fill-opacity:1;stroke:none;stroke-width:0.35044149"
       x="43.55024"
       y="21.777651"
       id="text5485-0-3-3"><tspan
         sodipodi:role="line"
         id="tspan5483-3-1-5"
         x="43.55024"
         y="21.777651"
         style="font-style:normal;font-variant:normal;font-weight:normal;font-stretch:normal;font-size:5.60706377px;font-family:'Tw Cen MT';-inkscape-font-specification:'Tw Cen MT';fill:#ffffff;stroke-width:0.35044149">9</tspan></text>
    <text
       xml:space="preserve"
       style="font-style:normal;font-variant:normal;font-weight:normal;font-stretch:normal;font-size:14.01766014px;line-height:1.25;font-family:Verdana;-inkscape-font-specification:Verdana;letter-spacing:0px;word-spacing:0px;fill:#ffffff;fill-opacity:1;stroke:none;stroke-width:0.35044149"
       x="37.718735"
       y="27.849089"
       id="text5485-0-3-3-8"><tspan
         sodipodi:role="line"
         id="tspan5483-3-1-5-8"
         x="37.718735"
         y="27.849089"
         style="font-style:normal;font-variant:normal;font-weight:normal;font-stretch:normal;font-size:5.60706377px;font-family:'Tw Cen MT';-inkscape-font-specification:'Tw Cen MT';letter-spacing:-0.70088309px;fill:#ffffff;stroke-width:0.35044149">11</tspan></text>
    <text
       xml:space="preserve"
       style="font-style:normal;font-variant:normal;font-weight:normal;font-stretch:normal;font-size:14.01766014px;line-height:1.25;font-family:Verdana;-inkscape-font-specification:Verdana;letter-spacing:0px;word-spacing:0px;fill:#ffffff;fill-opacity:1;stroke:none;stroke-width:0.35044149"
       x="30.79653"
       y="31.958311"
       id="text5485-0-3-3-8-5"><tspan
         sodipodi:role="line"
         id="tspan5483-3-1-5-8-0"
         x="30.79653"
         y="31.958311"
         style="font-style:normal;font-variant:normal;font-weight:normal;font-stretch:normal;font-size:5.60706377px;font-family:'Tw Cen MT';-inkscape-font-specification:'Tw Cen MT';letter-spacing:-0.70088315px;fill:#ffffff;stroke-width:0.35044149">13</tspan></text>
    <text
       xml:space="preserve"
       style="font-style:normal;font-variant:normal;font-weight:normal;font-stretch:normal;font-size:14.01766014px;line-height:1.25;font-family:Verdana;-inkscape-font-specification:Verdana;letter-spacing:0px;word-spacing:0px;fill:#ffffff;fill-opacity:1;stroke:none;stroke-width:0.35044149"
       x="14.973001"
       y="31.408979"
       id="text5485-0-3-3-8-5-1"><tspan
         sodipodi:role="line"
         id="tspan5483-3-1-5-8-0-9"
         x="14.973001"
         y="31.408979"
         style="font-style:normal;font-variant:normal;font-weight:normal;font-stretch:normal;font-size:5.60706377px;font-family:'Tw Cen MT';-inkscape-font-specification:'Tw Cen MT';letter-spacing:-0.70088321px;fill:#ffffff;stroke-width:0.35044149">17</tspan></text>
    <text
       xml:space="preserve"
       style="font-style:normal;font-variant:normal;font-weight:normal;font-stretch:normal;font-size:14.01766014px;line-height:1.25;font-family:Verdana;-inkscape-font-specification:Verdana;letter-spacing:0px;word-spacing:0px;fill:#ffffff;fill-opacity:1;stroke:none;stroke-width:0.35044149"
       x="8.4374752"
       y="26.372219"
       id="text5485-0-3-3-8-5-1-4"><tspan
         sodipodi:role="line"
         id="tspan5483-3-1-5-8-0-9-6"
         x="8.4374752"
         y="26.372219"
         style="font-style:normal;font-variant:normal;font-weight:normal;font-stretch:normal;font-size:5.60706377px;font-family:'Tw Cen MT';-inkscape-font-specification:'Tw Cen MT';letter-spacing:-0.70088321px;fill:#ffffff;stroke-width:0.35044149">19</tspan></text>
    <text
       xml:space="preserve"
       style="font-style:normal;font-variant:normal;font-weight:normal;font-stretch:normal;font-size:14.01766014px;line-height:1.25;font-family:Verdana;-inkscape-font-specification:Verdana;letter-spacing:0px;word-spacing:0px;fill:#ffffff;fill-opacity:1;stroke:none;stroke-width:0.35044149"
       x="5.2581682"
       y="19.609753"
       id="text5485-0-3-3-8-5-1-4-9"><tspan
         sodipodi:role="line"
         id="tspan5483-3-1-5-8-0-9-6-0"
         x="5.2581682"
         y="19.609753"
         style="font-style:normal;font-variant:normal;font-weight:normal;font-stretch:normal;font-size:5.60706377px;font-family:'Tw Cen MT';-inkscape-font-specification:'Tw Cen MT';letter-spacing:-0.70088321px;fill:#ffffff;stroke-width:0.35044149">21</tspan></text>
    <text
       xml:space="preserve"
       style="font-style:normal;font-variant:normal;font-weight:normal;font-stretch:normal;font-size:14.01766014px;line-height:1.25;font-family:Verdana;-inkscape-font-specification:Verdana;letter-spacing:0px;word-spacing:0px;fill:#ffffff;fill-opacity:1;stroke:none;stroke-width:0.35044149"
       x="5.552309"
       y="10.870529"
       id="text5485-0-3-3-8-5-1-4-9-1"><tspan
         sodipodi:role="line"
         id="tspan5483-3-1-5-8-0-9-6-0-9"
         x="5.552309"
         y="10.870529"
         style="font-style:normal;font-variant:normal;font-weight:normal;font-stretch:normal;font-size:5.60706377px;font-family:'Tw Cen MT';-inkscape-font-specification:'Tw Cen MT';letter-spacing:-0.70088321px;fill:#ffffff;stroke-width:0.35044149">23</tspan></text>
    <text
       xml:space="preserve"
       style="font-style:normal;font-variant:normal;font-weight:normal;font-stretch:normal;font-size:14.01766014px;line-height:1.25;font-family:Verdana;-inkscape-font-specification:Verdana;letter-spacing:0px;word-spacing:0px;fill:#ffffff;fill-opacity:1;stroke:none;stroke-width:0.35044149"
       x="8.6843796"
       y="3.6303535"
       id="text5485-0-3-3-8-5-1-4-9-1-9"><tspan
         sodipodi:role="line"
         id="tspan5483-3-1-5-8-0-9-6-0-9-4"
         x="8.6843796"
         y="3.6303535"
         style="font-style:normal;font-variant:normal;font-weight:normal;font-stretch:normal;font-size:5.60706377px;font-family:'Tw Cen MT';-inkscape-font-specification:'Tw Cen MT';letter-spacing:-0.70088321px;fill:#ffffff;stroke-width:0.35044149">25</tspan></text>
    <text
       xml:space="preserve"
       style="font-style:normal;font-variant:normal;font-weight:normal;font-stretch:normal;font-size:14.01766014px;line-height:1.25;font-family:Verdana;-inkscape-font-specification:Verdana;letter-spacing:0px;word-spacing:0px;fill:#ffffff;fill-opacity:1;stroke:none;stroke-width:0.35044149"
       x="13.948653"
       y="-1.3430823"
       id="text5485-0-3-3-8-5-1-4-9-1-9-8"><tspan
         sodipodi:role="line"
         id="tspan5483-3-1-5-8-0-9-6-0-9-4-5"
         x="13.948653"
         y="-1.3430823"
         style="font-style:normal;font-variant:normal;font-weight:normal;font-stretch:normal;font-size:5.60706377px;font-family:'Tw Cen MT';-inkscape-font-specification:'Tw Cen MT';letter-spacing:-0.70088321px;fill:#ffffff;stroke-width:0.35044149">27</tspan></text>
    <text
       xml:space="preserve"
       style="font-style:normal;font-variant:normal;font-weight:normal;font-stretch:normal;font-size:14.01766014px;line-height:1.25;font-family:Verdana;-inkscape-font-specification:Verdana;letter-spacing:0px;word-spacing:0px;fill:#ffffff;fill-opacity:1;stroke:none;stroke-width:0.35044149"
       x="29.633543"
       y="-3.8073084"
       id="text5485-0-3-3-8-5-1-4-9-1-9-8-1-5"><tspan
         sodipodi:role="line"
         id="tspan5483-3-1-5-8-0-9-6-0-9-4-5-0-2"
         x="29.633543"
         y="-3.8073084"
         style="font-style:normal;font-variant:normal;font-weight:normal;font-stretch:normal;font-size:5.60706377px;font-family:'Tw Cen MT';-inkscape-font-specification:'Tw Cen MT';letter-spacing:-0.70088321px;fill:#ffffff;stroke-width:0.35044149">1</tspan></text>
    <text
       xml:space="preserve"
       style="font-style:normal;font-variant:normal;font-weight:normal;font-stretch:normal;font-size:14.01766014px;line-height:1.25;font-family:Verdana;-inkscape-font-specification:Verdana;letter-spacing:0px;word-spacing:0px;fill:#ffffff;fill-opacity:1;stroke:none;stroke-width:0.35044149"
       x="36.827789"
       y="-0.13173018"
       id="text5485-0-3-3-8-5-1-4-9-1-9-8-1-5-4"><tspan
         sodipodi:role="line"
         id="tspan5483-3-1-5-8-0-9-6-0-9-4-5-0-2-4"
         x="36.827789"
         y="-0.13173018"
         style="font-style:normal;font-variant:normal;font-weight:normal;font-stretch:normal;font-size:5.60706377px;font-family:'Tw Cen MT';-inkscape-font-specification:'Tw Cen MT';letter-spacing:-0.70088321px;fill:#ffffff;stroke-width:0.35044149">3</tspan></text>
    <text
       xml:space="preserve"
       style="font-style:normal;font-variant:normal;font-weight:normal;font-stretch:normal;font-size:14.01766014px;line-height:1.25;font-family:Verdana;-inkscape-font-specification:Verdana;letter-spacing:0px;word-spacing:0px;fill:#ffffff;fill-opacity:1;stroke:none;stroke-width:0.35044149"
       x="42.262978"
       y="5.885623"
       id="text5485-0-3-3-8-5-1-4-9-1-9-8-1-5-4-1"><tspan
         sodipodi:role="line"
         id="tspan5483-3-1-5-8-0-9-6-0-9-4-5-0-2-4-0"
         x="42.262978"
         y="5.885623"
         style="font-style:normal;font-variant:normal;font-weight:normal;font-stretch:normal;font-size:5.60706377px;font-family:'Tw Cen MT';-inkscape-font-specification:'Tw Cen MT';letter-spacing:-0.70088321px;fill:#ffffff;stroke-width:0.35044149">5</tspan></text>
  </g>
  <g
     inkscape:groupmode="layer"
     id="layer1"
     inkscape:label="ponteiro"
     transform="translate(0,13.229167)"
     style="display:inline"
     sodipodi:insensitive="true" />
</svg>
