<?xml version="1.0" encoding="UTF-8" standalone="no"?>
<!-- Created with Inkscape (http://www.inkscape.org/) -->

<svg
   xmlns:dc="http://purl.org/dc/elements/1.1/"
   xmlns:cc="http://creativecommons.org/ns#"
   xmlns:rdf="http://www.w3.org/1999/02/22-rdf-syntax-ns#"
   xmlns:svg="http://www.w3.org/2000/svg"
   xmlns="http://www.w3.org/2000/svg"
   xmlns:sodipodi="http://sodipodi.sourceforge.net/DTD/sodipodi-0.dtd"
   xmlns:inkscape="http://www.inkscape.org/namespaces/inkscape"
   version="1.1"
   id="svg2"
   width="250"
   height="201"
   viewBox="0 0 250 201"
   sodipodi:docname="arrow-v.svg"
   inkscape:version="0.92.4 (5da689c313, 2019-01-14)">
  <metadata
     id="metadata8">
    <rdf:RDF>
      <cc:Work
         rdf:about="">
        <dc:format>image/svg+xml</dc:format>
        <dc:type
           rdf:resource="http://purl.org/dc/dcmitype/StillImage" />
        <dc:title></dc:title>
      </cc:Work>
    </rdf:RDF>
  </metadata>
  <defs
     id="defs6" />
  <sodipodi:namedview
     pagecolor="#ffffff"
     bordercolor="#666666"
     borderopacity="1"
     objecttolerance="10"
     gridtolerance="10"
     guidetolerance="10"
     inkscape:pageopacity="0"
     inkscape:pageshadow="2"
     inkscape:window-width="1366"
     inkscape:window-height="705"
     id="namedview4"
     showgrid="false"
     inkscape:zoom="1.1741294"
     inkscape:cx="125"
     inkscape:cy="100.5"
     inkscape:window-x="-8"
     inkscape:window-y="-8"
     inkscape:window-maximized="1"
     inkscape:current-layer="svg2" />
  <g
     id="g4529"
     transform="translate(-73.073575,62.156777)">
    <path
       style="fill:#080808"
       d="m 196.62083,137.20832 c -0.92055,-0.60043 -38.605,-60.700062 -114.148385,-182.045279 -8.90217,-14.299546 -9.42187,-15.421846 -7.86312,-16.980596 1.55874,-1.55874 5.65031,2.31178 61.905825,58.5615374 33.13022,33.1268266 60.909,60.2305936 61.73062,60.2305936 0.82162,0 28.57713,-27.080502 61.67891,-60.1788916 53.0066,-53.0011694 60.37751,-60.0191694 61.79858,-58.8397894 0.88744,0.73651 1.36122,1.99661 1.05285,2.80022 -0.50314,1.31114 -54.61911,87.857191 -104.2578,166.736375 -10.3249,16.40694 -19.22254,29.97003 -19.77254,30.14019 -0.55,0.17017 -1.50622,-0.0208 -2.12494,-0.42436 z"
       id="path4522"
       inkscape:connector-curvature="0" />
  </g>
</svg>
