<?xml version="1.0" encoding="UTF-8" standalone="no"?>
<!-- Created with Inkscape (http://www.inkscape.org/) -->

<svg
   xmlns:dc="http://purl.org/dc/elements/1.1/"
   xmlns:cc="http://creativecommons.org/ns#"
   xmlns:rdf="http://www.w3.org/1999/02/22-rdf-syntax-ns#"
   xmlns:svg="http://www.w3.org/2000/svg"
   xmlns="http://www.w3.org/2000/svg"
   xmlns:sodipodi="http://sodipodi.sourceforge.net/DTD/sodipodi-0.dtd"
   xmlns:inkscape="http://www.inkscape.org/namespaces/inkscape"
   width="200"
   height="200"
   viewBox="0 0 52.916665 52.916668"
   version="1.1"
   id="svg8"
   inkscape:version="0.92.4 (5da689c313, 2019-01-14)"
   sodipodi:docname="ponteiro_mes.svg">
  <defs
     id="defs2">
    <pattern
       y="0"
       x="0"
       height="6"
       width="6"
       patternUnits="userSpaceOnUse"
       id="EMFhbasepattern" />
  </defs>
  <sodipodi:namedview
     id="base"
     pagecolor="#ffffff"
     bordercolor="#666666"
     borderopacity="1.0"
     inkscape:pageopacity="0.0"
     inkscape:pageshadow="2"
     inkscape:zoom="7.9999996"
     inkscape:cx="87.369218"
     inkscape:cy="102.32086"
     inkscape:document-units="mm"
     inkscape:current-layer="layer1"
     showgrid="false"
     units="px"
     inkscape:window-width="1366"
     inkscape:window-height="705"
     inkscape:window-x="-8"
     inkscape:window-y="-8"
     inkscape:window-maximized="1" />
  <metadata
     id="metadata5">
    <rdf:RDF>
      <cc:Work
         rdf:about="">
        <dc:format>image/svg+xml</dc:format>
        <dc:type
           rdf:resource="http://purl.org/dc/dcmitype/StillImage" />
        <dc:title />
      </cc:Work>
    </rdf:RDF>
  </metadata>
  <g
     inkscape:groupmode="layer"
     id="layer2"
     inkscape:label="Fundo"
     transform="translate(0,-26.458333)"
     style="display:inline">
    <circle
       style="fill:#000000;fill-opacity:0;stroke:#ffff01;stroke-width:0.35044149;stroke-miterlimit:4;stroke-dasharray:none;stroke-opacity:0.98139535"
       id="path829"
       cx="26.458334"
       cy="52.916664"
       r="26.283113" />
  </g>
  <g
     inkscape:groupmode="layer"
     id="layer3"
     inkscape:label="adesivos"
     transform="translate(0,-26.458333)"
     style="display:inline"
     sodipodi:insensitive="true">
    <text
       xml:space="preserve"
       style="font-style:normal;font-variant:normal;font-weight:normal;font-stretch:normal;font-size:10.58333302px;line-height:1.25;font-family:Verdana;-inkscape-font-specification:Verdana;letter-spacing:0px;word-spacing:0px;fill:#000000;fill-opacity:1;stroke:none;stroke-width:0.26458332"
       x="-8.8460026"
       y="52.345547"
       id="text833"><tspan
         sodipodi:role="line"
         id="tspan831"
         x="-8.8460026"
         y="62.001041"
         style="font-style:normal;font-variant:normal;font-weight:normal;font-stretch:normal;font-family:'Microsoft New Tai Lue';-inkscape-font-specification:'Microsoft New Tai Lue';stroke-width:0.26458332" /></text>
  </g>
  <g
     inkscape:groupmode="layer"
     id="layer5"
     inkscape:label="marcador"
     style="display:inline"
     transform="translate(0,13.229167)"
     sodipodi:insensitive="true" />
  <g
     inkscape:groupmode="layer"
     id="layer4"
     inkscape:label="numero-marcador"
     transform="translate(0,13.229167)"
     sodipodi:insensitive="true">
    <text
       xml:space="preserve"
       style="font-style:normal;font-variant:normal;font-weight:normal;font-stretch:normal;font-size:14.01766014px;line-height:1.25;font-family:Verdana;-inkscape-font-specification:Verdana;letter-spacing:0px;word-spacing:0px;fill:#ffffff;fill-opacity:1;stroke:none;stroke-width:0.35044149"
       x="43.55024"
       y="21.777651"
       id="text5485-0-3-3"><tspan
         sodipodi:role="line"
         id="tspan5483-3-1-5"
         x="43.55024"
         y="34.566387"
         style="font-style:normal;font-variant:normal;font-weight:normal;font-stretch:normal;font-size:5.60706377px;font-family:'Tw Cen MT';-inkscape-font-specification:'Tw Cen MT';fill:#ffffff;stroke-width:0.35044149" /></text>
  </g>
  <g
     inkscape:groupmode="layer"
     id="layer1"
     inkscape:label="ponteiro"
     transform="translate(0,13.229167)"
     style="display:inline">
    <path
       style="fill:#ffff00;fill-opacity:1;stroke:#ff0000;stroke-width:0.26458332;stroke-miterlimit:4;stroke-dasharray:none;stroke-opacity:1"
       d="M 39.558397,7.937519 38.694752,7.8253126 37.8313,7.713586 38.048918,8.2370799 37.178477,8.5878073 c -0.007,-1.239e-4 -0.017,8.477e-4 -0.01776,-0.0012 -0.0013,-0.00352 0.102128,-0.1466346 0.230181,-0.3178256 0.128044,-0.1711962 0.232076,-0.3131125 0.231137,-0.3154344 -9.49e-4,-0.00233 -0.006,-0.00258 -0.01134,-4.633e-4 -0.01419,0.00573 -0.669195,0.2441718 -0.701599,0.2553955 -0.01521,0.00527 -0.02923,0.0072 -0.03166,0.0044 -0.0023,-0.00276 0.0082,-0.029383 0.02336,-0.059554 0.01516,-0.030183 0.05303,-0.1060762 0.08412,-0.1687191 0.06153,-0.1239868 0.327726,-0.6581335 0.464598,-0.9320887 0.04709,-0.094259 0.08406,-0.1731397 0.08161,-0.1749498 -0.0024,-0.00178 -0.03943,0.027074 -0.08188,0.063638 -0.04245,0.036565 -0.22798,0.1953981 -0.412508,0.35341 -0.184523,0.1580159 -0.40277,0.3449021 -0.484994,0.4154877 -0.08223,0.070584 -0.151781,0.1273686 -0.154855,0.1259058 -0.0046,-0.00225 0.01028,-0.1502941 0.05262,-0.5192817 0.02168,-0.188919 0.02776,-0.2505203 0.02555,-0.2559927 -0.0025,-0.00633 -0.04588,0.040771 -0.0935,0.1011862 -0.01517,0.019195 -0.04517,0.05539 -0.06659,0.080872 -0.05763,0.068574 -0.211832,0.253369 -0.280607,0.3364742 -0.03418,0.041333 -0.06284,0.071346 -0.06661,0.069738 -0.0069,-0.00292 -0.0096,-0.034842 -0.05692,-0.7648578 -0.033,-0.5094284 -0.04651,-0.7196243 -0.04719,-0.7214001 -0.0038,-0.00994 -0.02212,0.035605 -0.08783,0.2203538 -0.04271,0.1201021 -0.08535,0.2392662 -0.09462,0.2643258 -0.0092,0.025072 -0.03628,0.1009434 -0.06022,0.1685616 -0.06669,0.1882887 -0.259225,0.72688 -0.263948,0.7387024 -0.0023,0.00577 -0.0062,0.00968 -0.0081,0.00885 -0.0075,-0.00317 -0.0334,-0.061301 -0.162518,-0.3646255 -0.131134,-0.3080335 -0.148741,-0.3468431 -0.156131,-0.3432425 -0.0021,9.918e-4 -0.0087,0.031777 -0.0148,0.06836 -0.0061,0.036607 -0.01719,0.099492 -0.02498,0.1398762 -0.0133,0.068948 -0.02489,0.1317787 -0.07837,0.4304872 -0.01191,0.066541 -0.02459,0.1223831 -0.02809,0.1238618 -0.0077,0.00322 0.02242,0.047699 -0.319785,-0.472857 C 34.409604,6.9100118 34.234364,6.6438711 34.17494,6.5538125 34.115517,6.4637558 34.066143,6.387501 34.065023,6.3847191 c -0.0011,-0.0028 -0.0035,-0.00271 -0.0056,3.6e-6 -0.0045,0.00612 -0.0033,0.016354 0.03707,0.2385612 0.06154,0.3389051 0.16757,0.9265348 0.21343,1.1837168 0.0035,0.019445 0.0037,0.037771 6.76e-4,0.040396 -0.003,0.00258 -0.02906,-0.012918 -0.05776,-0.034112 -0.02869,-0.02119 -0.08492,-0.062642 -0.125173,-0.09219 -0.04025,-0.029555 -0.09826,-0.072282 -0.129116,-0.095059 -0.217714,-0.1606686 -0.299085,-0.2198299 -0.30812,-0.2240596 -0.0088,-0.00412 -0.01015,-0.00285 -0.0079,0.00932 0.0015,0.0079 0.02233,0.066942 0.0462,0.131254 0.155086,0.418342 0.214339,0.5888233 0.206562,0.5914626 -0.0035,0.0012 -0.08924,-0.039397 -0.190711,-0.090299 C 33.64307,7.9928197 33.471624,7.9072588 33.363685,7.8534287 33.255748,7.7996005 33.102532,7.7227788 33.023169,7.683093 32.569942,7.4564261 32.593773,7.4677775 32.599571,7.4821636 c 0.0014,0.00364 0.07513,0.09207 0.163148,0.1961164 0.08801,0.104047 0.222576,0.2629854 0.299044,0.3536295 0.07647,0.090645 0.213192,0.253353 0.304243,0.3610048 0.179141,0.2118615 0.191087,0.2266454 0.180031,0.2311 -0.0039,0.00156 -0.03161,2.822e-4 -0.06142,-0.00311 -0.02983,-0.0034 -0.10819,-0.01235 -0.174603,-0.019903 -0.164457,-0.018704 -0.185406,-0.021045 -0.312443,-0.035677 -0.186696,-0.021493 -0.206945,-0.023226 -0.20905,-0.018281 -0.002,0.00466 0.08843,0.080715 0.499292,0.4205849 0.04832,0.039979 0.08775,0.076341 0.08782,0.081057 8.5e-5,0.00635 -0.17911,0.019172 -0.708449,0.050344 -0.795547,0.046882 -0.781187,0.04583 -0.783679,0.051685 -9.92e-4,0.00236 0.0064,0.00699 0.01701,0.010414 0.01054,0.00335 0.0745,0.025902 0.141573,0.049927 0.06706,0.024025 0.154073,0.055074 0.193823,0.068987 0.0918,0.032114 0.679542,0.240819 0.81861,0.290807 0.05783,0.020782 0.132455,0.047339 0.16568,0.058598 0.03322,0.01125 0.06114,0.02412 0.06235,0.028916 0.0018,0.00731 -0.01546,0.016527 -0.103498,0.055631 -0.646455,0.2871488 -0.605719,0.2682915 -0.589084,0.2746873 0.01241,0.00477 0.07892,0.0172 0.250862,0.046005 0.03209,0.0054 0.09152,0.01536 0.132196,0.0225 0.04068,0.0071 0.140802,0.0244 0.222247,0.03859 0.08145,0.01418 0.148863,0.02792 0.149872,0.03043 4.55e-4,0.0012 -0.0085,0.0074 -0.01326,0.01143 l -5.200597,2.095479 a 1.9574554,1.9574553 68.054 0 0 -2.41067,-0.811505 1.9574554,1.9574553 68.054 0 0 -1.084074,2.547239 1.9574554,1.9574553 68.054 0 0 2.54724,1.084073 1.9574554,1.9574553 68.054 0 0 1.173188,-2.255549 l 5.185261,-2.089299 c 0.0052,-7.9e-4 0.0336,-0.0059 0.03386,-0.0058 0.0072,0.0028 -0.005,0.0217 -0.06718,0.105641 -0.06116,0.08256 -0.152196,0.205883 -0.29914,0.405234 -0.02963,0.04012 -0.06165,0.08364 -0.07135,0.09671 -0.0097,0.01305 -0.01708,0.02536 -0.01615,0.02768 8.94e-4,0.0022 0.01506,-0.0011 0.03097,-0.0075 0.01594,-0.0063 0.16299,-0.06138 0.326823,-0.122216 0.163832,-0.06084 0.314503,-0.117324 0.33497,-0.1255 0.02742,-0.01094 0.03828,-0.01286 0.04048,-0.0074 0.0017,0.0041 -0.01576,0.04495 -0.03864,0.09078 -0.119072,0.238147 -0.166934,0.333508 -0.176445,0.353008 -0.0058,0.01182 -0.01438,0.02945 -0.01934,0.03903 -0.0049,0.0096 -0.02615,0.05076 -0.04656,0.09178 -0.0421,0.08444 -0.243122,0.487588 -0.325099,0.651917 -0.02991,0.05987 -0.0512,0.109042 -0.04751,0.108847 0.0061,-3.59e-4 0.128563,-0.102638 0.728534,-0.608889 0.106403,-0.08978 0.240052,-0.202639 0.296847,-0.250537 0.104713,-0.08834 0.118949,-0.09887 0.123088,-0.08859 0.0013,0.0032 -0.0016,0.04134 -0.0066,0.08456 -0.005,0.04322 -0.01123,0.09967 -0.01407,0.125459 -0.0029,0.02579 -0.01423,0.125354 -0.02506,0.221256 -0.03243,0.287049 -0.03317,0.294373 -0.03509,0.316665 -0.0011,0.01182 -1.41e-4,0.02218 0.0021,0.02312 0.0022,9.52e-4 0.0281,-0.02791 0.05732,-0.06377 0.0293,-0.03583 0.06959,-0.08487 0.08973,-0.109144 0.02014,-0.02427 0.104461,-0.126443 0.187124,-0.226941 0.08267,-0.100491 0.152291,-0.183376 0.154701,-0.184349 0.0024,-9.6e-4 0.007,0.0013 0.01028,0.0048 0.0033,0.0035 0.01807,0.196709 0.03275,0.429726 0.04777,0.758235 0.06522,1.0302 0.06671,1.033907 7.82e-4,0.002 0.0034,0.0031 0.0058,0.0021 0.0044,-0.0017 0.01737,-0.03688 0.120761,-0.323889 0.02735,-0.07594 0.0797,-0.221144 0.116262,-0.322623 0.292005,-0.810445 0.268119,-0.746599 0.277476,-0.739696 0.0051,0.0038 0.134935,0.292326 0.254186,0.564473 0.0295,0.06732 0.05741,0.126522 0.06194,0.131596 0.0096,0.01081 0.0086,0.01352 0.03646,-0.155643 0.0099,-0.06032 0.02144,-0.128478 0.02543,-0.151204 0.01262,-0.07193 0.02748,-0.160456 0.04982,-0.298085 0.02398,-0.147649 0.02608,-0.15728 0.03713,-0.152577 0.0041,0.0017 0.03689,0.04746 0.07271,0.101633 0.03583,0.05417 0.164763,0.247342 0.285991,0.429086 0.202445,0.303511 0.376156,0.564837 0.44079,0.662554 0.01423,0.02154 0.02751,0.0385 0.02965,0.03764 0.0021,-8.46e-4 -0.0065,-0.05748 -0.01931,-0.125371 -0.01281,-0.06789 -0.05935,-0.315962 -0.10311,-0.551802 -0.133488,-0.719468 -0.144453,-0.780233 -0.145051,-0.781718 -3.09e-4,-7.66e-4 0.0023,-0.0026 0.0062,-0.0041 0.0038,-0.0015 0.04585,0.02524 0.09304,0.05945 0.08916,0.06464 0.106179,0.07751 0.376287,0.275704 0.08996,0.06602 0.165468,0.119265 0.167559,0.11857 0.0068,-0.0022 -0.02037,-0.07906 -0.1327,-0.37497 -0.11938,-0.314498 -0.13164,-0.350324 -0.121614,-0.354364 0.0059,-0.0024 0.05034,0.01901 0.302066,0.144042 0.04304,0.02138 0.09307,0.04583 0.111066,0.05442 0.018,0.0086 0.074,0.0364 0.124618,0.06177 0.05062,0.02537 0.125967,0.06253 0.167661,0.08287 0.0417,0.02034 0.158948,0.07829 0.260186,0.128603 0.376417,0.187046 0.364414,0.181252 0.357486,0.164056 -0.003,-0.0073 -0.17706,-0.213181 -0.793669,-0.941006 -0.08439,-0.09961 -0.151569,-0.183388 -0.14998,-0.186937 0.0016,-0.0036 0.176364,0.01271 0.387966,0.03645 0.211603,0.02373 0.385384,0.04065 0.386435,0.03818 0.0011,-0.0025 -0.01492,-0.01829 -0.0354,-0.03532 -0.02048,-0.01704 -0.06641,-0.05514 -0.102125,-0.08477 -0.03571,-0.02962 -0.139737,-0.115736 -0.230981,-0.191626 -0.09125,-0.07589 -0.179121,-0.149454 -0.195501,-0.163024 -0.01882,-0.01557 -0.02877,-0.02719 -0.02666,-0.0316 0.002,-0.0042 0.225969,-0.02105 0.555893,-0.0418 0.877128,-0.05518 0.917676,-0.05767 0.919725,-0.06249 0.0011,-0.0025 -0.01074,-0.0091 -0.02643,-0.01443 -0.01568,-0.0053 -0.05061,-0.0181 -0.07771,-0.02831 -0.02709,-0.01021 -0.192197,-0.06911 -0.366421,-0.1309257 -1.036413,-0.3677384 -0.9494,-0.3344945 -0.911937,-0.3495896 0.07898,-0.031828 0.697691,-0.301268 0.699075,-0.3045214 0.003,-0.00699 0.02651,-0.00298 -0.540984,-0.096802 -0.120693,-0.019956 -0.221073,-0.036657 -0.222819,-0.037246 -0.006,-0.00202 0.0046,-0.012814 0.0287,-0.031076 l 0.856521,-0.3451395 0.218097,0.5233014 0.52863,-0.6915832 z m -2.68897,1.0088107 c 0.154479,0.3351735 0.19619,0.6935355 0.121824,1.046244 -0.02734,0.1296893 -0.0582,0.2246973 -0.112356,0.3461303 -0.175972,0.394533 -0.494196,0.700549 -0.896498,0.862648 -0.255401,0.102905 -0.49149,0.139698 -0.762404,0.118323 -0.366666,-0.02893 -0.705133,-0.174778 -0.98227,-0.423204 -0.156968,-0.140711 -0.272637,-0.290688 -0.374417,-0.485386 -0.03318,-0.06356 -0.09238,-0.211124 -0.112889,-0.281553 -0.11012,-0.3787353 -0.08674,-0.776587 0.0669,-1.1351005 0.142288,-0.3320157 0.378357,-0.598726 0.699098,-0.7897962 0.07283,-0.043472 0.271191,-0.129344 0.354861,-0.1535691 0.313643,-0.090652 0.615736,-0.094191 0.928972,-0.010501 0.09383,0.02507 0.287514,0.1043941 0.37233,0.1525017 0.30811,0.1747752 0.551682,0.4382793 0.69685,0.753263 z"
       id="path845"
       inkscape:connector-curvature="0" />
  </g>
</svg>
