<?xml version="1.0" encoding="UTF-8" standalone="no"?>
<!-- Created with Inkscape (http://www.inkscape.org/) -->

<svg
   xmlns:dc="http://purl.org/dc/elements/1.1/"
   xmlns:cc="http://creativecommons.org/ns#"
   xmlns:rdf="http://www.w3.org/1999/02/22-rdf-syntax-ns#"
   xmlns:svg="http://www.w3.org/2000/svg"
   xmlns="http://www.w3.org/2000/svg"
   xmlns:sodipodi="http://sodipodi.sourceforge.net/DTD/sodipodi-0.dtd"
   xmlns:inkscape="http://www.inkscape.org/namespaces/inkscape"
   width="741"
   height="741"
   viewBox="0 0 196.05625 196.05626"
   version="1.1"
   id="svg8"
   inkscape:version="0.92.4 (5da689c313, 2019-01-14)"
   sodipodi:docname="ponteiro_segundos.svg">
  <defs
     id="defs2" />
  <sodipodi:namedview
     id="base"
     pagecolor="#ffffff"
     bordercolor="#666666"
     borderopacity="1.0"
     inkscape:pageopacity="0.0"
     inkscape:pageshadow="2"
     inkscape:zoom="0.66962762"
     inkscape:cx="511.63823"
     inkscape:cy="517.18719"
     inkscape:document-units="mm"
     inkscape:current-layer="layer5"
     showgrid="false"
     showguides="false"
     inkscape:window-width="1366"
     inkscape:window-height="705"
     inkscape:window-x="-8"
     inkscape:window-y="-8"
     inkscape:window-maximized="1"
     units="px">
    <inkscape:grid
       type="xygrid"
       id="grid3717" />
  </sodipodi:namedview>
  <metadata
     id="metadata5">
    <rdf:RDF>
      <cc:Work
         rdf:about="">
        <dc:format>image/svg+xml</dc:format>
        <dc:type
           rdf:resource="http://purl.org/dc/dcmitype/StillImage" />
        <dc:title></dc:title>
      </cc:Work>
    </rdf:RDF>
  </metadata>
  <g
     inkscape:groupmode="layer"
     id="layer3"
     inkscape:label="borda"
     style="display:inline"
     transform="translate(0,-100.94372)" />
  <g
     inkscape:label="Marcadores"
     inkscape:groupmode="layer"
     id="layer1"
     style="display:inline"
     transform="translate(0,-100.94372)" />
  <g
     inkscape:groupmode="layer"
     id="layer2"
     inkscape:label="Numeros"
     style="display:inline"
     transform="translate(0,-100.94372)" />
  <g
     inkscape:groupmode="layer"
     id="layer4"
     inkscape:label="adesivos"
     style="display:inline"
     transform="translate(0,-100.94372)" />
  <g
     inkscape:groupmode="layer"
     id="layer5"
     inkscape:label="ponteiros"
     style="display:inline">
    <g
       id="g1206">
      <path
         style="fill:#ffff00;stroke-width:0.19019587"
         d="m 96.006441,104.56112 c -1.34491,-0.5328 -2.544666,-1.6466 -3.201336,-2.97194 -0.487515,-0.98395 -0.552822,-1.32241 -0.563368,-2.919827 -0.01087,-1.645622 0.03677,-1.894732 0.533803,-2.791541 0.692117,-1.248816 1.382357,-1.910684 2.745103,-2.632252 1.002463,-0.530806 1.088205,-0.628886 1.144194,-1.30889 0.03329,-0.404296 -0.02381,-0.81941 -0.126879,-0.922486 -0.103071,-0.103069 -1.003358,-0.198777 -2.000638,-0.21268 -1.858952,-0.02595 -2.365387,-0.208186 -2.14854,-0.773274 0.08872,-0.231204 0.411904,-0.298079 1.440498,-0.298079 0.729364,0 1.368943,-0.0693 1.421286,-0.153992 0.05235,-0.0847 -0.163917,-0.662414 -0.48058,-1.283824 -0.534129,-1.048149 -0.570471,-1.24735 -0.502705,-2.755462 0.06614,-1.471969 0.146079,-1.759617 0.845677,-3.043132 1.061787,-1.948006 1.461755,-3.217525 1.216733,-3.861982 -0.197484,-0.519427 -0.470754,-0.646038 -0.676356,-0.313361 -0.18432,0.298237 -1.366945,0.222549 -1.698177,-0.108683 -0.168362,-0.168362 -0.29888,-0.619146 -0.29888,-1.032277 0,-0.979584 0.660878,-1.521785 1.854887,-1.521785 0.74198,0 0.951926,0.09932 1.618053,0.765447 0.420995,0.420995 0.785552,0.741947 0.810127,0.713236 0.270912,-0.316567 0.918387,-1.912451 1.225407,-3.02038 0.585165,-2.111631 0.704438,-4.125102 0.295422,-4.98704 -0.371532,-0.782943 -0.537968,-0.829604 -1.409089,-0.39503 -0.768223,0.383241 -1.417572,0.230269 -2.155645,-0.507796 -0.487538,-0.487539 -0.55404,-0.675332 -0.484868,-1.369181 0.04409,-0.44228 0.116751,-0.932528 0.161465,-1.089439 0.06596,-0.231484 -0.151886,-0.288583 -1.154975,-0.30273 -1.89982,-0.02681 -1.901959,-0.02739 -1.901959,-0.553155 v -0.475491 h 1.983471 c 1.458655,0 2.054843,-0.07138 2.25321,-0.269734 0.225285,-0.225288 0.290471,-2.474298 0.395537,-13.646552 0.231125,-24.576653 0.527066,-48.3703025 0.60461,-48.6106049 0.0422,-0.1307596 0.237809,-0.2377447 0.434697,-0.2377447 0.345792,0 0.362713,0.4548829 0.497004,13.3612646 0.277454,26.665502 0.617019,48.769596 0.752569,48.988918 0.09281,0.150167 0.828081,0.224259 2.225501,0.224259 1.71935,0 2.10704,0.05248 2.20128,0.298079 0.18166,0.473413 -0.13014,0.624739 -1.55279,0.753621 -0.73226,0.06635 -1.4284,0.149895 -1.54699,0.185687 -0.13718,0.04141 -0.0161,0.460646 0.33284,1.152403 0.46283,0.917577 0.54846,1.31595 0.54846,2.551575 0,1.377282 0.0282,1.477101 0.47549,1.680888 0.47322,0.215612 0.63186,0.676295 0.3029,0.879607 -0.56775,0.350886 -1.92457,4.741747 -1.57368,5.09264 0.47881,0.478812 1.93647,-1.684116 1.93647,-2.873404 0,-0.48774 0.0708,-0.605926 0.33284,-0.555391 0.28129,0.05427 0.33665,0.299451 0.35744,1.58306 0.0292,1.805594 -0.19175,2.42914 -1.27884,3.608493 l -0.80776,0.876315 0.70213,0.578754 c 0.93085,0.767293 1.26478,1.463421 1.26478,2.636672 0,1.159355 -0.34985,1.904429 -1.19796,2.551315 -0.61348,0.467922 -0.626,0.506416 -0.55052,1.691851 0.0565,0.88763 -0.009,1.379942 -0.2445,1.835218 -0.17696,0.342202 -0.25027,0.693238 -0.16291,0.780083 0.0874,0.08684 0.67153,0.18399 1.29816,0.215885 0.93798,0.04773 1.15136,0.121191 1.20743,0.415596 0.10546,0.553666 -0.30409,0.682412 -2.18083,0.685568 -1.968761,0.0036 -2.155684,0.114304 -2.019706,1.199438 0.08041,0.641661 0.194865,0.773994 1.039726,1.20212 2.16083,1.094974 3.38169,3.112939 3.38169,5.58958 0,2.361927 -1.09034,4.337857 -2.99731,5.431747 -1.245203,0.71427 -3.490593,0.83734 -4.923099,0.26982 z m 2.647942,-4.54439 c 0.540131,-0.205361 0.985432,-1.152554 0.806656,-1.715831 -0.06921,-0.218078 -0.371121,-0.523338 -0.670904,-0.678358 -1.41982,-0.73422 -2.655718,1.18596 -1.399389,2.174185 0.569788,0.448194 0.634025,0.459384 1.263637,0.220004 z M 96.995902,84.505811 c 0.224688,-0.169943 0.807325,-0.28161 1.488559,-0.285297 0.945328,-0.005 1.187881,-0.07997 1.560039,-0.481537 0.33128,-0.357455 0.63325,-0.475491 1.2165,-0.475491 0.88103,0 1.1274,-0.324223 0.79714,-1.049054 -0.71861,-1.577173 -3.755099,-1.220285 -5.024157,0.590507 -0.539599,0.769939 -0.897066,1.980117 -0.584895,1.980117 0.09769,0 0.343756,-0.125663 0.546814,-0.279245 z"
         id="path1183"
         inkscape:connector-curvature="0" />
      <path
         style="fill:#ff0000;stroke-width:0.19019587"
         d="m 96.876169,104.50474 c -2.484069,-0.69602 -3.968836,-2.37035 -4.387752,-4.947916 -0.404532,-2.48907 0.815351,-4.830381 3.132635,-6.012445 l 1.284772,-0.655368 -0.05566,-1.151491 -0.05566,-1.151491 -1.997056,-0.0951 c -2.352255,-0.112011 -2.593033,-0.431281 -0.430312,-0.570587 1.638574,-0.105549 1.664882,-0.142599 0.917241,-1.292041 -1.197117,-1.840466 -1.112726,-3.625516 0.304785,-6.446824 1.076014,-2.141622 1.352784,-3.4858 0.854163,-4.148379 -0.27653,-0.367455 -0.305524,-0.369073 -0.852769,-0.04752 -0.722148,0.424287 -0.89799,0.418155 -1.363696,-0.04752 -0.871427,-0.871427 -0.174609,-1.997054 1.236273,-1.997054 0.889635,0 1.458719,0.379137 1.926315,1.283372 0.148889,0.287914 0.352655,0.523488 0.452814,0.523488 0.282159,0 1.086147,-1.718642 1.526925,-3.26402 0.223376,-0.783166 0.440409,-2.230565 0.494487,-3.297741 0.0857,-1.69129 0.05304,-1.970427 -0.294876,-2.520096 -0.423126,-0.668488 -0.850877,-0.766123 -1.431725,-0.32679 -0.797975,0.603554 -1.887162,0.235122 -2.312202,-0.782145 -0.23744,-0.568273 -0.235566,-0.736959 0.01484,-1.336264 0.15762,-0.377239 0.239306,-0.762385 0.181524,-0.855886 -0.05778,-0.09349 -0.784715,-0.169986 -1.615403,-0.169986 -0.830688,0 -1.510342,-0.07644 -1.510342,-0.16985 0,-0.301048 0.565848,-0.400738 2.274618,-0.400738 1.108168,0 1.738348,-0.08026 1.866735,-0.237745 0.125435,-0.153863 0.26762,-6.81392 0.403002,-18.876945 0.193537,-17.244866 0.550792,-38.4165369 0.659531,-39.0852484 0.106323,-0.6538478 0.50762,22.7546384 0.804775,46.9442414 0.111938,9.112142 0.173899,10.754227 0.414888,10.995215 0.224178,0.22418 0.714751,0.270999 2.350841,0.224338 1.42287,-0.04054 2.06743,0.0072 2.06716,0.152009 -2.5e-4,0.133943 -0.55991,0.224453 -1.53287,0.247902 -2.289247,0.05521 -2.385314,0.132772 -1.61509,1.30452 0.56047,0.852658 0.85429,2.04467 0.86057,3.49135 0.004,0.868177 0.079,1.119789 0.39811,1.33167 0.39115,0.259721 0.38939,0.269792 -0.30007,1.721611 -0.97671,2.056675 -1.35048,4.530204 -0.68454,4.530204 0.38086,0 1.38808,-1.035547 1.82721,-1.878587 l 0.45799,-0.879255 0.009,1.007973 c 0.0105,1.201293 -0.32611,1.937884 -1.39075,3.042837 l -0.78765,0.817477 0.83329,0.693044 c 0.88408,0.735283 1.35665,1.599464 1.34979,2.468338 -0.007,0.892482 -0.65748,2.053526 -1.41147,2.519514 -0.50462,0.311873 -0.66416,0.518981 -0.57204,0.74263 0.33997,0.825356 0.30805,1.894409 -0.083,2.778329 -0.22105,0.499723 -0.40191,0.979391 -0.40191,1.065919 0,0.08653 0.5709,0.182638 1.26866,0.21357 2.02601,0.08981 1.70348,0.456039 -0.53754,0.610384 -1.06969,0.07367 -2.014142,0.176758 -2.098787,0.229068 -0.208787,0.129041 -0.194764,1.271791 0.02262,1.843557 0.105723,0.278081 0.53846,0.639497 1.078967,0.901152 3.467,1.67835 4.39032,6.167457 1.89488,9.2128 -1.23627,1.50872 -3.597065,2.26668 -5.446156,1.74858 z m 2.590975,-3.86551 c 0.269618,-0.26962 0.444566,-0.60916 0.388776,-0.754553 -0.06303,-0.164257 0.02593,-0.264342 0.23495,-0.264342 0.83999,0 1.01471,-0.919396 0.42258,-2.223643 -0.641754,-1.413533 -2.618886,-2.017655 -3.949014,-1.206633 -0.681238,0.415373 -1.386592,1.631309 -1.386592,2.3903 0,0.673477 0.87792,2.126201 1.494961,2.473771 0.743544,0.41883 2.17283,0.20661 2.794339,-0.4149 z M 97.023807,84.862728 c 0.604455,-0.412844 0.881342,-0.480027 1.704609,-0.413584 0.883974,0.07131 1.03413,0.02509 1.491534,-0.459547 0.42234,-0.44747 0.64275,-0.530555 1.29943,-0.489846 l 0.79081,0.04903 0.0573,-0.783259 c 0.0496,-0.678602 -0.0222,-0.850127 -0.53764,-1.283817 -0.49695,-0.418155 -0.78161,-0.500572 -1.72905,-0.500572 -1.367402,0 -2.357862,0.45141 -3.180665,1.449613 -0.764329,0.927267 -1.237902,2.924895 -0.693399,2.924895 0.04148,0 0.400184,-0.221808 0.797108,-0.492916 z"
         id="path1181"
         inkscape:connector-curvature="0" />
    </g>
  </g>
</svg>
