<?xml version="1.0" encoding="UTF-8" standalone="no"?>
<!-- Created with Inkscape (http://www.inkscape.org/) -->

<svg
   xmlns:dc="http://purl.org/dc/elements/1.1/"
   xmlns:cc="http://creativecommons.org/ns#"
   xmlns:rdf="http://www.w3.org/1999/02/22-rdf-syntax-ns#"
   xmlns:svg="http://www.w3.org/2000/svg"
   xmlns="http://www.w3.org/2000/svg"
   xmlns:sodipodi="http://sodipodi.sourceforge.net/DTD/sodipodi-0.dtd"
   xmlns:inkscape="http://www.inkscape.org/namespaces/inkscape"
   width="741"
   height="741"
   viewBox="0 0 196.05625 196.05626"
   version="1.1"
   id="svg8"
   inkscape:version="0.92.4 (5da689c313, 2019-01-14)"
   sodipodi:docname="ponteiro_minutos.svg">
  <defs
     id="defs2" />
  <sodipodi:namedview
     id="base"
     pagecolor="#ffffff"
     bordercolor="#666666"
     borderopacity="1.0"
     inkscape:pageopacity="0.0"
     inkscape:pageshadow="2"
     inkscape:zoom="0.70710678"
     inkscape:cx="-76.179853"
     inkscape:cy="384.28736"
     inkscape:document-units="mm"
     inkscape:current-layer="layer5"
     showgrid="false"
     showguides="false"
     inkscape:window-width="1366"
     inkscape:window-height="705"
     inkscape:window-x="-8"
     inkscape:window-y="-8"
     inkscape:window-maximized="1"
     units="px">
    <inkscape:grid
       type="xygrid"
       id="grid3717" />
  </sodipodi:namedview>
  <metadata
     id="metadata5">
    <rdf:RDF>
      <cc:Work
         rdf:about="">
        <dc:format>image/svg+xml</dc:format>
        <dc:type
           rdf:resource="http://purl.org/dc/dcmitype/StillImage" />
        <dc:title />
      </cc:Work>
    </rdf:RDF>
  </metadata>
  <g
     inkscape:label="Marcadores"
     inkscape:groupmode="layer"
     id="layer1"
     style="display:inline"
     transform="translate(0,-100.94372)">
    <ellipse
       style="fill:none;stroke:#000000;stroke-width:0.80089375;stroke-miterlimit:4;stroke-dasharray:none;stroke-opacity:0.97209305"
       id="path7804-7"
       cx="98.040901"
       cy="199.11128"
       rx="95.250366"
       ry="94.889488" />
    <ellipse
       style="fill:#ffffff;stroke:#000000;stroke-width:0.37000787;stroke-miterlimit:4;stroke-dasharray:none;stroke-opacity:1"
       id="path7806"
       cx="98.070786"
       cy="199.02554"
       rx="4.3149962"
       ry="4.3149958" />
  </g>
  <g
     inkscape:groupmode="layer"
     id="layer3"
     inkscape:label="borda"
     style="display:inline"
     transform="translate(0,-100.94372)" />
  <g
     inkscape:groupmode="layer"
     id="layer2"
     inkscape:label="Numeros"
     style="display:inline"
     transform="translate(0,-100.94372)" />
  <g
     inkscape:groupmode="layer"
     id="layer4"
     inkscape:label="adesivos"
     style="display:inline"
     transform="translate(0,-100.94372)" />
  <g
     inkscape:groupmode="layer"
     id="layer5"
     inkscape:label="ponteiros">
    <path
       style="fill:#00640d;stroke-width:0.529;fill-opacity:1;stroke-miterlimit:4;stroke-dasharray:none;stroke:#ffffff;stroke-opacity:1"
       d="m 96.396873,102.86773 c -0.40728,-0.15014 -1.05899,-0.58206 -1.44825,-0.95983 -1.34104,-1.30145 -1.78635,-2.783506 -1.4288,-4.755266 0.26868,-1.48169 0.81839,-2.50955 2.01798,-3.7733 0.54013,-0.56902 0.98206,-1.10493 0.98206,-1.19091 0,-0.21221 -0.30611,-0.19825 -0.44107,0.0201 -0.21174,0.3426 -0.99959,0.17435 -1.49271,-0.31877 -0.9067,-0.9067 -0.37155,-2.15125 0.92502,-2.15125 h 0.70084 l -0.71322,-0.77376 c -1.29364,-1.40342 -1.49117,-2.09827 -1.00424,-3.53248 0.25226,-0.74304 0.24706,-0.82466 -0.0876,-1.3735 -0.65131,-1.06828 -0.37667,-2.57101 0.61201,-3.3487 0.59043,-0.464428 0.56171,-0.668941 -0.23555,-1.67755 -1.18153,-1.494748 -1.26018,-1.820528 -0.43949,-1.820528 0.57443,0 0.51818,-0.27391 -0.29405,-1.431818 -0.38815,-0.553339 -0.70572,-1.084202 -0.70572,-1.17969 0,-0.218461 0.43003,-0.387799 0.98479,-0.387799 0.50909,0 0.53925,-0.275645 0.16588,-1.515723 -0.82323,-2.73419 -0.24286,-6.666265 1.76637,-11.967313 1.0906,-2.877382 1.19352,-3.634432 0.71695,-5.273755 -0.28808,-0.99098 -1.07932,-1.908614 -1.91847,-2.224951 -0.26942,-0.101564 -0.97248,-0.220659 -1.56236,-0.264652 -0.58987,-0.044 -1.11657,-0.124066 -1.17044,-0.177938 -0.16217,-0.162167 0.48363,-0.766484 0.94205,-0.88154 0.48884,-0.122689 0.5427,-0.41104 0.16906,-0.905041 -0.44115,-0.583252 -0.33486,-0.931393 0.30314,-0.992908 l 0.57339,-0.05529 -0.063,-1.794321 c -0.0751,-2.139783 0.0937,-2.74994 1.57782,-5.70395 1.43245,-2.851153 1.76893,-4.134577 1.85852,-7.08898 0.0765,-2.523972 -0.0236,-2.906664 -0.61961,-2.367304 -0.75509,0.683349 -2.13626,0.02609 -2.13626,-1.016581 0,-0.600408 0.71748,-1.34794 1.29376,-1.34794 0.37749,0 0.46005,-0.129336 0.70395,-1.102685 0.51997,-2.075133 0.67241,-4.234834 0.62953,-8.918961 l -0.0425,-4.640535 0.48292,-0.475933 0.48293,-0.475932 0.43039,0.52929 0.43038,0.52929 -7.5e-4,4.763607 c -7.5e-4,4.891691 0.16766,6.802121 0.800117,9.056217 0.18977,0.676368 0.39985,1.088503 0.55483,1.088503 0.41228,0 1.11553,0.834193 1.11553,1.323224 0,0.625654 -0.73436,1.323225 -1.39301,1.323225 -0.28979,0 -0.575957,-0.07939 -0.635937,-0.176431 -0.28734,-0.46495 -0.39509,0.0054 -0.495,2.161267 -0.0596,1.285733 -0.19523,2.953604 -0.30142,3.70638 -0.1062,0.752775 -0.1444,1.447468 -0.0849,1.543761 0.0595,0.09629 0.4164,0.175079 0.7931,0.175079 0.925347,0 1.058837,0.305242 0.378167,0.864733 -0.306777,0.25217 -0.557057,0.543114 -0.556197,0.646541 7.5e-4,0.103426 0.31083,0.361845 0.688757,0.574263 1.40587,0.790137 1.00402,1.411124 -0.687117,1.061827 -1.03749,-0.214292 -1.12388,-0.204717 -1.90115,0.210693 -1.04544,0.558731 -1.62749,1.59973 -1.62749,2.910773 0,1.100534 0.25492,1.867947 1.32273,3.9819 1.84931,3.661107 2.20735,6.161471 1.39327,9.729957 l -0.11069,0.485183 h 1.696637 c 0.93318,0 1.69667,0.06454 1.69667,0.143418 0,0.07889 -0.23818,0.371613 -0.5293,0.650517 -0.2911,0.278899 -0.52928,0.601704 -0.52928,0.717347 0,0.115647 0.60024,0.662034 1.33385,1.214207 0.73363,0.552168 1.30308,1.09769 1.26545,1.212277 -0.0377,0.114582 -0.45924,0.248032 -0.9369,0.296549 -0.83949,0.08528 -0.86708,0.10588 -0.82701,0.617503 0.0791,1.009245 -0.45889,2.371656 -1.28529,3.255143 l -0.782087,0.836108 0.18224,1.453388 c 0.437537,3.489506 1.150377,5.494948 2.838877,7.986677 0.37449,0.552639 0.68088,1.088543 0.68088,1.190902 0,0.10542 -0.37796,0.18611 -0.87173,0.18611 -0.47945,0 -0.91558,0.0709 -0.96916,0.15764 -0.0536,0.0867 0.0267,0.50352 0.17862,0.92626 0.65537,1.82469 0.22512,4.18109 -1.19639,6.55241 -0.662117,1.10452 -0.845167,1.73329 -0.32062,1.10123 0.1284,-0.1547 0.50829,-0.26891 0.8945,-0.26891 0.51508,0 0.7564,0.10818 1.03697,0.46487 0.49124,0.62451 0.46042,1.15657 -0.0995,1.71645 -0.52867,0.52866 -1.0432,0.58943 -1.61278,0.19049 -0.670457,-0.46962 -0.43684,-0.0959 0.75948,1.21486 1.63993,1.79683 1.93665,2.47854 1.93291,4.44089 -0.003,1.31684 -0.0734,1.72339 -0.41568,2.381796 -0.53351,1.0265 -1.51428,2.05164 -2.40418,2.5129 -0.926687,0.48034 -2.892797,0.58425 -3.916237,0.20695 z m 2.90251,-15.215486 c 0.27634,-0.19677 0.726837,-0.77007 1.001117,-1.27402 0.42838,-0.78707 0.48492,-1.04963 0.40104,-1.86232 -0.19684,-1.90723 -1.325607,-3.09921 -2.958177,-3.12384 -1.15003,-0.0174 -1.38762,0.22696 -0.79606,0.81852 0.61798,0.61798 0.58816,1.2631 -0.0876,1.89433 l -0.54228,0.50656 0.71871,0.6837 c 0.85996,0.81806 0.89673,1.22902 0.18269,2.04226 l -0.53602,0.61049 0.4037,0.0858 c 0.72072,0.15313 1.69888,-0.0155 2.21285,-0.38146 z m 0.57265,-10.025022 c 0,-0.159782 -0.23528,-1.025028 -0.52286,-1.922776 -0.28758,-0.897754 -0.61554,-2.354893 -0.7288,-3.238099 -0.11327,-0.8832 -0.27856,-1.605817 -0.36731,-1.605817 -0.33373,0 -1.02748,-0.883196 -1.02748,-1.30807 0,-0.613417 0.84063,-1.378415 1.41144,-1.284458 0.24259,0.03991 0.57677,0.13078 0.74262,0.201881 0.22473,0.09634 0.39312,-0.0209 0.660947,-0.460231 0.44486,-0.729654 0.44914,-1.259864 0.0178,-2.209784 -0.559597,-1.232571 -1.965857,-1.656775 -3.133047,-0.9451 -0.782,0.476815 -1.06351,1.11693 -1.29217,2.938178 -0.33572,2.673942 0.17045,6.053392 1.15942,7.74094 0.92725,1.582233 3.07939,3.045233 3.07939,2.093336 z"
       id="path4870"
       inkscape:connector-curvature="0" />
  </g>
</svg>
