<?xml version="1.0" encoding="UTF-8" standalone="no"?>
<!-- Created with Inkscape (http://www.inkscape.org/) -->

<svg
   xmlns:dc="http://purl.org/dc/elements/1.1/"
   xmlns:cc="http://creativecommons.org/ns#"
   xmlns:rdf="http://www.w3.org/1999/02/22-rdf-syntax-ns#"
   xmlns:svg="http://www.w3.org/2000/svg"
   xmlns="http://www.w3.org/2000/svg"
   xmlns:sodipodi="http://sodipodi.sourceforge.net/DTD/sodipodi-0.dtd"
   xmlns:inkscape="http://www.inkscape.org/namespaces/inkscape"
   width="200"
   height="200"
   viewBox="0 0 52.916665 52.916668"
   version="1.1"
   id="svg8"
   inkscape:version="0.92.4 (5da689c313, 2019-01-14)"
   sodipodi:docname="ponteiro_lua.svg">
  <defs
     id="defs2">
    <pattern
       y="0"
       x="0"
       height="6"
       width="6"
       patternUnits="userSpaceOnUse"
       id="EMFhbasepattern" />
  </defs>
  <sodipodi:namedview
     id="base"
     pagecolor="#ffffff"
     bordercolor="#666666"
     borderopacity="1.0"
     inkscape:pageopacity="0.0"
     inkscape:pageshadow="2"
     inkscape:zoom="1.4142136"
     inkscape:cx="11.517917"
     inkscape:cy="109.42334"
     inkscape:document-units="mm"
     inkscape:current-layer="layer2"
     showgrid="false"
     units="px"
     inkscape:window-width="1366"
     inkscape:window-height="705"
     inkscape:window-x="-8"
     inkscape:window-y="-8"
     inkscape:window-maximized="1" />
  <metadata
     id="metadata5">
    <rdf:RDF>
      <cc:Work
         rdf:about="">
        <dc:format>image/svg+xml</dc:format>
        <dc:type
           rdf:resource="http://purl.org/dc/dcmitype/StillImage" />
        <dc:title />
      </cc:Work>
    </rdf:RDF>
  </metadata>
  <g
     inkscape:groupmode="layer"
     id="layer2"
     inkscape:label="Fundo"
     transform="translate(0,-26.458333)"
     style="display:inline"
     sodipodi:insensitive="true">
    <circle
       style="fill:#000000;fill-opacity:0.02790701;stroke:#ffff01;stroke-width:0.35044149;stroke-miterlimit:4;stroke-dasharray:none;stroke-opacity:1"
       id="path829"
       cx="26.458334"
       cy="52.916664"
       r="26.283113" />
  </g>
  <g
     inkscape:groupmode="layer"
     id="layer1"
     inkscape:label="ponteiro"
     transform="translate(0,13.229167)"
     style="display:inline"
     sodipodi:insensitive="true">
    <path
       inkscape:connector-curvature="0"
       id="path4630-4-1"
       d="m 26.687401,15.662557 -0.409921,0.03122 -0.287292,-0.06088 c -0.158015,-0.03349 -0.44159,-0.139067 -0.630173,-0.234637 l -0.342874,-0.173761 -0.350175,-0.383147 -0.350174,-0.383147 -0.112609,-0.330501 c -0.06193,-0.181777 -0.13114,-0.488125 -0.153796,-0.680772 l -0.04115,-0.350268 0.113934,-0.448016 0.113934,-0.448012 0.222441,-0.327694 0.222441,-0.32769 0.322207,-0.245719 0.322205,-0.245716 0.313035,-0.106644 0.313033,-0.106677 0.0503,-0.80531 0.0503,-0.8053091 -0.0683,-0.108791 -0.06829,-0.108779 -0.425992,-0.02064 -0.425996,-0.02064 v -0.161799 c 0,-0.08901 0.187143,-1.707931 0.415874,-3.597632 0.22873,-1.889702 0.415872,-3.555123 0.415872,-3.700937 V 1.2455509 L 25.6883,1.0630879 25.480363,0.8806259 v -0.214191 -0.214189 l 0.121285,-0.107537 c 0.06672,-0.05914 0.199273,-0.165515 0.294576,-0.236355 l 0.17328,-0.12882 0.0228,-1.286193 0.0228,-1.286194 -0.175597,-0.175596 -0.175596,-0.175596 h -0.240712 -0.240712 l -0.143648,0.182628 -0.143648,0.182629 v 0.135941 c 0,0.07477 0.0508,0.310735 0.112927,0.524379 l 0.112927,0.38844 -0.03728,0.493057 -0.03728,0.493057 -0.113973,0.272822 c -0.06267,0.15006 -0.196123,0.358598 -0.29654,0.463431 l -0.18257,0.190606 h -0.09842 -0.09842 l 0.04961,-0.121284 c 0.02727,-0.06671 0.08097,-0.230304 0.119338,-0.363535 l 0.06974,-0.24224 -0.03679,-0.356444 -0.03679,-0.356444 -0.112729,-0.198406 c -0.06202,-0.109126 -0.189384,-0.304391 -0.283067,-0.433924 l -0.170322,-0.235529 v -0.339752 -0.339754 l 0.100421,-0.194205 c 0.05525,-0.106807 0.210749,-0.291069 0.345586,-0.409457 l 0.245155,-0.21525 0.36012,-0.106938 0.360118,-0.106949 h 0.33398 0.33398 v -0.274656 -0.274649 l -0.139175,-0.37199 -0.139174,-0.37199 -0.24204,-0.282766 c -0.133105,-0.155527 -0.242036,-0.306056 -0.242036,-0.33452 0,-0.02845 0.07996,-0.156582 0.177688,-0.284713 0.09774,-0.128131 0.236962,-0.366955 0.309402,-0.530721 0.07245,-0.163763 0.184451,-0.482951 0.248911,-0.709295 l 0.117192,-0.411539 0.04126,-2.336952 0.04127,-2.3369559 0.122584,-0.12245 0.122582,-0.122451 0.12,0.07555 0.120013,0.07556 0.04261,2.175926 0.04261,2.1759229 0.118093,0.554498 0.118093,0.554497 0.171298,0.378296 c 0.09422,0.208057 0.248029,0.478896 0.341814,0.601854 0.0938,0.122967 0.170519,0.244253 0.170519,0.269539 0,0.02529 -0.12241,0.185048 -0.272043,0.355031 l -0.272042,0.309056 -0.109178,0.320409 -0.10918,0.320406 v 0.299552 0.299557 h 0.334009 0.333982 l 0.363272,0.107897 0.363272,0.107864 0.269251,0.243253 0.269254,0.243255 0.08126,0.246239 0.08129,0.24624 -0.03377,0.299726 -0.03377,0.299726 -0.206082,0.263881 c -0.113364,0.145144 -0.242143,0.369904 -0.286211,0.499488 l -0.08012,0.235607 0.0031,0.353545 0.0031,0.353551 0.09303,0.260706 0.09303,0.260711 -0.06334,0.03916 -0.06334,0.03914 -0.202269,-0.216549 -0.202285,-0.216545 -0.142356,-0.380481 -0.142355,-0.380485 v -0.470005 -0.470006 l 0.105903,-0.356649 0.105902,-0.356652 -0.04453,-0.177387 -0.04453,-0.177389 -0.146122,-0.102361 -0.146137,-0.102361 h -0.215093 -0.215089 l -0.143554,0.155937 -0.143554,0.155954 -0.04248,0.554496 -0.04248,0.554499 0.05884,0.753887 0.05884,0.753885 0.2884,0.239564 0.288399,0.23956 v 0.176461 0.176463 l -0.23887,0.264402 -0.238871,0.264403 0.03331,0.229182 c 0.01833,0.126054 0.219385,1.788462 0.446807,3.694243 0.227425,1.905783 0.413495,3.519891 0.413495,3.586909 v 0.121841 h -0.402048 -0.402008 l -0.08318,0.08318 -0.08318,0.08318 4.9e-4,0.384681 c 2.72e-4,0.211577 0.02029,0.5941791 0.04446,0.8502261 l 0.04396,0.465546 0.339978,0.112927 0.339973,0.112927 0.402189,0.372356 0.402192,0.37236 0.196607,0.43542 0.196604,0.435422 0.001,0.562993 0.001,0.562997 -0.221796,0.450529 -0.221794,0.450526 -0.317098,0.29229 -0.3171,0.292293 -0.364654,0.166946 -0.364654,0.166946 -0.409922,0.03122 z m -0.201981,-1.352095 0.277249,0.0017 0.270031,-0.154818 0.270034,-0.154819 0.132776,-0.242595 0.132777,-0.242595 -0.02609,-0.349339 -0.02609,-0.349339 -0.162543,-0.219849 -0.162543,-0.219849 -0.241263,-0.114503 -0.241264,-0.114503 -0.34359,0.03301 -0.343595,0.03302 -0.279985,0.279987 -0.279985,0.279986 -0.03331,0.346685 -0.03331,0.346686 0.163426,0.290785 0.163428,0.290784 0.243296,0.128702 0.243294,0.128689 0.27725,0.0017 z"
       style="display:inline;fill:#04007d;fill-opacity:1;stroke:#ffff01;stroke-width:0.35044149;stroke-miterlimit:4;stroke-dasharray:none;stroke-opacity:1" />
    <circle
       style="display:inline;fill:#ff0000;fill-opacity:1;stroke:none;stroke-width:0.20093854;stroke-miterlimit:4;stroke-dasharray:none;stroke-opacity:1"
       id="path823"
       cx="26.458334"
       cy="13.229164"
       r="1.3229166" />
  </g>
</svg>
