<?xml version="1.0" encoding="UTF-8" standalone="no"?>
<!-- Created with Inkscape (http://www.inkscape.org/) -->

<svg
   xmlns:dc="http://purl.org/dc/elements/1.1/"
   xmlns:cc="http://creativecommons.org/ns#"
   xmlns:rdf="http://www.w3.org/1999/02/22-rdf-syntax-ns#"
   xmlns:svg="http://www.w3.org/2000/svg"
   xmlns="http://www.w3.org/2000/svg"
   xmlns:sodipodi="http://sodipodi.sourceforge.net/DTD/sodipodi-0.dtd"
   xmlns:inkscape="http://www.inkscape.org/namespaces/inkscape"
   width="741"
   height="741"
   viewBox="0 0 196.05625 196.05626"
   version="1.1"
   id="svg8"
   inkscape:version="0.92.4 (5da689c313, 2019-01-14)"
   sodipodi:docname="ponteiro_horas.svg">
  <defs
     id="defs2" />
  <sodipodi:namedview
     id="base"
     pagecolor="#ffffff"
     bordercolor="#666666"
     borderopacity="1.0"
     inkscape:pageopacity="0.0"
     inkscape:pageshadow="2"
     inkscape:zoom="0.70710678"
     inkscape:cx="163.8547"
     inkscape:cy="384.28736"
     inkscape:document-units="mm"
     inkscape:current-layer="layer5"
     showgrid="false"
     showguides="false"
     inkscape:window-width="1366"
     inkscape:window-height="705"
     inkscape:window-x="-8"
     inkscape:window-y="-8"
     inkscape:window-maximized="1"
     units="px">
    <inkscape:grid
       type="xygrid"
       id="grid3717" />
  </sodipodi:namedview>
  <metadata
     id="metadata5">
    <rdf:RDF>
      <cc:Work
         rdf:about="">
        <dc:format>image/svg+xml</dc:format>
        <dc:type
           rdf:resource="http://purl.org/dc/dcmitype/StillImage" />
        <dc:title />
      </cc:Work>
    </rdf:RDF>
  </metadata>
  <g
     inkscape:label="Marcadores"
     inkscape:groupmode="layer"
     id="layer1"
     style="display:inline"
     transform="translate(0,-100.94372)">
    <ellipse
       style="fill:#ffffff;stroke:#000000;stroke-width:0.37000787;stroke-miterlimit:4;stroke-dasharray:none;stroke-opacity:1"
       id="path7806"
       cx="98.070786"
       cy="199.02554"
       rx="4.3149962"
       ry="4.3149958" />
  </g>
  <g
     inkscape:groupmode="layer"
     id="layer3"
     inkscape:label="borda"
     style="display:inline"
     transform="translate(0,-100.94372)" />
  <g
     inkscape:groupmode="layer"
     id="layer2"
     inkscape:label="Numeros"
     style="display:inline"
     transform="translate(0,-100.94372)" />
  <g
     inkscape:groupmode="layer"
     id="layer4"
     inkscape:label="adesivos"
     style="display:inline"
     transform="translate(0,-100.94372)" />
  <g
     inkscape:groupmode="layer"
     id="layer5"
     inkscape:label="ponteiros">
    <path
       style="fill:#00640d;stroke-width:0.52916667;fill-opacity:1;stroke:#ffffff;stroke-opacity:1;stroke-miterlimit:4;stroke-dasharray:none"
       d="m 96.397069,102.33853 c -2.76841,-0.6976 -4.61613,-3.188363 -4.44847,-5.996634 0.0513,-0.858925 0.2089,-1.406009 0.68352,-2.372328 0.6428,-1.308762 1.00289,-1.76189 2.38987,-3.007443 0.84557,-0.759338 1.58509,-1.637136 1.58509,-1.88147 0,-0.235154 -0.35121,-0.146424 -0.79162,0.199998 -0.57056,0.448798 -1.1459,0.422163 -1.64419,-0.07612 -0.50626,-0.506265 -0.52385,-1.07499 -0.0518,-1.675117 0.36493,-0.463946 0.90804,-0.522414 1.69214,-0.182168 0.39601,0.171839 0.37735,-0.143039 -0.0421,-0.710891 -0.18435,-0.249556 -0.41878,-0.905881 -0.52096,-1.458505 -0.25364,-1.371745 -0.33769,-1.494795 -1.08677,-1.590882 -0.82623,-0.105985 -0.84956,-0.442408 -0.0666,-0.961005 1.59594,-1.057133 2.6369,-2.565039 3.02726,-4.385207 0.15707,-0.732419 0.13339,-0.995347 -0.1724,-1.914253 -0.4793,-1.440276 -1.29813,-2.684888 -2.24947,-3.419118 -0.63808,-0.492469 -0.94031,-0.475302 -0.94031,0.05341 0,0.578845 -0.70049,1.248348 -1.30612,1.248348 -0.68731,0 -1.13712,-0.552473 -1.19299,-1.465286 -0.007,-0.115129 -0.12927,-0.209326 -0.27161,-0.209326 -0.14235,0 -0.45255,-0.193745 -0.68935,-0.430543 -0.36926,-0.369259 -0.41532,-0.525728 -0.32362,-1.099249 0.0845,-0.528303 0.0352,-0.759889 -0.23468,-1.102997 -0.677,-0.860674 -1.03249,-2.785569 -0.75347,-4.079959 0.40131,-1.8617 2.43212,-3.663709 4.13398,-3.668213 0.33995,-8.55e-4 0.66571,-0.07869 0.72391,-0.17286 0.0582,-0.09417 -0.0195,-0.54848 -0.17263,-1.009571 -0.3934,-1.18442 -0.20978,-2.185744 0.76718,-4.183511 2.17589,-4.449458 3.33847,-9.75146 3.33847,-15.225216 0,-1.854031 0.0401,-2.16958 0.30624,-2.410445 0.81032,-0.733334 0.98508,-0.221377 0.99151,2.904617 0.0112,5.437315 1.085731,10.770126 3.020031,14.987782 0.90457,1.972375 1.05109,2.979373 0.62163,4.27236 -0.32155,0.96808 -0.22583,1.159128 0.58681,1.171244 1.0514,0.01567 2.7808,1.229145 3.35455,2.353781 0.45618,0.894198 0.8267,2.012536 0.82954,2.503846 0.003,0.587724 -0.57525,2.107386 -1.07954,2.835069 -0.37627,0.54295 -0.40074,0.666912 -0.22407,1.134968 0.26152,0.692841 -0.028,1.350089 -0.70757,1.606622 -0.27452,0.103621 -0.54251,0.325073 -0.59553,0.492118 -0.1584,0.499073 -0.77164,0.962231 -1.27404,0.962231 -0.61531,0 -1.14065,-0.539878 -1.14065,-1.172229 0,-0.378062 -0.077,-0.502384 -0.31134,-0.502384 -0.56407,0 -1.82406,1.297797 -2.403751,2.475886 -0.49367,1.003279 -0.5499,1.26558 -0.54548,2.544968 0.004,1.27674 0.0638,1.544766 0.56614,2.554524 0.567461,1.140702 1.540021,2.12889 2.427151,2.466179 0.80456,0.305892 0.45696,0.843419 -0.54541,0.843419 -0.41836,0 -0.46415,0.07252 -0.64431,1.02051 -0.10667,0.561282 -0.38766,1.313239 -0.62443,1.67102 -0.23677,0.357786 -0.430491,0.682637 -0.430491,0.721899 0,0.03926 0.295701,0.03171 0.657121,-0.01676 1.25864,-0.168815 1.98534,1.176926 1.10884,2.053424 -0.46542,0.465422 -1.17468,0.530959 -1.67237,0.154527 -0.770781,-0.58299 -0.803691,-0.06095 -0.0478,0.758901 0.2972,0.322365 1.00952,0.987609 1.58292,1.478323 2.04285,1.748253 2.74737,4.336338 1.86396,6.84738 -0.99516,2.828706 -4.328091,4.748676 -7.051861,4.062326 z m 2.94718,-17.074067 c 0.3288,-0.317333 0.48096,-0.635539 0.49101,-1.0268 0.0187,-0.727724 -1.44536,-3.991755 -1.85113,-4.12701 -0.22992,-0.07664 -1.71198,3.343705 -1.71198,3.950956 0,0.609003 0.82354,1.645192 1.3896,1.748409 0.6279,0.114496 1.18617,-0.06652 1.6825,-0.545555 z m -0.61812,-11.107802 c 0.15103,-0.293498 0.55634,-0.864214 0.9007,-1.268256 l 0.626091,-0.734626 -1.003431,-0.981852 c -0.55188,-0.54002 -1.04136,-0.981853 -1.08773,-0.981853 -0.10265,0 -1.95644,1.676357 -2.01499,1.822115 -0.0229,0.05703 0.15656,0.329761 0.39882,0.606072 0.24225,0.276312 0.698,0.900173 1.01277,1.38636 0.31476,0.486186 0.6445,0.839358 0.73274,0.78482 0.0882,-0.05453 0.284,-0.339287 0.43503,-0.63278 z m -2.20921,-4.726621 c 0.64098,-0.840372 0.98485,-2.25655 0.7551,-3.109782 -0.41376,-1.53656 -2.0793,-2.832084 -3.63182,-2.824957 -2.62419,0.01204 -4.33817,2.71354 -3.24655,5.117053 0.27211,0.599139 1.04357,1.411889 1.33777,1.409379 0.0566,-5.22e-4 0.21605,-0.357044 0.3542,-0.792356 0.21124,-0.665587 0.33855,-0.816026 0.8004,-0.945805 0.98365,-0.276404 1.71152,0.419044 1.71152,1.635279 0,0.302678 0.0488,0.59913 0.10846,0.658783 0.17809,0.178095 1.38137,-0.584433 1.81092,-1.147594 z m 5.144951,0.663182 c 0.0658,-0.269095 0.16019,-0.686956 0.2097,-0.928582 0.11562,-0.564362 0.85635,-0.900617 1.46999,-0.667312 0.55682,0.211702 0.96873,0.804904 0.96873,1.395085 0,0.622155 0.26513,0.585968 0.93859,-0.128101 0.94741,-1.00455 1.21048,-2.669959 0.60823,-3.850471 -0.72068,-1.412664 -1.90062,-2.160628 -3.38889,-2.148224 -1.95649,0.01631 -3.349231,1.509765 -3.349231,3.591439 0,1.076836 0.65756,2.363882 1.500301,2.936535 0.70545,0.47937 0.88471,0.444918 1.04258,-0.200369 z m -2.732671,-6.344351 c 0.29525,-0.411136 0.87635,-0.991351 1.291341,-1.289364 0.89739,-0.644465 1.35618,-1.333159 1.50403,-2.257715 0.1222,-0.764237 -0.21286,-1.606775 -0.75423,-1.896503 -0.44609,-0.238742 -0.51166,-0.219566 -0.51166,0.149648 0,0.177142 -0.18839,0.545969 -0.41865,0.819615 -0.230261,0.273649 -0.418651,0.594843 -0.418651,0.713766 0,0.433682 -0.71612,0.991387 -1.273,0.991387 -0.54776,0 -1.23892,-0.609851 -1.23892,-1.093165 0,-0.11588 -0.11688,-0.255543 -0.25974,-0.310361 -0.14285,-0.05482 -0.41013,-0.439668 -0.59395,-0.855223 -0.18382,-0.415553 -0.40964,-0.755554 -0.50183,-0.755554 -0.0922,0 -0.35242,0.199398 -0.57828,0.443106 -0.33215,0.358397 -0.41066,0.618734 -0.41066,1.36179 0,1.120941 0.34793,1.743263 1.42639,2.551317 0.42752,0.32033 1.05054,0.940699 1.38448,1.378597 0.33395,0.437899 0.65428,0.796179 0.71184,0.796179 0.0576,0 0.34623,-0.336384 0.64149,-0.74752 z m -0.0644,-6.383028 c 0.24335,-0.15945 0.67083,-0.245365 1.07547,-0.216149 0.369371,0.02667 0.723231,-0.0031 0.786351,-0.06627 0.0986,-0.09864 -0.11132,-0.787075 -0.800331,-2.624292 l -0.1531,-0.408244 -0.32192,0.529345 c -0.60856,1.00071 -1.92209,0.848548 -2.25087,-0.260748 -0.0881,-0.297335 -0.20116,-0.539879 -0.25119,-0.538989 -0.10175,0.0018 -1.17946,2.757006 -1.17946,3.015316 0,0.09066 0.28377,0.164827 0.63059,0.164827 0.34683,0 0.89317,0.14639 1.21409,0.325312 0.7227,0.402912 0.7543,0.404931 1.25037,0.0799 z"
       id="path4883"
       inkscape:connector-curvature="0" />
    <ellipse
       style="display:inline;fill:none;stroke:#000000;stroke-width:0.80089372;stroke-miterlimit:4;stroke-dasharray:none;stroke-opacity:0.97209305"
       id="path7804-7"
       cx="98.04081"
       cy="98.167305"
       rx="95.250366"
       ry="94.889496" />
  </g>
</svg>
