<?xml version="1.0" encoding="UTF-8" standalone="no"?>
<!-- Created with Inkscape (http://www.inkscape.org/) -->

<svg
   xmlns:dc="http://purl.org/dc/elements/1.1/"
   xmlns:cc="http://creativecommons.org/ns#"
   xmlns:rdf="http://www.w3.org/1999/02/22-rdf-syntax-ns#"
   xmlns:svg="http://www.w3.org/2000/svg"
   xmlns="http://www.w3.org/2000/svg"
   xmlns:sodipodi="http://sodipodi.sourceforge.net/DTD/sodipodi-0.dtd"
   xmlns:inkscape="http://www.inkscape.org/namespaces/inkscape"
   width="150"
   height="150"
   viewBox="0 0 39.6875 39.687501"
   version="1.1"
   id="svg8"
   inkscape:version="0.92.4 (5da689c313, 2019-01-14)"
   sodipodi:docname="roda_semana.svg">
  <defs
     id="defs2" />
  <sodipodi:namedview
     id="base"
     pagecolor="#ffffff"
     bordercolor="#666666"
     borderopacity="1.0"
     inkscape:pageopacity="0.0"
     inkscape:pageshadow="2"
     inkscape:zoom="1.979899"
     inkscape:cx="-5.2225959"
     inkscape:cy="64.591728"
     inkscape:document-units="mm"
     inkscape:current-layer="g1444"
     showgrid="false"
     units="px"
     inkscape:window-width="1366"
     inkscape:window-height="705"
     inkscape:window-x="-8"
     inkscape:window-y="-8"
     inkscape:window-maximized="1" />
  <metadata
     id="metadata5">
    <rdf:RDF>
      <cc:Work
         rdf:about="">
        <dc:format>image/svg+xml</dc:format>
        <dc:type
           rdf:resource="http://purl.org/dc/dcmitype/StillImage" />
        <dc:title />
      </cc:Work>
    </rdf:RDF>
  </metadata>
  <g
     inkscape:label="roda"
     inkscape:groupmode="layer"
     id="layer1"
     transform="translate(0,-257.31248)"
     style="display:inline">
    <text
       xml:space="preserve"
       style="font-style:normal;font-variant:normal;font-weight:normal;font-stretch:normal;font-size:10.58333302px;line-height:1.25;font-family:Rockwell;-inkscape-font-specification:Rockwell;letter-spacing:0px;word-spacing:0px;fill:#000000;fill-opacity:1;stroke:none;stroke-width:0.26458332"
       x="21.515198"
       y="292.72366"
       id="text1047"><tspan
         sodipodi:role="line"
         id="tspan1045"
         x="21.515198"
         y="302.05606"
         style="stroke-width:0.26458332" /></text>
    <flowRoot
       xml:space="preserve"
       id="flowRoot1072"
       style="font-style:normal;font-variant:normal;font-weight:normal;font-stretch:normal;font-size:40px;line-height:1.25;font-family:Rockwell;-inkscape-font-specification:Rockwell;letter-spacing:0px;word-spacing:0px;fill:#000000;fill-opacity:1;stroke:none"
       transform="matrix(0.26458333,0,0,0.26458333,0,244.08332)"><flowRegion
         id="flowRegion1074"><rect
           id="rect1076"
           width="264.65997"
           height="249.00261"
           x="-6.0609155"
           y="-16.172646" /></flowRegion><flowPara
         id="flowPara1078" /></flowRoot>  </g>
  <g
     inkscape:groupmode="layer"
     id="layer3"
     inkscape:label="indentificador"
     style="display:inline"
     transform="translate(0,-13.229166)">
    <g
       id="g1444"
       transform="rotate(-3,19.843703,33.075774)">
      <path
         inkscape:connector-curvature="0"
         d="M 0.91749599,37.517265 7.2268399,36.033089 A 12.963537,12.960337 23.291295 0 1 10.18847,24.456845 l -5.0937518,-4.01272 a 19.445352,19.440551 23.292118 0 0 -4.17722221,17.07314 z m 0,0 a 19.445352,19.440551 23.292118 0 0 0.003071,0.01434 A 19.445352,19.440551 23.292118 0 0 12.149767,50.90775 l 2.80209,-5.839041 a 12.963537,12.960337 23.291295 0 1 -7.7223589,-9.02119 12.963537,12.960337 23.291295 0 1 -0.00254,-0.01376 z m 14.03422701,7.551141 -2.802116,5.83905 a 19.445352,19.440551 23.292118 0 0 12.154049,1.096072 19.445352,19.440551 23.292118 0 0 4.887703,-1.896571 l -2.828,-5.836609 a 12.963537,12.960337 23.291295 0 1 -3.545167,1.42503 12.963537,12.960337 23.291295 0 1 -7.86648,-0.626972 z m 11.411628,-0.798054 2.828,5.836609 a 19.445352,19.440551 23.292118 0 0 9.697666,-13.207376 l -6.312126,-1.420377 a 12.963537,12.960337 23.291295 0 1 -6.213539,8.791149 z m 6.213549,-8.791135 6.312125,1.420364 a 19.445352,19.440551 23.292118 0 0 -0.114894,-8.272734 19.445352,19.440551 23.292118 0 0 -3.528932,-7.38721 l -5.050531,4.060596 a 12.963537,12.960337 23.291295 0 1 2.270521,4.810671 12.963537,12.960337 23.291295 0 1 0.111725,5.368301 z M 30.194667,25.300228 35.245201,21.23963 A 19.445352,19.440551 23.292118 0 0 20.725814,13.663208 l 0.03293,6.488514 a 12.963537,12.960337 23.291295 0 1 9.435926,5.148506 z M 20.75874,20.151724 20.72581,13.663208 a 19.445352,19.440551 23.292118 0 0 -5.33492,0.49142 19.445352,19.440551 23.292118 0 0 -10.2961696,6.289489 l 5.0937526,4.012729 a 12.963537,12.960337 23.291295 0 1 6.687878,-3.994078 12.963537,12.960337 23.291295 0 1 3.882375,-0.311031 z"
         style="display:inline;fill:#000000;fill-opacity:1;stroke:#00ff00;stroke-width:0.81775677;stroke-miterlimit:4;stroke-dasharray:none;stroke-opacity:1"
         id="path815" />
      <text
         transform="matrix(-0.6500772,-0.7597229,0.75981878,-0.65030473,0,0)"
         id="text1028"
         y="-20.815882"
         x="-44.018631"
         style="font-style:normal;font-variant:normal;font-weight:normal;font-stretch:normal;font-size:7.940732px;line-height:1.25;font-family:Rockwell;-inkscape-font-specification:Rockwell;letter-spacing:0px;word-spacing:0px;fill:#000000;fill-opacity:1;stroke:none;stroke-width:0.19851831"
         xml:space="preserve"><tspan
           style="font-size:5.29382133px;fill:#ff0000;stroke-width:0.19851831"
           y="-20.815882"
           x="-44.018631"
           id="tspan1026"
           sodipodi:role="line">Dom</tspan></text>
      <text
         transform="matrix(0.20464622,-0.97880204,0.97881847,0.20489255,0,0)"
         id="text1051"
         y="11.646976"
         x="-32.149345"
         style="font-style:normal;font-variant:normal;font-weight:normal;font-stretch:normal;font-size:7.940732px;line-height:1.25;font-family:Rockwell;-inkscape-font-specification:Rockwell;letter-spacing:0px;word-spacing:0px;fill:#000000;fill-opacity:1;stroke:none;stroke-width:0.19851831"
         xml:space="preserve"><tspan
           style="font-size:5.29382133px;fill:#ff0000;stroke-width:0.19851831"
           y="11.646976"
           x="-32.149345"
           id="tspan1049"
           sodipodi:role="line">Seg</tspan></text>
      <text
         id="text1070"
         y="23.951973"
         x="-0.76107621"
         style="font-style:normal;font-variant:normal;font-weight:normal;font-stretch:normal;font-size:7.940732px;line-height:1.25;font-family:Rockwell;-inkscape-font-specification:Rockwell;letter-spacing:0px;word-spacing:0px;display:inline;fill:#000000;fill-opacity:1;stroke:none;stroke-width:0.19851831"
         xml:space="preserve"
         transform="matrix(0.88789136,-0.4603214,0.46020217,0.88767515,0,0)"><tspan
           style="font-size:5.29382133px;fill:#ff0000;stroke-width:0.19851831"
           y="23.951973"
           x="-0.76107621"
           id="tspan1068"
           sodipodi:role="line">Ter</tspan></text>
      <text
         transform="matrix(0.84663397,0.53213899,-0.53195337,0.84679673,0,0)"
         id="text1099"
         y="2.8572414"
         x="28.704952"
         style="font-style:normal;font-variant:normal;font-weight:normal;font-stretch:normal;font-size:7.940732px;line-height:1.25;font-family:Rockwell;-inkscape-font-specification:Rockwell;letter-spacing:0px;word-spacing:0px;display:inline;fill:#000000;fill-opacity:1;stroke:none;stroke-width:0.19851831"
         xml:space="preserve"><tspan
           style="font-size:5.29382133px;fill:#ff0000;stroke-width:0.19851831"
           y="2.8572414"
           x="28.704952"
           id="tspan1097"
           sodipodi:role="line">Qua</tspan></text>
      <text
         transform="matrix(0.23950186,0.97077873,-0.97102262,0.23946323,0,0)"
         id="text1121"
         y="-25.972349"
         x="32.820911"
         style="font-style:normal;font-variant:normal;font-weight:normal;font-stretch:normal;font-size:7.940732px;line-height:1.25;font-family:Rockwell;-inkscape-font-specification:Rockwell;letter-spacing:0px;word-spacing:0px;fill:#000000;fill-opacity:1;stroke:none;stroke-width:0.19851831"
         xml:space="preserve"><tspan
           style="font-size:5.29382133px;fill:#ff0000;stroke-width:0.19851831"
           y="-25.972349"
           x="32.820911"
           id="tspan1119"
           sodipodi:role="line">Qui</tspan></text>
      <text
         transform="matrix(-0.60350743,0.7974497,-0.7972127,-0.60357661,0,0)"
         id="text1140"
         y="-50.065228"
         x="9.5671492"
         style="font-style:normal;font-variant:normal;font-weight:normal;font-stretch:normal;font-size:7.940732px;line-height:1.25;font-family:Rockwell;-inkscape-font-specification:Rockwell;letter-spacing:0px;word-spacing:0px;fill:#000000;fill-opacity:1;stroke:none;stroke-width:0.19851831"
         xml:space="preserve"><tspan
           style="font-size:5.29382133px;fill:#ff0000;stroke-width:0.19851831"
           y="-50.065228"
           x="9.5671492"
           id="tspan1138"
           sodipodi:role="line">Sex</tspan></text>
      <g
         transform="matrix(0.68327928,0.31020408,-0.31013418,0.68310772,10.318134,6.8675864)"
         id="g1224"
         style="fill:#ff0000">
        <text
           xml:space="preserve"
           style="font-style:normal;font-variant:normal;font-weight:normal;font-stretch:normal;font-size:10.58333302px;line-height:1.25;font-family:Rockwell;-inkscape-font-specification:Rockwell;letter-spacing:0px;word-spacing:0px;fill:#ff0000;fill-opacity:1;stroke:none;stroke-width:0.26458332"
           x="-18.192404"
           y="-53.5368"
           id="text1159"
           transform="rotate(153.69)"><tspan
             sodipodi:role="line"
             id="tspan1157"
             x="-18.192404"
             y="-53.5368"
             style="font-size:7.05555534px;fill:#ff0000;stroke-width:0.26458332">Sab</tspan></text>
        <text
           xml:space="preserve"
           style="font-style:normal;font-variant:normal;font-weight:normal;font-stretch:normal;font-size:10.58333302px;line-height:1.25;font-family:Rockwell;-inkscape-font-specification:Rockwell;letter-spacing:0px;word-spacing:0px;fill:#ff0000;fill-opacity:1;stroke:none;stroke-width:0.26458332"
           x="-14.969911"
           y="-58.525982"
           id="text1163"
           transform="rotate(153.69)"><tspan
             sodipodi:role="line"
             id="tspan1161"
             x="-14.969911"
             y="-58.525982"
             style="font-size:2.82222223px;fill:#ff0000;stroke-width:0.26458332">שבת</tspan></text>
      </g>
    </g>
    <rect
       style="fill:none;fill-opacity:1;stroke:#fffff1;stroke-width:1.05833328;stroke-miterlimit:4;stroke-dasharray:none;stroke-opacity:1"
       id="rect1543"
       width="3.4962797"
       height="2.2678571"
       x="-19.465773"
       y="40.726933" />
    <rect
       style="fill:none;fill-opacity:1;stroke:#fffff1;stroke-width:1.05833328;stroke-miterlimit:4;stroke-dasharray:none;stroke-opacity:1"
       id="rect1545"
       width="14.174107"
       height="6.7090774"
       x="-24.757439"
       y="38.270088" />
  </g>
</svg>
